<?xml version="1.0" encoding="UTF-8"?>
<!DOCTYPE svg PUBLIC "-//W3C//DTD SVG 1.1//EN" "http://www.w3.org/Graphics/SVG/1.1/DTD/svg11.dtd">
<svg xmlns="http://www.w3.org/2000/svg" version="1.1" width="253px" height="280px" style="shape-rendering:geometricPrecision; text-rendering:geometricPrecision; image-rendering:optimizeQuality; fill-rule:evenodd; clip-rule:evenodd" xmlns:xlink="http://www.w3.org/1999/xlink">
<g><path style="opacity:1" fill="#222e46" d="M 195.5,14.5 C 193.283,15.3686 190.95,15.702 188.5,15.5C 180.527,14.075 172.527,12.7417 164.5,11.5C 147.045,8.89581 129.378,8.22914 111.5,9.5C 107.804,9.21735 104.137,8.71735 100.5,8C 102.708,7.80912 104.708,7.30912 106.5,6.5C 136.738,4.20521 166.405,6.87188 195.5,14.5 Z"/></g>
<g><path style="opacity:1" fill="#384256" d="M 86.5,8.5 C 86.0825,9.22158 85.4158,9.72158 84.5,10C 81.5184,10.498 78.5184,10.6646 75.5,10.5C 78.9458,9.3126 82.6125,8.64593 86.5,8.5 Z"/></g>
<g><path style="opacity:1" fill="#172d48" d="M 106.5,6.5 C 104.708,7.30912 102.708,7.80912 100.5,8C 104.137,8.71735 107.804,9.21735 111.5,9.5C 129.378,8.22914 147.045,8.89581 164.5,11.5C 156.5,11.5 148.5,11.5 140.5,11.5C 129.828,11.3335 119.161,11.5002 108.5,12C 101.599,12.128 94.9324,12.9614 88.5,14.5C 87.8333,14.5 87.1667,14.5 86.5,14.5C 83.1667,14.8333 79.8333,15.1667 76.5,15.5C 76.0825,14.7784 75.4158,14.2784 74.5,14C 82.2417,12.328 89.9084,10.6614 97.5,9C 94.5184,8.50204 91.5184,8.33537 88.5,8.5C 94.2882,7.19012 100.288,6.52345 106.5,6.5 Z"/></g>
<g><path style="opacity:1" fill="#3f4f6a" d="M 140.5,11.5 C 148.5,11.5 156.5,11.5 164.5,11.5C 172.527,12.7417 180.527,14.075 188.5,15.5C 199.797,18.1546 210.797,21.8213 221.5,26.5C 220.662,26.8417 220.328,27.5084 220.5,28.5C 194.511,19.6697 167.845,14.003 140.5,11.5 Z"/></g>
<g><path style="opacity:1" fill="#c2c0bc" d="M 86.5,14.5 C 87.1667,14.5 87.8333,14.5 88.5,14.5C 104.202,14.213 119.869,14.5463 135.5,15.5C 135.813,18.2469 135.48,20.9135 134.5,23.5C 131.564,21.1018 130.897,21.7685 132.5,25.5C 132.905,26.5498 133.571,26.5498 134.5,25.5C 135.776,26.6136 135.776,27.6136 134.5,28.5C 129.909,28.295 128.409,25.6283 130,20.5C 134.746,18.7825 134.579,17.7825 129.5,17.5C 128.103,17.2048 126.603,16.8714 125,16.5C 124.768,17.7375 124.268,18.7375 123.5,19.5C 123.38,18.4138 122.713,17.7472 121.5,17.5C 119.927,17.7517 118.594,18.4183 117.5,19.5C 115.763,16.9879 113.263,15.9879 110,16.5C 107.551,16.6582 105.384,17.3248 103.5,18.5C 103.719,17.325 103.386,16.325 102.5,15.5C 95.9481,17.1326 89.2814,17.7993 82.5,17.5C 83.4475,16.0221 84.7809,15.0221 86.5,14.5 Z"/></g>
<g><path style="opacity:1" fill="#cfd0cc" d="M 135.5,15.5 C 137.991,15.6756 140.491,15.6756 143,15.5C 143.689,16.3567 144.522,17.0233 145.5,17.5C 146.524,16.1468 147.857,15.4802 149.5,15.5C 149.5,16.5 149.5,17.5 149.5,18.5C 148.167,22.8333 148.167,27.1667 149.5,31.5C 150.314,29.369 150.814,27.0356 151,24.5C 151.86,27.0835 153.027,29.4168 154.5,31.5C 155.209,32.404 156.209,32.7373 157.5,32.5C 157.5,29.5 157.5,26.5 157.5,23.5C 158.434,22.4324 158.768,21.099 158.5,19.5C 160.541,19.8541 162.374,19.8541 164,19.5C 171.649,21.4554 179.149,23.9554 186.5,27C 187.614,28.5699 188.947,29.9032 190.5,31C 187.183,31.4983 183.85,31.665 180.5,31.5C 180.5,33.5 180.5,35.5 180.5,37.5C 177.128,36.4809 173.794,36.4809 170.5,37.5C 168.5,37.5 166.5,37.5 164.5,37.5C 162.735,36.5386 160.735,36.2053 158.5,36.5C 158.5,50.5 158.5,64.5 158.5,78.5C 157.669,65.0061 157.169,51.3395 157,37.5C 155.929,34.8875 155.095,34.8875 154.5,37.5C 151.069,35.6122 147.402,35.1122 143.5,36C 141.595,37.4213 139.595,38.588 137.5,39.5C 136.5,39.5 135.5,39.5 134.5,39.5C 133.874,35.6246 135.541,33.7913 139.5,34C 140.517,32.9505 140.684,31.7839 140,30.5C 138.708,31.7911 137.542,31.7911 136.5,30.5C 138.394,29.9524 140.06,28.9524 141.5,27.5C 142.386,28.325 142.719,29.325 142.5,30.5C 143.5,30.5 144.5,30.5 145.5,30.5C 145.543,27.0901 145.043,23.7568 144,20.5C 143.632,19.09 142.799,18.09 141.5,17.5C 139.336,20.6055 138.003,23.9389 137.5,27.5C 137.767,23.3703 136.101,22.7036 132.5,25.5C 130.897,21.7685 131.564,21.1018 134.5,23.5C 135.48,20.9135 135.813,18.2469 135.5,15.5 Z"/></g>
<g><path style="opacity:1" fill="#e3e3e1" d="M 94.5,19.5 C 94.5,23.5 94.5,27.5 94.5,31.5C 97.2531,31.8792 99.2531,33.3792 100.5,36C 99.9558,36.7172 99.2891,37.2172 98.5,37.5C 97.0536,36.3871 95.3869,36.2204 93.5,37C 92.1885,39.4799 91.1885,41.9799 90.5,44.5C 90.5,42.8333 90.5,41.1667 90.5,39.5C 88.3944,39.321 86.7277,38.321 85.5,36.5C 86.6888,35.5713 88.0222,35.238 89.5,35.5C 89.8808,33.0582 89.2141,32.3915 87.5,33.5C 86.1166,30.9244 85.2833,31.2577 85,34.5C 84.2753,35.0585 83.4419,35.3918 82.5,35.5C 75.5073,32.7052 68.174,31.3718 60.5,31.5C 60.5,32.5 60.5,33.5 60.5,34.5C 53.8161,33.591 47.8161,35.091 42.5,39C 42.8333,39.3333 43.1667,39.6667 43.5,40C 41.3333,42.1667 39.1667,44.3333 37,46.5C 36.5045,48.4727 36.3379,50.4727 36.5,52.5C 36.1436,54.1898 35.1436,55.1898 33.5,55.5C 31.3862,56.3602 30.2195,58.0268 30,60.5C 29.8333,59.8333 29.6667,59.1667 29.5,58.5C 31.6929,50.9148 33.6929,43.2482 35.5,35.5C 38.1786,33.3128 41.1786,31.8128 44.5,31C 43.8333,30.6667 43.1667,30.3333 42.5,30C 50.0366,28.4843 57.3699,26.3177 64.5,23.5C 74.8071,22.5516 84.8071,21.2183 94.5,19.5 Z"/></g>
<g><path style="opacity:1" fill="#bb3544" d="M 103.5,20.5 C 106.061,28.6108 103.061,32.2775 94.5,31.5C 94.5,27.5 94.5,23.5 94.5,19.5C 97.7773,17.9217 100.777,18.255 103.5,20.5 Z"/></g>
<g><path style="opacity:1" fill="#a06e70" d="M 100.5,21.5 C 98.631,23.6353 97.9644,26.3019 98.5,29.5C 97.5233,26.7131 97.19,23.7131 97.5,20.5C 98.791,20.2627 99.791,20.596 100.5,21.5 Z"/></g>
<g><path style="opacity:1" fill="#a8a8a8" d="M 140.5,11.5 C 167.845,14.003 194.511,19.6697 220.5,28.5C 222.905,37.3893 224.905,46.3893 226.5,55.5C 225.167,55.5 223.833,55.5 222.5,55.5C 222.323,62.1344 221.823,62.1344 221,55.5C 220.399,57.3588 219.566,57.6921 218.5,56.5C 220.115,53.5983 219.449,51.265 216.5,49.5C 219.175,48.2533 221.009,49.2533 222,52.5C 222.132,45.5679 220.798,38.9012 218,32.5C 210.395,28.4113 202.228,25.9113 193.5,25C 183.326,21.2927 172.826,18.4594 162,16.5C 161.05,17.0223 160.216,17.689 159.5,18.5C 158.056,17.019 157.389,17.3523 157.5,19.5C 157.167,19.5 156.833,19.5 156.5,19.5C 155.686,21.631 155.186,23.9644 155,26.5C 153.979,24.0297 152.812,21.6964 151.5,19.5C 151.158,18.6618 150.492,18.3284 149.5,18.5C 149.5,17.5 149.5,16.5 149.5,15.5C 147.857,15.4802 146.524,16.1468 145.5,17.5C 144.522,17.0233 143.689,16.3567 143,15.5C 140.491,15.6756 137.991,15.6756 135.5,15.5C 119.869,14.5463 104.202,14.213 88.5,14.5C 94.9324,12.9614 101.599,12.128 108.5,12C 119.161,11.5002 129.828,11.3335 140.5,11.5 Z"/></g>
<g><path style="opacity:1" fill="#192740" d="M 195.5,14.5 C 205.078,16.6926 214.412,19.6926 223.5,23.5C 228.536,31.9399 232.202,40.9399 234.5,50.5C 233.25,50.4226 232.417,49.756 232,48.5C 231.667,46.5 231.333,44.5 231,42.5C 230.617,43.056 230.117,43.3893 229.5,43.5C 227.228,37.7008 224.561,32.0341 221.5,26.5C 210.797,21.8213 199.797,18.1546 188.5,15.5C 190.95,15.702 193.283,15.3686 195.5,14.5 Z"/></g>
<g><path style="opacity:1" fill="#c96373" d="M 149.5,18.5 C 150.492,18.3284 151.158,18.6618 151.5,19.5C 149.577,23.0293 148.911,27.0293 149.5,31.5C 148.167,27.1667 148.167,22.8333 149.5,18.5 Z"/></g>
<g><path style="opacity:1" fill="#b41632" d="M 151.5,19.5 C 152.812,21.6964 153.979,24.0297 155,26.5C 155.186,23.9644 155.686,21.631 156.5,19.5C 157.089,23.9707 156.423,27.9707 154.5,31.5C 153.027,29.4168 151.86,27.0835 151,24.5C 150.814,27.0356 150.314,29.369 149.5,31.5C 148.911,27.0293 149.577,23.0293 151.5,19.5 Z"/></g>
<g><path style="opacity:1" fill="#b72e40" d="M 129.5,17.5 C 134.579,17.7825 134.746,18.7825 130,20.5C 128.409,25.6283 129.909,28.295 134.5,28.5C 131.822,31.2226 129.322,30.8893 127,27.5C 125.861,23.5789 126.695,20.2456 129.5,17.5 Z"/></g>
<g><path style="opacity:1" fill="#e3d8d4" d="M 100.5,21.5 C 102.222,24.9178 101.556,27.5845 98.5,29.5C 97.9644,26.3019 98.631,23.6353 100.5,21.5 Z"/></g>
<g><path style="opacity:1" fill="#b32d3e" d="M 136.5,30.5 C 136.557,29.391 136.89,28.391 137.5,27.5C 138.003,23.9389 139.336,20.6055 141.5,17.5C 142.799,18.09 143.632,19.09 144,20.5C 145.043,23.7568 145.543,27.0901 145.5,30.5C 144.5,30.5 143.5,30.5 142.5,30.5C 142.719,29.325 142.386,28.325 141.5,27.5C 140.06,28.9524 138.394,29.9524 136.5,30.5 Z"/></g>
<g><path style="opacity:1" fill="#815b61" d="M 156.5,19.5 C 156.833,19.5 157.167,19.5 157.5,19.5C 157.5,20.8333 157.5,22.1667 157.5,23.5C 157.5,26.5 157.5,29.5 157.5,32.5C 156.209,32.7373 155.209,32.404 154.5,31.5C 156.423,27.9707 157.089,23.9707 156.5,19.5 Z"/></g>
<g><path style="opacity:1" fill="#bbbcbb" d="M 216.5,49.5 C 210.043,47.4876 205.209,49.4876 202,55.5C 201.535,62.9006 204.535,68.5672 211,72.5C 214.338,76.2114 215.171,80.378 213.5,85C 210.502,85.8907 207.836,85.3907 205.5,83.5C 205.44,82.9569 205.107,82.6236 204.5,82.5C 203.828,83.9492 203.161,85.2825 202.5,86.5C 200.375,78.9577 197.375,71.7911 193.5,65C 198.691,61.0977 200.524,55.931 199,49.5C 197.5,46.6667 195.333,44.5 192.5,43C 188.479,41.9398 184.479,40.7731 180.5,39.5C 179.501,53.8179 179.167,68.1512 179.5,82.5C 178.669,68.3392 178.169,54.0059 178,39.5C 177.667,41.8333 177.333,44.1667 177,46.5C 176.005,45.9341 175.172,45.2674 174.5,44.5C 176.308,43.0821 176.975,41.0821 176.5,38.5C 174.265,38.7947 172.265,38.4614 170.5,37.5C 173.794,36.4809 177.128,36.4809 180.5,37.5C 180.5,35.5 180.5,33.5 180.5,31.5C 183.85,31.665 187.183,31.4983 190.5,31C 188.947,29.9032 187.614,28.5699 186.5,27C 179.149,23.9554 171.649,21.4554 164,19.5C 162.374,19.8541 160.541,19.8541 158.5,19.5C 158.768,21.099 158.434,22.4324 157.5,23.5C 157.5,22.1667 157.5,20.8333 157.5,19.5C 157.389,17.3523 158.056,17.019 159.5,18.5C 160.216,17.689 161.05,17.0223 162,16.5C 172.826,18.4594 183.326,21.2927 193.5,25C 202.228,25.9113 210.395,28.4113 218,32.5C 220.798,38.9012 222.132,45.5679 222,52.5C 221.009,49.2533 219.175,48.2533 216.5,49.5 Z"/></g>
<g><path style="opacity:1" fill="#b3b3b2" d="M 86.5,14.5 C 84.7809,15.0221 83.4475,16.0221 82.5,17.5C 76.4589,19.5625 70.1256,20.8958 63.5,21.5C 53.6606,25.4563 43.6606,28.7897 33.5,31.5C 23.9787,62.8919 21.812,94.8919 27,127.5C 27.5544,129.61 28.3877,131.61 29.5,133.5C 28.254,141.035 29.0874,148.368 32,155.5C 36.0889,166.821 40.4223,177.487 45,187.5C 45.5133,186.473 46.0133,185.473 46.5,184.5C 48.4806,188.461 50.4806,192.461 52.5,196.5C 54.1667,199.167 55.8333,201.833 57.5,204.5C 56.6182,206.084 55.7848,207.751 55,209.5C 54.2303,210.598 53.397,210.598 52.5,209.5C 34.8343,182.218 24.8343,152.218 22.5,119.5C 22.0287,98.7763 22.6954,78.1096 24.5,57.5C 25.947,47.5932 28.2803,37.9265 31.5,28.5C 46.1596,23.0841 61.1596,18.7508 76.5,15.5C 79.8333,15.1667 83.1667,14.8333 86.5,14.5 Z"/></g>
<g><path style="opacity:1" fill="#d9dad7" d="M 117.5,19.5 C 115.213,24.639 116.547,28.3057 121.5,30.5C 125.57,28.7905 125.236,27.6238 120.5,27C 119.22,24.8683 119.22,22.7016 120.5,20.5C 121.325,19.6143 122.325,19.281 123.5,19.5C 124.268,18.7375 124.768,17.7375 125,16.5C 126.603,16.8714 128.103,17.2048 129.5,17.5C 126.695,20.2456 125.861,23.5789 127,27.5C 129.322,30.8893 131.822,31.2226 134.5,28.5C 135.776,27.6136 135.776,26.6136 134.5,25.5C 133.571,26.5498 132.905,26.5498 132.5,25.5C 136.101,22.7036 137.767,23.3703 137.5,27.5C 136.89,28.391 136.557,29.391 136.5,30.5C 137.542,31.7911 138.708,31.7911 140,30.5C 140.684,31.7839 140.517,32.9505 139.5,34C 135.541,33.7913 133.874,35.6246 134.5,39.5C 135.5,39.5 136.5,39.5 137.5,39.5C 130.033,49.9609 129.7,60.6275 136.5,71.5C 135.624,71.3691 134.957,71.7025 134.5,72.5C 135.348,74.4086 135.682,76.4086 135.5,78.5C 133.585,78.7845 131.919,78.4511 130.5,77.5C 131.833,77.5 133.167,77.5 134.5,77.5C 132.222,70.2774 128.889,63.6108 124.5,57.5C 132.45,50.6752 132.45,43.8418 124.5,37C 123.552,36.5172 122.552,36.3505 121.5,36.5C 117.702,35.5166 113.702,35.1832 109.5,35.5C 109.5,36.8333 109.5,38.1667 109.5,39.5C 108.751,43.0536 107.918,46.7203 107,50.5C 106.751,49.376 106.251,48.376 105.5,47.5C 104.728,50.983 104.394,54.3164 104.5,57.5C 102.523,50.9453 100.523,44.2787 98.5,37.5C 99.2891,37.2172 99.9558,36.7172 100.5,36C 99.2531,33.3792 97.2531,31.8792 94.5,31.5C 103.061,32.2775 106.061,28.6108 103.5,20.5C 103.5,19.8333 103.5,19.1667 103.5,18.5C 105.384,17.3248 107.551,16.6582 110,16.5C 113.263,15.9879 115.763,16.9879 117.5,19.5 Z"/></g>
<g><path style="opacity:1" fill="#b52e3f" d="M 123.5,19.5 C 122.325,19.281 121.325,19.6143 120.5,20.5C 119.22,22.7016 119.22,24.8683 120.5,27C 125.236,27.6238 125.57,28.7905 121.5,30.5C 116.547,28.3057 115.213,24.639 117.5,19.5C 118.594,18.4183 119.927,17.7517 121.5,17.5C 122.713,17.7472 123.38,18.4138 123.5,19.5 Z"/></g>
<g><path style="opacity:1" fill="#b4273d" d="M 107.5,17.5 C 109.924,17.1924 112.257,17.5258 114.5,18.5C 113.311,19.4287 111.978,19.762 110.5,19.5C 110.5,20.8333 110.5,22.1667 110.5,23.5C 114.5,24.1667 114.5,24.8333 110.5,25.5C 110.5,26.5 110.5,27.5 110.5,28.5C 111.978,28.238 113.311,28.5713 114.5,29.5C 112.257,30.4742 109.924,30.8076 107.5,30.5C 107.5,26.1667 107.5,21.8333 107.5,17.5 Z"/></g>
<g><path style="opacity:1" fill="#111a31" d="M 119.5,40.5 C 118.5,40.5 117.5,40.5 116.5,40.5C 116.5,52.8333 116.5,65.1667 116.5,77.5C 114.5,77.5 112.5,77.5 110.5,77.5C 110.5,77.1667 110.5,76.8333 110.5,76.5C 112.167,76.5 113.833,76.5 115.5,76.5C 115.5,64.1667 115.5,51.8333 115.5,39.5C 117.767,39.1455 119.101,39.4789 119.5,40.5 Z"/></g>
<g><path style="opacity:1" fill="#2a3a54" d="M 154.5,37.5 C 155.793,39.3635 155.793,41.3635 154.5,43.5C 148.225,39.8815 143.392,41.2148 140,47.5C 139.502,50.8168 139.335,54.1501 139.5,57.5C 138.683,55.0314 138.183,52.3647 138,49.5C 137.955,54.9842 137.122,60.3175 135.5,65.5C 136.236,68.6103 137.903,71.6103 140.5,74.5C 140.5,74.8333 140.5,75.1667 140.5,75.5C 140.167,75.5 139.833,75.5 139.5,75.5C 138.5,74.1667 137.5,72.8333 136.5,71.5C 129.7,60.6275 130.033,49.9609 137.5,39.5C 139.595,38.588 141.595,37.4213 143.5,36C 147.402,35.1122 151.069,35.6122 154.5,37.5 Z"/></g>
<g><path style="opacity:1" fill="#263854" d="M 121.5,36.5 C 122.552,36.3505 123.552,36.5172 124.5,37C 132.45,43.8418 132.45,50.6752 124.5,57.5C 128.889,63.6108 132.222,70.2774 134.5,77.5C 133.167,77.5 131.833,77.5 130.5,77.5C 129.178,77.67 128.011,77.3366 127,76.5C 124.153,70.8068 121.32,65.1401 118.5,59.5C 118.389,58.8826 118.056,58.3826 117.5,58C 118.416,57.7216 119.082,57.2216 119.5,56.5C 123.045,53.3362 124.211,49.3362 123,44.5C 121.961,43.2899 120.794,42.2899 119.5,41.5C 119.5,41.1667 119.5,40.8333 119.5,40.5C 119.101,39.4789 117.767,39.1455 115.5,39.5C 115.5,51.8333 115.5,64.1667 115.5,76.5C 113.833,76.5 112.167,76.5 110.5,76.5C 110.5,63.1667 110.5,49.8333 110.5,36.5C 114.167,36.5 117.833,36.5 121.5,36.5 Z"/></g>
<g><path style="opacity:1" fill="#dbdddc" d="M 119.5,41.5 C 120.794,42.2899 121.961,43.2899 123,44.5C 124.211,49.3362 123.045,53.3362 119.5,56.5C 118.191,54.4294 117.525,51.9294 117.5,49C 117.525,46.0706 118.191,43.5706 119.5,41.5 Z"/></g>
<g><path style="opacity:1" fill="#848587" d="M 119.5,40.5 C 119.5,40.8333 119.5,41.1667 119.5,41.5C 118.191,43.5706 117.525,46.0706 117.5,49C 117.525,51.9294 118.191,54.4294 119.5,56.5C 119.082,57.2216 118.416,57.7216 117.5,58C 118.056,58.3826 118.389,58.8826 118.5,59.5C 117.51,65.6446 117.177,71.9779 117.5,78.5C 114.941,78.8016 112.607,78.4682 110.5,77.5C 112.5,77.5 114.5,77.5 116.5,77.5C 116.5,65.1667 116.5,52.8333 116.5,40.5C 117.5,40.5 118.5,40.5 119.5,40.5 Z"/></g>
<g><path style="opacity:1" fill="#0d223c" d="M 202.5,86.5 C 202.158,87.3382 201.492,87.6716 200.5,87.5C 199.167,87.1667 197.833,86.8333 196.5,86.5C 192.73,79.9469 189.73,72.9469 187.5,65.5C 187.5,64.8333 187.5,64.1667 187.5,63.5C 192.257,60.5082 193.757,56.1748 192,50.5C 190.549,48.5359 188.716,47.2026 186.5,46.5C 185.505,58.6554 185.171,70.9887 185.5,83.5C 183.379,83.6747 181.379,83.3414 179.5,82.5C 179.167,68.1512 179.501,53.8179 180.5,39.5C 184.479,40.7731 188.479,41.9398 192.5,43C 195.333,44.5 197.5,46.6667 199,49.5C 200.524,55.931 198.691,61.0977 193.5,65C 197.375,71.7911 200.375,78.9577 202.5,86.5 Z"/></g>
<g><path style="opacity:0.824" fill="#485365" d="M 234.5,50.5 C 235.924,52.5145 236.59,54.8478 236.5,57.5C 235.076,55.4855 234.41,53.1522 234.5,50.5 Z"/></g>
<g><path style="opacity:1" fill="#d0cfce" d="M 103.5,18.5 C 103.5,19.1667 103.5,19.8333 103.5,20.5C 100.777,18.255 97.7773,17.9217 94.5,19.5C 84.8071,21.2183 74.8071,22.5516 64.5,23.5C 57.3699,26.3177 50.0366,28.4843 42.5,30C 43.1667,30.3333 43.8333,30.6667 44.5,31C 41.1786,31.8128 38.1786,33.3128 35.5,35.5C 33.6929,43.2482 31.6929,50.9148 29.5,58.5C 29.6667,59.1667 29.8333,59.8333 30,60.5C 30.2195,58.0268 31.3862,56.3602 33.5,55.5C 30.7334,63.1899 29.7334,71.1899 30.5,79.5C 29.6829,77.0314 29.1829,74.3647 29,71.5C 28.1661,79.0127 27.3328,86.5127 26.5,94C 27.7073,95.3002 28.3739,96.8002 28.5,98.5C 27.2641,102.701 27.2641,107.035 28.5,111.5C 28.527,117.051 29.1937,122.384 30.5,127.5C 33.0593,147.307 38.3926,166.307 46.5,184.5C 46.0133,185.473 45.5133,186.473 45,187.5C 40.4223,177.487 36.0889,166.821 32,155.5C 29.0874,148.368 28.254,141.035 29.5,133.5C 28.3877,131.61 27.5544,129.61 27,127.5C 21.812,94.8919 23.9787,62.8919 33.5,31.5C 43.6606,28.7897 53.6606,25.4563 63.5,21.5C 70.1256,20.8958 76.4589,19.5625 82.5,17.5C 89.2814,17.7993 95.9481,17.1326 102.5,15.5C 103.386,16.325 103.719,17.325 103.5,18.5 Z"/></g>
<g><path style="opacity:1" fill="#757e93" d="M 121.5,36.5 C 117.833,36.5 114.167,36.5 110.5,36.5C 110.5,49.8333 110.5,63.1667 110.5,76.5C 110.5,76.8333 110.5,77.1667 110.5,77.5C 109.505,65.011 109.171,52.3443 109.5,39.5C 109.5,38.1667 109.5,36.8333 109.5,35.5C 113.702,35.1832 117.702,35.5166 121.5,36.5 Z"/></g>
<g><path style="opacity:1" fill="#4e5a73" d="M 164.5,37.5 C 162.833,37.5 161.167,37.5 159.5,37.5C 159.5,51.5 159.5,65.5 159.5,79.5C 158.833,79.5 158.5,79.1667 158.5,78.5C 158.5,64.5 158.5,50.5 158.5,36.5C 160.735,36.2053 162.735,36.5386 164.5,37.5 Z"/></g>
<g><path style="opacity:1" fill="#5c6984" d="M 221.5,26.5 C 224.561,32.0341 227.228,37.7008 229.5,43.5C 230.286,48.8823 231.286,54.2157 232.5,59.5C 232.726,62.2492 232.393,64.9159 231.5,67.5C 233.836,69.0728 233.836,70.4061 231.5,71.5C 230.501,84.8167 230.167,98.15 230.5,111.5C 230.167,111.5 229.833,111.5 229.5,111.5C 229.667,98.1625 229.5,84.8292 229,71.5C 228.48,65.9749 227.647,60.6416 226.5,55.5C 224.905,46.3893 222.905,37.3893 220.5,28.5C 220.328,27.5084 220.662,26.8417 221.5,26.5 Z"/></g>
<g><path style="opacity:1" fill="#3e4e69" d="M 98.5,37.5 C 97.8614,38.0968 97.528,38.9302 97.5,40C 98.1667,42.6667 98.8333,45.3333 99.5,48C 97.9056,51.6742 97.239,55.5075 97.5,59.5C 96.5309,57.337 95.6976,55.0037 95,52.5C 94.6174,53.056 94.1174,53.3893 93.5,53.5C 93.7031,51.9557 94.3698,50.6223 95.5,49.5C 94.1369,48.1072 93.3036,46.4405 93,44.5C 91.7143,46.6255 90.8809,48.9589 90.5,51.5C 91.8268,58.1749 90.1602,63.8416 85.5,68.5C 86.9117,60.4412 88.5784,52.4412 90.5,44.5C 91.1885,41.9799 92.1885,39.4799 93.5,37C 95.3869,36.2204 97.0536,36.3871 98.5,37.5 Z"/></g>
<g><path style="opacity:1" fill="#c2c3c1" d="M 186.5,46.5 C 188.716,47.2026 190.549,48.5359 192,50.5C 193.757,56.1748 192.257,60.5082 187.5,63.5C 186.511,58.0247 186.178,52.358 186.5,46.5 Z"/></g>
<g><path style="opacity:1" fill="#3e424d" d="M 186.5,46.5 C 186.178,52.358 186.511,58.0247 187.5,63.5C 187.5,64.1667 187.5,64.8333 187.5,65.5C 186.833,71.5 186.167,77.5 185.5,83.5C 185.171,70.9887 185.505,58.6554 186.5,46.5 Z"/></g>
<g><path style="opacity:0.831" fill="#4f5969" d="M 236.5,57.5 C 237.738,59.2143 238.405,61.2143 238.5,63.5C 236.926,61.8984 236.259,59.8984 236.5,57.5 Z"/></g>
<g><path style="opacity:1" fill="#576683" d="M 28.5,23.5 C 28.5394,24.5832 28.8728,25.5832 29.5,26.5C 24.6979,36.4065 21.1979,46.7399 19,57.5C 17.6631,66.1992 16.4965,74.8659 15.5,83.5C 14.6829,85.9686 14.1829,88.6353 14,91.5C 13.6667,89.1667 13.3333,86.8333 13,84.5C 12.5172,85.448 12.3505,86.448 12.5,87.5C 11.5,87.5 10.5,87.5 9.5,87.5C 9.76781,89.099 9.43448,90.4324 8.5,91.5C 10.1467,71.0579 14.9801,51.3913 23,32.5C 24.3571,29.1019 26.1904,26.1019 28.5,23.5 Z"/></g>
<g><path style="opacity:1" fill="#071d37" d="M 86.5,8.5 C 87.1667,8.5 87.8333,8.5 88.5,8.5C 91.5184,8.33537 94.5184,8.50204 97.5,9C 89.9084,10.6614 82.2417,12.328 74.5,14C 75.4158,14.2784 76.0825,14.7784 76.5,15.5C 61.1596,18.7508 46.1596,23.0841 31.5,28.5C 28.2803,37.9265 25.947,47.5932 24.5,57.5C 23.3611,61.3007 22.5277,65.3007 22,69.5C 21.1717,86.3384 21.3384,103.005 22.5,119.5C 24.8343,152.218 34.8343,182.218 52.5,209.5C 52.5,211.5 52.5,213.5 52.5,215.5C 50.8333,213.5 49.1667,211.5 47.5,209.5C 42.9426,201.664 38.1092,193.997 33,186.5C 27.7681,175.084 23.6014,163.417 20.5,151.5C 18.9355,143.511 17.4355,135.511 16,127.5C 15.5001,112.837 15.3334,98.1705 15.5,83.5C 16.4965,74.8659 17.6631,66.1992 19,57.5C 21.1979,46.7399 24.6979,36.4065 29.5,26.5C 28.8728,25.5832 28.5394,24.5832 28.5,23.5C 43.4567,16.9641 59.1234,12.6308 75.5,10.5C 78.5184,10.6646 81.5184,10.498 84.5,10C 85.4158,9.72158 86.0825,9.22158 86.5,8.5 Z"/></g>
<g><path style="opacity:1" fill="#162943" d="M 164.5,37.5 C 166.5,37.5 168.5,37.5 170.5,37.5C 172.265,38.4614 174.265,38.7947 176.5,38.5C 176.975,41.0821 176.308,43.0821 174.5,44.5C 171.811,43.9618 169.144,43.2951 166.5,42.5C 165.508,46.7828 165.174,51.1161 165.5,55.5C 168.482,55.9629 171.482,56.2962 174.5,56.5C 174.5,58.5 174.5,60.5 174.5,62.5C 173.167,62.5 171.833,62.5 170.5,62.5C 169.081,61.5489 167.415,61.2155 165.5,61.5C 165.5,66.1667 165.5,70.8333 165.5,75.5C 167.167,75.5 168.833,75.5 170.5,75.5C 172.5,75.5 174.5,75.5 176.5,75.5C 176.5,77.5 176.5,79.5 176.5,81.5C 173.43,81.6323 170.43,81.299 167.5,80.5C 164.873,79.9084 162.206,79.5751 159.5,79.5C 159.5,65.5 159.5,51.5 159.5,37.5C 161.167,37.5 162.833,37.5 164.5,37.5 Z"/></g>
<g><path style="opacity:1" fill="#8e9198" d="M 170.5,62.5 C 169.167,62.5 167.833,62.5 166.5,62.5C 166.5,66.5 166.5,70.5 166.5,74.5C 168.099,74.2322 169.432,74.5655 170.5,75.5C 168.833,75.5 167.167,75.5 165.5,75.5C 165.5,70.8333 165.5,66.1667 165.5,61.5C 167.415,61.2155 169.081,61.5489 170.5,62.5 Z"/></g>
<g><path style="opacity:1" fill="#2b3a56" d="M 98.5,37.5 C 100.523,44.2787 102.523,50.9453 104.5,57.5C 105.021,63.2516 106.021,68.9183 107.5,74.5C 107.5,75.5 107.5,76.5 107.5,77.5C 104.789,77.8151 102.456,77.1484 100.5,75.5C 100.413,65.1934 96.9133,63.86 90,71.5C 88.8551,74.4318 88.0218,77.4318 87.5,80.5C 86.5,80.5 85.5,80.5 84.5,80.5C 83.5084,80.6716 82.8417,80.3382 82.5,79.5C 82.7261,75.5931 83.7261,71.9265 85.5,68.5C 90.1602,63.8416 91.8268,58.1749 90.5,51.5C 90.8809,48.9589 91.7143,46.6255 93,44.5C 93.3036,46.4405 94.1369,48.1072 95.5,49.5C 94.3698,50.6223 93.7031,51.9557 93.5,53.5C 92.4084,57.1155 91.9084,60.7822 92,64.5C 93.5843,63.1387 95.4176,62.472 97.5,62.5C 97.5,61.5 97.5,60.5 97.5,59.5C 97.239,55.5075 97.9056,51.6742 99.5,48C 98.8333,45.3333 98.1667,42.6667 97.5,40C 97.528,38.9302 97.8614,38.0968 98.5,37.5 Z"/></g>
<g><path style="opacity:1" fill="#b8bcc5" d="M 97.5,59.5 C 97.5,60.5 97.5,61.5 97.5,62.5C 95.4176,62.472 93.5843,63.1387 92,64.5C 91.9084,60.7822 92.4084,57.1155 93.5,53.5C 94.1174,53.3893 94.6174,53.056 95,52.5C 95.6976,55.0037 96.5309,57.337 97.5,59.5 Z"/></g>
<g><path style="opacity:1" fill="#95999f" d="M 39.5,60.5 C 38.7255,65.7968 38.3921,71.1301 38.5,76.5C 37.8373,74.5274 37.5039,72.3608 37.5,70C 37.3275,66.5226 37.9942,63.356 39.5,60.5 Z"/></g>
<g><path style="opacity:1" fill="#32415d" d="M 39.5,60.5 C 37.9942,63.356 37.3275,66.5226 37.5,70C 37.5039,72.3608 37.8373,74.5274 38.5,76.5C 38.5307,82.7022 41.5307,85.5355 47.5,85C 49.6487,83.848 51.482,82.348 53,80.5C 54.1857,85.9962 52.0191,89.4962 46.5,91C 37.4666,92.4819 32.1333,88.6485 30.5,79.5C 29.7334,71.1899 30.7334,63.1899 33.5,55.5C 35.1436,55.1898 36.1436,54.1898 36.5,52.5C 41.1668,47.7405 46.6668,46.4071 53,48.5C 53.4935,50.1341 53.6602,51.8008 53.5,53.5C 46.6616,51.7491 41.9949,54.0824 39.5,60.5 Z"/></g>
<g><path style="opacity:1" fill="#e3e3e1" d="M 109.5,39.5 C 109.171,52.3443 109.505,65.011 110.5,77.5C 112.607,78.4682 114.941,78.8016 117.5,78.5C 117.177,71.9779 117.51,65.6446 118.5,59.5C 121.32,65.1401 124.153,70.8068 127,76.5C 128.011,77.3366 129.178,77.67 130.5,77.5C 131.919,78.4511 133.585,78.7845 135.5,78.5C 135.682,76.4086 135.348,74.4086 134.5,72.5C 134.957,71.7025 135.624,71.3691 136.5,71.5C 137.5,72.8333 138.5,74.1667 139.5,75.5C 137.066,76.354 137.233,77.354 140,78.5C 140.13,82.1112 140.297,85.6112 140.5,89C 138.893,88.9813 137.226,88.8146 135.5,88.5C 125.021,84.8743 116.688,87.8743 110.5,97.5C 105.933,103.563 100.266,108.397 93.5,112C 88.2213,116.77 83.5547,121.937 79.5,127.5C 71.4733,124.483 63.4733,121.483 55.5,118.5C 56.2625,117.732 57.2625,117.232 58.5,117C 58.0426,116.586 57.7093,116.086 57.5,115.5C 58.7185,115.891 59.5518,115.224 60,113.5C 60.7247,114.059 61.5581,114.392 62.5,114.5C 66.9687,112.549 71.6354,111.549 76.5,111.5C 76.5,112.5 76.5,113.5 76.5,114.5C 79.1873,114.664 81.854,114.497 84.5,114C 85.8333,113.333 85.8333,112.667 84.5,112C 83.1667,111.667 81.8333,111.333 80.5,111C 85.2218,108.11 90.2218,106.777 95.5,107C 95.1667,106 94.8333,105 94.5,104C 96.6655,102.007 98.9989,100.173 101.5,98.5C 100.391,97.0353 100.891,96.0353 103,95.5C 103.695,93.2779 104.528,91.1113 105.5,89C 105.355,88.228 105.022,87.5613 104.5,87C 105.833,86.3333 107.167,85.6667 108.5,85C 104.639,83.6573 104.639,82.1573 108.5,80.5C 106.031,79.8319 103.698,79.1653 101.5,78.5C 103.833,78.5 106.167,78.5 108.5,78.5C 108.768,76.901 108.434,75.5676 107.5,74.5C 106.021,68.9183 105.021,63.2516 104.5,57.5C 104.394,54.3164 104.728,50.983 105.5,47.5C 106.251,48.376 106.751,49.376 107,50.5C 107.918,46.7203 108.751,43.0536 109.5,39.5 Z"/></g>
<g><path style="opacity:1" fill="#192e49" d="M 139.5,57.5 C 139.298,64.1002 141.965,69.1002 147.5,72.5C 147.56,73.0431 147.893,73.3764 148.5,73.5C 149.812,68.6819 149.812,64.0152 148.5,59.5C 147.167,59.5 145.833,59.5 144.5,59.5C 144.5,57.5 144.5,55.5 144.5,53.5C 147.881,53.4595 151.214,53.7929 154.5,54.5C 154.666,61.5079 154.5,68.5079 154,75.5C 149.395,76.8966 144.895,76.5632 140.5,74.5C 137.903,71.6103 136.236,68.6103 135.5,65.5C 137.122,60.3175 137.955,54.9842 138,49.5C 138.183,52.3647 138.683,55.0314 139.5,57.5 Z"/></g>
<g><path style="opacity:1" fill="#838fa1" d="M 148.5,59.5 C 149.812,64.0152 149.812,68.6819 148.5,73.5C 147.893,73.3764 147.56,73.0431 147.5,72.5C 148.485,68.3656 148.818,64.0323 148.5,59.5 Z"/></g>
<g><path style="opacity:1" fill="#0d1e37" d="M 216.5,49.5 C 219.449,51.265 220.115,53.5983 218.5,56.5C 215.859,53.5583 212.859,53.0583 209.5,55C 208.203,57.5446 208.369,60.0446 210,62.5C 214.035,66.2002 217.702,70.2002 221,74.5C 223.461,84.0168 219.961,89.6834 210.5,91.5C 208.022,91.3332 206.022,90.3332 204.5,88.5C 204.216,86.5853 204.549,84.9187 205.5,83.5C 207.836,85.3907 210.502,85.8907 213.5,85C 215.171,80.378 214.338,76.2114 211,72.5C 204.535,68.5672 201.535,62.9006 202,55.5C 205.209,49.4876 210.043,47.4876 216.5,49.5 Z"/></g>
<g><path style="opacity:1" fill="#eaeae8" d="M 90.5,44.5 C 88.5784,52.4412 86.9117,60.4412 85.5,68.5C 83.7261,71.9265 82.7261,75.5931 82.5,79.5C 81.5043,66.0102 81.171,52.3435 81.5,38.5C 80.209,38.2627 79.209,38.596 78.5,39.5C 77.8333,39.5 77.1667,39.5 76.5,39.5C 72.9935,37.5322 68.9935,36.5322 64.5,36.5C 60.5,37.5 56.5,38.5 52.5,39.5C 53.2132,41.7759 53.7132,44.1093 54,46.5C 54.3333,45.5 54.6667,44.5 55,43.5C 55.1688,58.0059 55.6688,72.3392 56.5,86.5C 57.4916,86.6716 58.1583,86.3382 58.5,85.5C 60.4147,85.7845 62.0813,85.4511 63.5,84.5C 63.5,78.1667 63.5,71.8333 63.5,65.5C 65.8056,65.0074 68.139,64.6741 70.5,64.5C 71.5,64.5 72.5,64.5 73.5,64.5C 73.5,70.5 73.5,76.5 73.5,82.5C 74.791,82.7373 75.791,82.404 76.5,81.5C 77.8333,81.5 79.1667,81.5 80.5,81.5C 82.099,81.7678 83.4324,81.4345 84.5,80.5C 85.5,80.5 86.5,80.5 87.5,80.5C 88.0218,77.4318 88.8551,74.4318 90,71.5C 96.9133,63.86 100.413,65.1934 100.5,75.5C 100.263,76.791 100.596,77.791 101.5,78.5C 103.698,79.1653 106.031,79.8319 108.5,80.5C 104.639,82.1573 104.639,83.6573 108.5,85C 107.167,85.6667 105.833,86.3333 104.5,87C 105.022,87.5613 105.355,88.228 105.5,89C 104.528,91.1113 103.695,93.2779 103,95.5C 100.891,96.0353 100.391,97.0353 101.5,98.5C 98.9989,100.173 96.6655,102.007 94.5,104C 94.8333,105 95.1667,106 95.5,107C 90.2218,106.777 85.2218,108.11 80.5,111C 81.8333,111.333 83.1667,111.667 84.5,112C 85.8333,112.667 85.8333,113.333 84.5,114C 81.854,114.497 79.1873,114.664 76.5,114.5C 76.5,113.5 76.5,112.5 76.5,111.5C 71.6354,111.549 66.9687,112.549 62.5,114.5C 61.5581,114.392 60.7247,114.059 60,113.5C 59.5518,115.224 58.7185,115.891 57.5,115.5C 57.7093,116.086 58.0426,116.586 58.5,117C 57.2625,117.232 56.2625,117.732 55.5,118.5C 55.5,118.833 55.5,119.167 55.5,119.5C 53.9606,121.652 53.1272,123.985 53,126.5C 50.4604,124.98 47.627,123.98 44.5,123.5C 39.239,116.362 36.0723,116.696 35,124.5C 33.8732,121.623 33.2065,118.623 33,115.5C 32.8171,118.365 32.3171,121.031 31.5,123.5C 30.7412,119.523 30.0746,115.523 29.5,111.5C 29.4135,107.143 29.0802,102.81 28.5,98.5C 28.3739,96.8002 27.7073,95.3002 26.5,94C 27.3328,86.5127 28.1661,79.0127 29,71.5C 29.1829,74.3647 29.6829,77.0314 30.5,79.5C 32.1333,88.6485 37.4666,92.4819 46.5,91C 52.0191,89.4962 54.1857,85.9962 53,80.5C 51.482,82.348 49.6487,83.848 47.5,85C 41.5307,85.5355 38.5307,82.7022 38.5,76.5C 38.3921,71.1301 38.7255,65.7968 39.5,60.5C 41.9949,54.0824 46.6616,51.7491 53.5,53.5C 53.6602,51.8008 53.4935,50.1341 53,48.5C 46.6668,46.4071 41.1668,47.7405 36.5,52.5C 36.3379,50.4727 36.5045,48.4727 37,46.5C 39.1667,44.3333 41.3333,42.1667 43.5,40C 43.1667,39.6667 42.8333,39.3333 42.5,39C 47.8161,35.091 53.8161,33.591 60.5,34.5C 60.5,33.5 60.5,32.5 60.5,31.5C 68.174,31.3718 75.5073,32.7052 82.5,35.5C 83.4419,35.3918 84.2753,35.0585 85,34.5C 85.2833,31.2577 86.1166,30.9244 87.5,33.5C 89.2141,32.3915 89.8808,33.0582 89.5,35.5C 88.0222,35.238 86.6888,35.5713 85.5,36.5C 86.7277,38.321 88.3944,39.321 90.5,39.5C 90.5,41.1667 90.5,42.8333 90.5,44.5 Z"/></g>
<g><path style="opacity:1" fill="#6a7585" d="M 70.5,64.5 C 70.5,64.1667 70.5,63.8333 70.5,63.5C 71.8333,63.5 73.1667,63.5 74.5,63.5C 74.5,69.1667 74.5,74.8333 74.5,80.5C 74.8417,81.3382 75.5084,81.6716 76.5,81.5C 75.791,82.404 74.791,82.7373 73.5,82.5C 73.5,76.5 73.5,70.5 73.5,64.5C 72.5,64.5 71.5,64.5 70.5,64.5 Z"/></g>
<g><path style="opacity:1" fill="#252c3f" d="M 70.5,63.5 C 70.5,63.8333 70.5,64.1667 70.5,64.5C 68.139,64.6741 65.8056,65.0074 63.5,65.5C 63.5,71.8333 63.5,78.1667 63.5,84.5C 62.448,84.6495 61.448,84.4828 60.5,84C 61.149,77.555 61.8157,71.055 62.5,64.5C 65.0841,63.6072 67.7508,63.2739 70.5,63.5 Z"/></g>
<g><path style="opacity:1" fill="#52617a" d="M 61.5,43.5 C 60.7387,44.3909 59.7387,45.0576 58.5,45.5C 57.1746,58.9941 57.1746,72.3274 58.5,85.5C 58.1583,86.3382 57.4916,86.6716 56.5,86.5C 56.1674,72.4841 56.5008,58.4841 57.5,44.5C 58.7362,43.7542 60.0695,43.4208 61.5,43.5 Z"/></g>
<g><path style="opacity:1" fill="#9b9da0" d="M 78.5,39.5 C 79.209,38.596 80.209,38.2627 81.5,38.5C 81.171,52.3435 81.5043,66.0102 82.5,79.5C 82.8417,80.3382 83.5084,80.6716 84.5,80.5C 83.4324,81.4345 82.099,81.7678 80.5,81.5C 80.5,67.8333 80.5,54.1667 80.5,40.5C 80.1583,39.6618 79.4916,39.3284 78.5,39.5 Z"/></g>
<g><path style="opacity:1" fill="#2e415f" d="M 78.5,39.5 C 79.4916,39.3284 80.1583,39.6618 80.5,40.5C 79.669,53.3269 79.169,66.3269 79,79.5C 77.6439,80.3802 76.1439,80.7135 74.5,80.5C 74.5,74.8333 74.5,69.1667 74.5,63.5C 73.1667,63.5 71.8333,63.5 70.5,63.5C 67.7508,63.2739 65.0841,63.6072 62.5,64.5C 61.8157,71.055 61.149,77.555 60.5,84C 61.448,84.4828 62.448,84.6495 63.5,84.5C 62.0813,85.4511 60.4147,85.7845 58.5,85.5C 57.1746,72.3274 57.1746,58.9941 58.5,45.5C 59.7387,45.0576 60.7387,44.3909 61.5,43.5C 63.4461,48.3958 64.1128,53.7291 63.5,59.5C 66.8333,59.1667 70.1667,58.8333 73.5,58.5C 74.4896,52.69 74.8229,46.69 74.5,40.5C 76.099,40.7678 77.4324,40.4345 78.5,39.5 Z"/></g>
<g><path style="opacity:1" fill="#161c2f" d="M 80.5,40.5 C 80.5,54.1667 80.5,67.8333 80.5,81.5C 79.1667,81.5 77.8333,81.5 76.5,81.5C 75.5084,81.6716 74.8417,81.3382 74.5,80.5C 76.1439,80.7135 77.6439,80.3802 79,79.5C 79.169,66.3269 79.669,53.3269 80.5,40.5 Z"/></g>
<g><path style="opacity:1" fill="#6d7a8c" d="M 76.5,39.5 C 77.1667,39.5 77.8333,39.5 78.5,39.5C 77.4324,40.4345 76.099,40.7678 74.5,40.5C 74.8229,46.69 74.4896,52.69 73.5,58.5C 73.5,52.1667 73.5,45.8333 73.5,39.5C 74.5,39.5 75.5,39.5 76.5,39.5 Z"/></g>
<g><path style="opacity:1" fill="#e2e3e3" d="M 76.5,39.5 C 75.5,39.5 74.5,39.5 73.5,39.5C 73.5,45.8333 73.5,52.1667 73.5,58.5C 70.1667,58.8333 66.8333,59.1667 63.5,59.5C 64.1128,53.7291 63.4461,48.3958 61.5,43.5C 60.0695,43.4208 58.7362,43.7542 57.5,44.5C 56.5008,58.4841 56.1674,72.4841 56.5,86.5C 55.6688,72.3392 55.1688,58.0059 55,43.5C 54.6667,44.5 54.3333,45.5 54,46.5C 53.7132,44.1093 53.2132,41.7759 52.5,39.5C 56.5,38.5 60.5,37.5 64.5,36.5C 68.9935,36.5322 72.9935,37.5322 76.5,39.5 Z"/></g>
<g><path style="opacity:1" fill="#242b3d" d="M 154.5,54.5 C 155.822,57.7681 156.489,61.4348 156.5,65.5C 156.333,69.1667 156.167,72.8333 156,76.5C 150.563,79.4216 145.396,79.0883 140.5,75.5C 140.5,75.1667 140.5,74.8333 140.5,74.5C 144.895,76.5632 149.395,76.8966 154,75.5C 154.5,68.5079 154.666,61.5079 154.5,54.5 Z"/></g>
<g><path style="opacity:1" fill="#606673" d="M 107.5,74.5 C 108.434,75.5676 108.768,76.901 108.5,78.5C 106.167,78.5 103.833,78.5 101.5,78.5C 100.596,77.791 100.263,76.791 100.5,75.5C 102.456,77.1484 104.789,77.8151 107.5,77.5C 107.5,76.5 107.5,75.5 107.5,74.5 Z"/></g>
<g><path style="opacity:1" fill="#d6d7d1" d="M 158.5,78.5 C 158.5,79.1667 158.833,79.5 159.5,79.5C 162.206,79.5751 164.873,79.9084 167.5,80.5C 167.5,81.5 167.5,82.5 167.5,83.5C 166.5,83.5 165.5,83.5 164.5,83.5C 164.5,84.5 164.5,85.5 164.5,86.5C 167.187,86.3359 169.854,86.5026 172.5,87C 170.866,87.4935 169.199,87.6602 167.5,87.5C 167.199,93.5112 166.699,99.5112 166,105.5C 164.204,106.767 162.371,106.767 160.5,105.5C 159.921,108.116 158.421,108.116 156,105.5C 155.184,106.823 154.017,107.489 152.5,107.5C 149.546,105.72 146.713,103.72 144,101.5C 141.654,96.7964 138.82,92.463 135.5,88.5C 137.226,88.8146 138.893,88.9813 140.5,89C 140.297,85.6112 140.13,82.1112 140,78.5C 137.233,77.354 137.066,76.354 139.5,75.5C 139.833,75.5 140.167,75.5 140.5,75.5C 145.396,79.0883 150.563,79.4216 156,76.5C 156.167,72.8333 156.333,69.1667 156.5,65.5C 156.489,61.4348 155.822,57.7681 154.5,54.5C 151.214,53.7929 147.881,53.4595 144.5,53.5C 144.5,55.5 144.5,57.5 144.5,59.5C 145.833,59.5 147.167,59.5 148.5,59.5C 148.818,64.0323 148.485,68.3656 147.5,72.5C 141.965,69.1002 139.298,64.1002 139.5,57.5C 139.335,54.1501 139.502,50.8168 140,47.5C 143.392,41.2148 148.225,39.8815 154.5,43.5C 155.793,41.3635 155.793,39.3635 154.5,37.5C 155.095,34.8875 155.929,34.8875 157,37.5C 157.169,51.3395 157.669,65.0061 158.5,78.5 Z"/></g>
<g><path style="opacity:1" fill="#adacab" d="M 226.5,55.5 C 227.647,60.6416 228.48,65.9749 229,71.5C 229.5,84.8292 229.667,98.1625 229.5,111.5C 229.156,122.975 227.822,134.309 225.5,145.5C 222.008,158.98 217.674,172.313 212.5,185.5C 195.249,220.418 169.249,246.751 134.5,264.5C 134.577,263.25 135.244,262.417 136.5,262C 135.5,261.667 134.5,261.333 133.5,261C 136.529,258.824 139.529,256.657 142.5,254.5C 143.721,255.465 145.054,255.298 146.5,254C 158.273,245.559 169.106,236.059 179,225.5C 180.387,223.953 181.553,222.287 182.5,220.5C 189.979,211.667 196.313,202.001 201.5,191.5C 202.75,191.423 203.583,190.756 204,189.5C 205,190.833 206,190.833 207,189.5C 207.712,186.562 207.212,183.896 205.5,181.5C 209.224,174.686 211.891,167.353 213.5,159.5C 214.981,156.393 216.148,153.059 217,149.5C 218.813,142.254 219.979,134.921 220.5,127.5C 222.988,119.608 223.655,111.608 222.5,103.5C 224.857,93.5445 226.857,83.7112 228.5,74C 226.826,72.1438 225.826,69.9771 225.5,67.5C 226.362,63.5474 226.695,59.5474 226.5,55.5 Z"/></g>
<g><path style="opacity:1" fill="#ccccc8" d="M 179.5,82.5 C 181.379,83.3414 183.379,83.6747 185.5,83.5C 186.167,77.5 186.833,71.5 187.5,65.5C 189.73,72.9469 192.73,79.9469 196.5,86.5C 198.143,88.7081 197.81,90.5415 195.5,92C 196.833,92.6667 198.167,93.3333 199.5,94C 197.292,94.1909 195.292,94.6909 193.5,95.5C 186.965,98.0194 181.131,101.686 176,106.5C 174.042,112.373 175.875,116.373 181.5,118.5C 182.263,119.268 183.263,119.768 184.5,120C 187.817,120.498 191.15,120.665 194.5,120.5C 202.812,123.225 203.479,127.058 196.5,132C 194.5,132.667 192.5,132.667 190.5,132C 184.712,126.277 178.379,121.277 171.5,117C 164.827,114.33 158.494,111.163 152.5,107.5C 154.017,107.489 155.184,106.823 156,105.5C 158.421,108.116 159.921,108.116 160.5,105.5C 162.371,106.767 164.204,106.767 166,105.5C 166.699,99.5112 167.199,93.5112 167.5,87.5C 169.199,87.6602 170.866,87.4935 172.5,87C 169.854,86.5026 167.187,86.3359 164.5,86.5C 164.5,85.5 164.5,84.5 164.5,83.5C 165.5,83.5 166.5,83.5 167.5,83.5C 167.5,82.5 167.5,81.5 167.5,80.5C 170.43,81.299 173.43,81.6323 176.5,81.5C 176.5,79.5 176.5,77.5 176.5,75.5C 174.5,75.5 172.5,75.5 170.5,75.5C 169.432,74.5655 168.099,74.2322 166.5,74.5C 166.5,70.5 166.5,66.5 166.5,62.5C 167.833,62.5 169.167,62.5 170.5,62.5C 171.833,62.5 173.167,62.5 174.5,62.5C 174.5,60.5 174.5,58.5 174.5,56.5C 171.482,56.2962 168.482,55.9629 165.5,55.5C 165.174,51.1161 165.508,46.7828 166.5,42.5C 169.144,43.2951 171.811,43.9618 174.5,44.5C 175.172,45.2674 176.005,45.9341 177,46.5C 177.333,44.1667 177.667,41.8333 178,39.5C 178.169,54.0059 178.669,68.3392 179.5,82.5 Z"/></g>
<g><path style="opacity:1" fill="#696d70" d="M 205.5,83.5 C 204.549,84.9187 204.216,86.5853 204.5,88.5C 202.901,88.7678 201.568,88.4345 200.5,87.5C 201.492,87.6716 202.158,87.3382 202.5,86.5C 203.161,85.2825 203.828,83.9492 204.5,82.5C 205.107,82.6236 205.44,82.9569 205.5,83.5 Z"/></g>
<g><path style="opacity:1" fill="#9299a2" d="M 24.5,57.5 C 22.6954,78.1096 22.0287,98.7763 22.5,119.5C 21.3384,103.005 21.1717,86.3384 22,69.5C 22.5277,65.3007 23.3611,61.3007 24.5,57.5 Z"/></g>
<g><path style="opacity:1" fill="#445675" d="M 232.5,59.5 C 234.185,65.9388 235.352,72.6055 236,79.5C 236.5,90.1615 236.667,100.828 236.5,111.5C 234.909,107.796 234.076,103.796 234,99.5C 232.939,104.104 232.273,108.771 232,113.5C 231.722,112.584 231.222,111.918 230.5,111.5C 230.167,98.15 230.501,84.8167 231.5,71.5C 233.836,70.4061 233.836,69.0728 231.5,67.5C 232.393,64.9159 232.726,62.2492 232.5,59.5 Z"/></g>
<g><path style="opacity:1" fill="#21211f" d="M 134.5,97.5 C 135.579,99.543 137.246,100.876 139.5,101.5C 136.789,104.013 136.122,107.013 137.5,110.5C 136.756,113.443 136.256,116.443 136,119.5C 135.667,116.167 135.333,112.833 135,109.5C 133.986,113.241 133.153,116.907 132.5,120.5C 132.002,117.513 131.502,114.513 131,111.5C 129.956,112.623 129.29,113.956 129,115.5C 128.377,122.523 128.543,129.523 129.5,136.5C 131.5,136.5 133.5,136.5 135.5,136.5C 137.288,136.785 138.955,136.452 140.5,135.5C 139.585,134.672 138.919,133.672 138.5,132.5C 139.337,130.195 139.504,127.862 139,125.5C 139.667,126.167 140.333,126.833 141,127.5C 141.667,126.167 142.333,126.167 143,127.5C 143.875,125.487 145.209,125.487 147,127.5C 148.011,126.663 149.178,126.33 150.5,126.5C 151.167,128.167 151.833,129.833 152.5,131.5C 152.66,133.199 152.494,134.866 152,136.5C 151.333,135.833 150.667,135.167 150,134.5C 145.681,136.679 140.514,138.013 134.5,138.5C 131.15,138.665 127.817,138.498 124.5,138C 118.928,134.583 112.928,133.25 106.5,134C 104.604,135.808 104.104,137.975 105,140.5C 106.182,138.643 107.849,137.643 110,137.5C 114.922,138.361 119.422,140.195 123.5,143C 119.889,142.373 116.223,142.04 112.5,142C 111.056,143.126 110.39,144.626 110.5,146.5C 111.021,148.524 111.188,150.524 111,152.5C 109.035,151.115 107.202,151.282 105.5,153C 106.381,153.708 107.047,154.542 107.5,155.5C 104.588,156.578 104.254,157.912 106.5,159.5C 106.5,160.167 106.5,160.833 106.5,161.5C 107.506,162.396 107.506,163.062 106.5,163.5C 104.821,162 103.488,160.167 102.5,158C 101.668,157.312 101.002,157.479 100.5,158.5C 99.3822,163.78 99.2155,169.113 100,174.5C 100.473,176.779 101.473,178.779 103,180.5C 102.524,175.883 102.524,171.217 103,166.5C 105.615,170.783 108.615,174.783 112,178.5C 112.494,180.134 112.66,181.801 112.5,183.5C 116.164,183 119.164,184.167 121.5,187C 124.868,187.543 128.201,187.376 131.5,186.5C 131.5,187.5 131.5,188.5 131.5,189.5C 130.167,191.167 130.167,192.833 131.5,194.5C 135.348,197.105 134.681,198.772 129.5,199.5C 129.047,198.542 128.381,197.708 127.5,197C 122.711,194.904 118.044,195.071 113.5,197.5C 112.281,196.737 111.281,195.737 110.5,194.5C 109.253,196.006 109.253,197.506 110.5,199C 113.063,199.154 115.563,198.654 118,197.5C 120.917,199.189 124.084,200.189 127.5,200.5C 127.964,203.002 126.964,205.168 124.5,207C 121.854,207.497 119.187,207.664 116.5,207.5C 109.325,205.17 106.159,200.17 107,192.5C 103.544,189.198 99.711,186.531 95.5,184.5C 91.9754,185.759 88.9754,187.759 86.5,190.5C 84.9826,190.511 83.8159,191.177 83,192.5C 82.4697,195.585 80.9697,197.918 78.5,199.5C 76.9826,199.511 75.8159,200.177 75,201.5C 74.9464,204.861 73.9464,207.861 72,210.5C 71.5026,213.146 71.3359,215.813 71.5,218.5C 70.209,218.263 69.209,218.596 68.5,219.5C 65.9407,219.198 63.6074,219.532 61.5,220.5C 58.0421,219.72 55.0421,218.053 52.5,215.5C 52.5,213.5 52.5,211.5 52.5,209.5C 53.397,210.598 54.2303,210.598 55,209.5C 55.7848,207.751 56.6182,206.084 57.5,204.5C 59.1216,203.878 60.4549,202.878 61.5,201.5C 63.1288,200.375 64.6288,199.041 66,197.5C 67.5843,193.325 69.9177,189.659 73,186.5C 74.9105,181.024 76.7439,175.524 78.5,170C 75.8481,162.757 74.8481,155.257 75.5,147.5C 75.8756,144.373 75.8756,141.373 75.5,138.5C 67.5233,133.523 60.8566,127.189 55.5,119.5C 55.5,119.167 55.5,118.833 55.5,118.5C 63.4733,121.483 71.4733,124.483 79.5,127.5C 83.5547,121.937 88.2213,116.77 93.5,112C 100.266,108.397 105.933,103.563 110.5,97.5C 113.475,97.6931 115.975,96.6931 118,94.5C 119.813,95.6091 120.646,94.9424 120.5,92.5C 122.262,92.6427 123.929,92.3094 125.5,91.5C 128.613,93.2838 131.113,95.6171 133,98.5C 133.383,97.944 133.883,97.6107 134.5,97.5 Z"/></g>
<g><path style="opacity:1" fill="#e4e4e2" d="M 139.5,101.5 C 137.246,100.876 135.579,99.543 134.5,97.5C 133.567,94.6298 131.9,92.2964 129.5,90.5C 130.365,89.4173 131.365,89.2506 132.5,90C 136.287,93.4732 138.62,97.3065 139.5,101.5 Z"/></g>
<g><path style="opacity:1" fill="#b8b8b6" d="M 218.5,56.5 C 219.566,57.6921 220.399,57.3588 221,55.5C 221.823,62.1344 222.323,62.1344 222.5,55.5C 223.833,55.5 225.167,55.5 226.5,55.5C 226.695,59.5474 226.362,63.5474 225.5,67.5C 225.826,69.9771 226.826,72.1438 228.5,74C 226.857,83.7112 224.857,93.5445 222.5,103.5C 222.155,111.592 221.155,119.592 219.5,127.5C 217.674,136.963 215.341,146.297 212.5,155.5C 209.501,163.495 206.501,171.495 203.5,179.5C 202.883,179.389 202.383,179.056 202,178.5C 201.667,175.5 201.333,172.5 201,169.5C 198.8,168.349 197.3,166.682 196.5,164.5C 196.285,157.854 197.285,151.52 199.5,145.5C 200.806,144.533 201.473,143.199 201.5,141.5C 192.821,141.469 192.487,140.302 200.5,138C 210.931,128.672 209.598,121.672 196.5,117C 192.167,116.667 187.833,116.333 183.5,116C 178.962,114.287 177.462,111.12 179,106.5C 184.132,99.4869 189.632,98.9869 195.5,105C 201.343,106.324 206.676,105.324 211.5,102C 209.5,101.667 207.5,101.333 205.5,101C 207.559,99.8145 207.726,98.6479 206,97.5C 201.957,96.0416 197.791,95.3749 193.5,95.5C 195.292,94.6909 197.292,94.1909 199.5,94C 198.167,93.3333 196.833,92.6667 195.5,92C 197.81,90.5415 198.143,88.7081 196.5,86.5C 197.833,86.8333 199.167,87.1667 200.5,87.5C 201.568,88.4345 202.901,88.7678 204.5,88.5C 206.022,90.3332 208.022,91.3332 210.5,91.5C 219.961,89.6834 223.461,84.0168 221,74.5C 217.702,70.2002 214.035,66.2002 210,62.5C 208.369,60.0446 208.203,57.5446 209.5,55C 212.859,53.0583 215.859,53.5583 218.5,56.5 Z"/></g>
<g><path style="opacity:1" fill="#bb888f" d="M 28.5,98.5 C 29.0802,102.81 29.4135,107.143 29.5,111.5C 29.1667,111.5 28.8333,111.5 28.5,111.5C 27.2641,107.035 27.2641,102.701 28.5,98.5 Z"/></g>
<g><path style="opacity:1" fill="#e0e0df" d="M 132.5,120.5 C 133.5,125.832 134.5,131.165 135.5,136.5C 133.5,136.5 131.5,136.5 129.5,136.5C 128.543,129.523 128.377,122.523 129,115.5C 129.29,113.956 129.956,112.623 131,111.5C 131.502,114.513 132.002,117.513 132.5,120.5 Z"/></g>
<g><path style="opacity:1" fill="#ad5868" d="M 28.5,111.5 C 28.8333,111.5 29.1667,111.5 29.5,111.5C 30.0746,115.523 30.7412,119.523 31.5,123.5C 31.5,124.167 31.5,124.833 31.5,125.5C 30.6618,125.842 30.3284,126.508 30.5,127.5C 29.1937,122.384 28.527,117.051 28.5,111.5 Z"/></g>
<g><path style="opacity:1" fill="#a44558" d="M 222.5,103.5 C 223.655,111.608 222.988,119.608 220.5,127.5C 220.167,127.5 219.833,127.5 219.5,127.5C 221.155,119.592 222.155,111.592 222.5,103.5 Z"/></g>
<g><path style="opacity:1" fill="#3c4d6a" d="M 15.5,83.5 C 15.3334,98.1705 15.5001,112.837 16,127.5C 17.4355,135.511 18.9355,143.511 20.5,151.5C 20.7564,153.792 20.4231,155.959 19.5,158C 20.991,160.097 21.991,162.43 22.5,165C 21.1387,166.584 20.472,168.418 20.5,170.5C 9.98935,145.266 5.98935,118.932 8.5,91.5C 9.43448,90.4324 9.76781,89.099 9.5,87.5C 10.5,87.5 11.5,87.5 12.5,87.5C 12.3505,86.448 12.5172,85.448 13,84.5C 13.3333,86.8333 13.6667,89.1667 14,91.5C 14.1829,88.6353 14.6829,85.9686 15.5,83.5 Z"/></g>
<g><path style="opacity:1" fill="#f1f1f1" d="M 64.5,125.5 C 64.7352,124.903 65.2352,124.57 66,124.5C 77.471,129.212 89.3043,132.712 101.5,135C 102.872,138.541 102.706,142.041 101,145.5C 100.196,146.804 99.0293,147.471 97.5,147.5C 84.8277,142.462 73.8277,135.129 64.5,125.5 Z"/></g>
<g><path style="opacity:1" fill="#374967" d="M 236.5,111.5 C 236.211,122.646 234.877,133.646 232.5,144.5C 231.85,144.196 231.183,143.863 230.5,143.5C 229.139,145.028 227.972,146.695 227,148.5C 226.768,147.263 226.268,146.263 225.5,145.5C 227.822,134.309 229.156,122.975 229.5,111.5C 229.833,111.5 230.167,111.5 230.5,111.5C 231.222,111.918 231.722,112.584 232,113.5C 232.273,108.771 232.939,104.104 234,99.5C 234.076,103.796 234.909,107.796 236.5,111.5 Z"/></g>
<g><path style="opacity:1" fill="#0d203b" d="M 234.5,50.5 C 234.41,53.1522 235.076,55.4855 236.5,57.5C 236.259,59.8984 236.926,61.8984 238.5,63.5C 247.907,103.427 244.241,142.093 227.5,179.5C 226.069,179.881 225.236,180.881 225,182.5C 224.692,181.692 224.192,181.025 223.5,180.5C 222.571,181.689 222.238,183.022 222.5,184.5C 221.5,184.5 220.5,184.5 219.5,184.5C 225.005,171.649 229.339,158.316 232.5,144.5C 234.877,133.646 236.211,122.646 236.5,111.5C 236.667,100.828 236.5,90.1615 236,79.5C 235.352,72.6055 234.185,65.9388 232.5,59.5C 231.286,54.2157 230.286,48.8823 229.5,43.5C 230.117,43.3893 230.617,43.056 231,42.5C 231.333,44.5 231.667,46.5 232,48.5C 232.417,49.756 233.25,50.4226 234.5,50.5 Z"/></g>
<g><path style="opacity:1" fill="#dbdcd8" d="M 55.5,119.5 C 60.8566,127.189 67.5233,133.523 75.5,138.5C 75.8756,141.373 75.8756,144.373 75.5,147.5C 74.6745,151.982 74.1745,156.649 74,161.5C 73.6667,160.167 73.3333,158.833 73,157.5C 70.6492,160.043 69.4825,159.377 69.5,155.5C 66.5,155.5 63.5,155.5 60.5,155.5C 60.5,153.833 60.5,152.167 60.5,150.5C 55.1667,149.833 49.8333,149.167 44.5,148.5C 44.6495,149.552 44.4828,150.552 44,151.5C 43.433,148.832 42.933,146.166 42.5,143.5C 41.1266,143.343 39.7932,143.51 38.5,144C 40.4181,145.77 40.9181,147.937 40,150.5C 39.7508,149.376 39.2508,148.376 38.5,147.5C 37.8933,147.624 37.56,147.957 37.5,148.5C 34.6793,141.147 32.6793,133.481 31.5,125.5C 31.5,124.833 31.5,124.167 31.5,123.5C 32.3171,121.031 32.8171,118.365 33,115.5C 33.2065,118.623 33.8732,121.623 35,124.5C 36.0723,116.696 39.239,116.362 44.5,123.5C 47.627,123.98 50.4604,124.98 53,126.5C 53.1272,123.985 53.9606,121.652 55.5,119.5 Z"/></g>
<g><path style="opacity:1" fill="#f3f3f3" d="M 134.5,138.5 C 138.182,138.335 141.848,138.501 145.5,139C 146.931,139.465 148.097,140.299 149,141.5C 149.809,147.749 149.642,153.916 148.5,160C 145.246,160.25 142.246,161.25 139.5,163C 133.365,171.006 129.531,170.173 128,160.5C 126.708,162.249 125.542,164.082 124.5,166C 122.833,166.667 121.167,166.667 119.5,166C 115.975,161.977 111.975,158.477 107.5,155.5C 107.047,154.542 106.381,153.708 105.5,153C 107.202,151.282 109.035,151.115 111,152.5C 111.188,150.524 111.021,148.524 110.5,146.5C 110.39,144.626 111.056,143.126 112.5,142C 116.223,142.04 119.889,142.373 123.5,143C 119.422,140.195 114.922,138.361 110,137.5C 107.849,137.643 106.182,138.643 105,140.5C 104.104,137.975 104.604,135.808 106.5,134C 112.928,133.25 118.928,134.583 124.5,138C 127.817,138.498 131.15,138.665 134.5,138.5 Z"/></g>
<g><path style="opacity:1" fill="#2a2a29" d="M 130.5,142.5 C 134.514,142.334 138.514,142.501 142.5,143C 143.91,143.368 144.91,144.201 145.5,145.5C 140.158,147.459 134.991,149.793 130,152.5C 129.253,149.076 129.42,145.743 130.5,142.5 Z"/></g>
<g><path style="opacity:1" fill="#d3d3ce" d="M 75.5,147.5 C 74.8481,155.257 75.8481,162.757 78.5,170C 76.7439,175.524 74.9105,181.024 73,186.5C 69.9177,189.659 67.5843,193.325 66,197.5C 64.6288,199.041 63.1288,200.375 61.5,201.5C 57.0038,195.844 53.0038,189.844 49.5,183.5C 49.0198,180.557 48.0198,177.89 46.5,175.5C 44.0688,168.322 41.4021,161.322 38.5,154.5C 37.6586,152.621 37.3253,150.621 37.5,148.5C 37.56,147.957 37.8933,147.624 38.5,147.5C 39.2508,148.376 39.7508,149.376 40,150.5C 40.9181,147.937 40.4181,145.77 38.5,144C 39.7932,143.51 41.1266,143.343 42.5,143.5C 42.933,146.166 43.433,148.832 44,151.5C 44.4828,150.552 44.6495,149.552 44.5,148.5C 49.8333,149.167 55.1667,149.833 60.5,150.5C 60.5,152.167 60.5,153.833 60.5,155.5C 63.5,155.5 66.5,155.5 69.5,155.5C 69.4825,159.377 70.6492,160.043 73,157.5C 73.3333,158.833 73.6667,160.167 74,161.5C 74.1745,156.649 74.6745,151.982 75.5,147.5 Z"/></g>
<g><path style="opacity:1" fill="#e5e5e3" d="M 90.5,150.5 C 92.8568,150.337 95.1902,150.503 97.5,151C 98.7649,152.337 99.2649,153.837 99,155.5C 94.5868,156.632 90.0868,156.799 85.5,156C 85.0426,155.586 84.7093,155.086 84.5,154.5C 86.5654,153.143 88.5654,151.81 90.5,150.5 Z"/></g>
<g><path style="opacity:1" fill="#a12536" d="M 219.5,127.5 C 219.833,127.5 220.167,127.5 220.5,127.5C 219.979,134.921 218.813,142.254 217,149.5C 216.148,153.059 214.981,156.393 213.5,159.5C 213.768,157.901 213.434,156.568 212.5,155.5C 215.341,146.297 217.674,136.963 219.5,127.5 Z"/></g>
<g><path style="opacity:1" fill="#803b3f" d="M 38.5,154.5 C 41.4021,161.322 44.0688,168.322 46.5,175.5C 42.3076,169.281 39.6409,162.281 38.5,154.5 Z"/></g>
<g><path style="opacity:1" fill="#babab9" d="M 106.5,161.5 C 106.5,160.833 106.5,160.167 106.5,159.5C 107.849,158.203 109.182,158.37 110.5,160C 109.255,160.791 107.922,161.291 106.5,161.5 Z"/></g>
<g><path style="opacity:1" fill="#747472" d="M 199.5,145.5 C 197.285,151.52 196.285,157.854 196.5,164.5C 195.84,163.036 195.507,161.369 195.5,159.5C 195.918,155.157 196.418,150.824 197,146.5C 197.671,145.748 198.504,145.414 199.5,145.5 Z"/></g>
<g><path style="opacity:1" fill="#222220" d="M 135.5,88.5 C 138.82,92.463 141.654,96.7964 144,101.5C 146.713,103.72 149.546,105.72 152.5,107.5C 158.494,111.163 164.827,114.33 171.5,117C 178.379,121.277 184.712,126.277 190.5,132C 192.5,132.667 194.5,132.667 196.5,132C 203.479,127.058 202.812,123.225 194.5,120.5C 190.343,119.551 186.01,118.884 181.5,118.5C 175.875,116.373 174.042,112.373 176,106.5C 181.131,101.686 186.965,98.0194 193.5,95.5C 197.791,95.3749 201.957,96.0416 206,97.5C 207.726,98.6479 207.559,99.8145 205.5,101C 207.5,101.333 209.5,101.667 211.5,102C 206.676,105.324 201.343,106.324 195.5,105C 189.632,98.9869 184.132,99.4869 179,106.5C 177.462,111.12 178.962,114.287 183.5,116C 187.833,116.333 192.167,116.667 196.5,117C 209.598,121.672 210.931,128.672 200.5,138C 192.487,140.302 192.821,141.469 201.5,141.5C 201.473,143.199 200.806,144.533 199.5,145.5C 198.504,145.414 197.671,145.748 197,146.5C 196.418,150.824 195.918,155.157 195.5,159.5C 195.507,161.369 195.84,163.036 196.5,164.5C 197.3,166.682 198.8,168.349 201,169.5C 201.333,172.5 201.667,175.5 202,178.5C 202.383,179.056 202.883,179.389 203.5,179.5C 203.5,179.833 203.5,180.167 203.5,180.5C 203.842,181.338 204.508,181.672 205.5,181.5C 207.212,183.896 207.712,186.562 207,189.5C 206,190.833 205,190.833 204,189.5C 203.583,190.756 202.75,191.423 201.5,191.5C 200.833,191.5 200.167,191.5 199.5,191.5C 199.672,190.508 199.338,189.842 198.5,189.5C 198.813,180.958 195.146,174.792 187.5,171C 183.797,167.633 180.464,163.966 177.5,160C 176.5,159.333 175.5,159.333 174.5,160C 177.397,161.715 178.731,164.215 178.5,167.5C 168.658,166.761 167.492,169.094 175,174.5C 175.773,176.352 175.273,177.686 173.5,178.5C 171.737,177.046 170.403,177.38 169.5,179.5C 168.639,181.386 167.639,183.22 166.5,185C 167.094,185.464 167.761,185.631 168.5,185.5C 169.693,185.97 170.36,186.97 170.5,188.5C 170.447,191.706 168.78,193.373 165.5,193.5C 164.833,193.833 164.167,194.167 163.5,194.5C 162.577,190.936 162.244,187.269 162.5,183.5C 165,181.811 165.833,179.478 165,176.5C 161.733,174.899 158.233,174.066 154.5,174C 154.012,171.824 153.012,169.991 151.5,168.5C 150.5,168.833 149.833,169.5 149.5,170.5C 151.552,173.488 152.719,176.821 153,180.5C 156.262,184.024 158.762,188.024 160.5,192.5C 160.932,193.71 161.599,194.71 162.5,195.5C 169.256,200.593 174.59,206.927 178.5,214.5C 178.392,215.442 178.059,216.275 177.5,217C 174.145,217.729 170.812,218.562 167.5,219.5C 165.772,219.41 164.106,219.077 162.5,218.5C 159.55,212.935 156.883,207.268 154.5,201.5C 150.311,198.18 146.644,194.18 143.5,189.5C 141.677,188.253 139.677,187.586 137.5,187.5C 137.5,188.833 137.5,190.167 137.5,191.5C 136.833,191.833 136.167,192.167 135.5,192.5C 134.167,191.5 132.833,190.5 131.5,189.5C 131.5,188.5 131.5,187.5 131.5,186.5C 133.218,184.636 134.385,182.303 135,179.5C 135.667,177.833 135.667,176.167 135,174.5C 133.426,175.984 132.093,177.651 131,179.5C 131.513,176.616 131.346,173.782 130.5,171C 127.594,169.682 124.594,169.348 121.5,170C 120.663,171.011 120.33,172.178 120.5,173.5C 120.784,175.415 120.451,177.081 119.5,178.5C 119.174,175.689 118.341,173.022 117,170.5C 112.316,169.755 108.816,167.421 106.5,163.5C 107.506,163.062 107.506,162.396 106.5,161.5C 107.922,161.291 109.255,160.791 110.5,160C 109.182,158.37 107.849,158.203 106.5,159.5C 104.254,157.912 104.588,156.578 107.5,155.5C 111.975,158.477 115.975,161.977 119.5,166C 121.167,166.667 122.833,166.667 124.5,166C 125.542,164.082 126.708,162.249 128,160.5C 129.531,170.173 133.365,171.006 139.5,163C 142.246,161.25 145.246,160.25 148.5,160C 149.642,153.916 149.809,147.749 149,141.5C 148.097,140.299 146.931,139.465 145.5,139C 141.848,138.501 138.182,138.335 134.5,138.5C 140.514,138.013 145.681,136.679 150,134.5C 150.667,135.167 151.333,135.833 152,136.5C 152.494,134.866 152.66,133.199 152.5,131.5C 153.29,132.609 153.79,133.942 154,135.5C 155.132,130.111 154.298,125.111 151.5,120.5C 159.215,119.346 166.215,121.179 172.5,126C 177.189,131.687 182.189,137.021 187.5,142C 188.944,142.781 190.277,142.614 191.5,141.5C 187.738,135.569 183.405,130.069 178.5,125C 166.337,118.42 154.337,111.586 142.5,104.5C 141.353,106.765 141.186,109.098 142,111.5C 144.339,116.852 147.172,121.852 150.5,126.5C 149.178,126.33 148.011,126.663 147,127.5C 145.209,125.487 143.875,125.487 143,127.5C 142.333,126.167 141.667,126.167 141,127.5C 140.333,126.833 139.667,126.167 139,125.5C 139.504,127.862 139.337,130.195 138.5,132.5C 138.919,133.672 139.585,134.672 140.5,135.5C 138.955,136.452 137.288,136.785 135.5,136.5C 134.5,131.165 133.5,125.832 132.5,120.5C 133.153,116.907 133.986,113.241 135,109.5C 135.333,112.833 135.667,116.167 136,119.5C 136.256,116.443 136.756,113.443 137.5,110.5C 136.122,107.013 136.789,104.013 139.5,101.5C 138.62,97.3065 136.287,93.4732 132.5,90C 131.365,89.2506 130.365,89.4173 129.5,90.5C 131.9,92.2964 133.567,94.6298 134.5,97.5C 133.883,97.6107 133.383,97.944 133,98.5C 131.113,95.6171 128.613,93.2838 125.5,91.5C 123.929,92.3094 122.262,92.6427 120.5,92.5C 120.646,94.9424 119.813,95.6091 118,94.5C 115.975,96.6931 113.475,97.6931 110.5,97.5C 116.688,87.8743 125.021,84.8743 135.5,88.5 Z"/></g>
<g><path style="opacity:1" fill="#d6d6d4" d="M 141.5,164.5 C 144.907,164.125 145.407,165.125 143,167.5C 141.961,166.756 141.461,165.756 141.5,164.5 Z"/></g>
<g><path style="opacity:1" fill="#e8e8e8" d="M 158.5,165.5 C 157.081,166.451 155.415,166.784 153.5,166.5C 147.353,165.246 147.019,162.913 152.5,159.5C 155.472,160.63 157.472,162.63 158.5,165.5 Z"/></g>
<g><path style="opacity:1" fill="#cacac8" d="M 164.5,157.5 C 166.842,157.775 166.842,158.608 164.5,160C 163.241,160.982 161.908,161.315 160.5,161C 161.731,159.595 163.064,158.429 164.5,157.5 Z"/></g>
<g><path style="opacity:1" fill="#666664" d="M 191.5,149.5 C 191.56,148.957 191.893,148.624 192.5,148.5C 193.833,151.167 193.833,153.833 192.5,156.5C 191.893,156.376 191.56,156.043 191.5,155.5C 192.833,153.5 192.833,151.5 191.5,149.5 Z"/></g>
<g><path style="opacity:1" fill="#d6d6d4" d="M 191.5,149.5 C 192.833,151.5 192.833,153.5 191.5,155.5C 191.046,153.259 191.046,151.259 191.5,149.5 Z"/></g>
<g><path style="opacity:1" fill="#f1f1f1" d="M 151.5,144.5 C 163.891,145.476 176.224,145.476 188.5,144.5C 189.167,144.833 189.833,145.167 190.5,145.5C 188.49,147.171 186.157,147.838 183.5,147.5C 183.5,148.5 183.5,149.5 183.5,150.5C 175.92,152.544 168.254,154.377 160.5,156C 157.518,156.498 154.518,156.665 151.5,156.5C 151.5,152.5 151.5,148.5 151.5,144.5 Z"/></g>
<g><path style="opacity:1" fill="#c8c8c6" d="M 173.5,137.5 C 174.043,137.56 174.376,137.893 174.5,138.5C 174.088,140.887 173.088,142.887 171.5,144.5C 170.633,141.857 171.3,139.523 173.5,137.5 Z"/></g>
<g><path style="opacity:1" fill="#6d6d6b" d="M 181.5,118.5 C 186.01,118.884 190.343,119.551 194.5,120.5C 191.15,120.665 187.817,120.498 184.5,120C 183.263,119.768 182.263,119.268 181.5,118.5 Z"/></g>
<g><path style="opacity:1" fill="#ececea" d="M 152.5,131.5 C 151.833,129.833 151.167,128.167 150.5,126.5C 147.172,121.852 144.339,116.852 142,111.5C 141.186,109.098 141.353,106.765 142.5,104.5C 154.337,111.586 166.337,118.42 178.5,125C 183.405,130.069 187.738,135.569 191.5,141.5C 190.277,142.614 188.944,142.781 187.5,142C 182.189,137.021 177.189,131.687 172.5,126C 166.215,121.179 159.215,119.346 151.5,120.5C 154.298,125.111 155.132,130.111 154,135.5C 153.79,133.942 153.29,132.609 152.5,131.5 Z"/></g>
<g><path style="opacity:1" fill="#e9e9e7" d="M 78.5,151.5 C 80.7986,156.687 83.1319,162.02 85.5,167.5C 83.9547,168.452 82.288,168.785 80.5,168.5C 78.7903,163.002 78.1236,157.335 78.5,151.5 Z"/></g>
<g><path style="opacity:1" fill="#9c9c9b" d="M 158.5,165.5 C 159.043,165.56 159.376,165.893 159.5,166.5C 157.364,167.793 155.364,167.793 153.5,166.5C 155.415,166.784 157.081,166.451 158.5,165.5 Z"/></g>
<g><path style="opacity:1" fill="#2a3d5a" d="M 232.5,144.5 C 229.339,158.316 225.005,171.649 219.5,184.5C 217.194,187.23 214.861,187.564 212.5,185.5C 217.674,172.313 222.008,158.98 225.5,145.5C 226.268,146.263 226.768,147.263 227,148.5C 227.972,146.695 229.139,145.028 230.5,143.5C 231.183,143.863 231.85,144.196 232.5,144.5 Z"/></g>
<g><path style="opacity:1" fill="#781723" d="M 213.5,159.5 C 211.891,167.353 209.224,174.686 205.5,181.5C 204.508,181.672 203.842,181.338 203.5,180.5C 204.497,180.53 205.164,180.03 205.5,179C 207.805,172.24 210.472,165.74 213.5,159.5 Z"/></g>
<g><path style="opacity:1" fill="#f0f0ef" d="M 106.5,163.5 C 108.816,167.421 112.316,169.755 117,170.5C 118.341,173.022 119.174,175.689 119.5,178.5C 119.369,179.376 119.702,180.043 120.5,180.5C 121.797,178.027 121.797,175.693 120.5,173.5C 120.33,172.178 120.663,171.011 121.5,170C 124.594,169.348 127.594,169.682 130.5,171C 131.346,173.782 131.513,176.616 131,179.5C 132.093,177.651 133.426,175.984 135,174.5C 135.667,176.167 135.667,177.833 135,179.5C 134.385,182.303 133.218,184.636 131.5,186.5C 128.201,187.376 124.868,187.543 121.5,187C 119.164,184.167 116.164,183 112.5,183.5C 112.66,181.801 112.494,180.134 112,178.5C 108.615,174.783 105.615,170.783 103,166.5C 102.524,171.217 102.524,175.883 103,180.5C 101.473,178.779 100.473,176.779 100,174.5C 99.2155,169.113 99.3822,163.78 100.5,158.5C 101.002,157.479 101.668,157.312 102.5,158C 103.488,160.167 104.821,162 106.5,163.5 Z"/></g>
<g><path style="opacity:1" fill="#bc243d" d="M 212.5,155.5 C 213.434,156.568 213.768,157.901 213.5,159.5C 210.472,165.74 207.805,172.24 205.5,179C 205.164,180.03 204.497,180.53 203.5,180.5C 203.5,180.167 203.5,179.833 203.5,179.5C 206.501,171.495 209.501,163.495 212.5,155.5 Z"/></g>
<g><path style="opacity:1" fill="#aa1e34" d="M 31.5,125.5 C 32.6793,133.481 34.6793,141.147 37.5,148.5C 37.3253,150.621 37.6586,152.621 38.5,154.5C 39.6409,162.281 42.3076,169.281 46.5,175.5C 48.0198,177.89 49.0198,180.557 49.5,183.5C 50.6158,187.687 52.2825,191.687 54.5,195.5C 54.0431,196.298 53.3764,196.631 52.5,196.5C 50.4806,192.461 48.4806,188.461 46.5,184.5C 38.3926,166.307 33.0593,147.307 30.5,127.5C 30.3284,126.508 30.6618,125.842 31.5,125.5 Z"/></g>
<g><path style="opacity:1" fill="#989897" d="M 120.5,173.5 C 121.797,175.693 121.797,178.027 120.5,180.5C 119.702,180.043 119.369,179.376 119.5,178.5C 120.451,177.081 120.784,175.415 120.5,173.5 Z"/></g>
<g><path style="opacity:1" fill="#babab8" d="M 162.5,183.5 C 161.833,186.5 161.167,189.5 160.5,192.5C 158.762,188.024 156.262,184.024 153,180.5C 152.719,176.821 151.552,173.488 149.5,170.5C 149.833,169.5 150.5,168.833 151.5,168.5C 153.012,169.991 154.012,171.824 154.5,174C 158.233,174.066 161.733,174.899 165,176.5C 165.833,179.478 165,181.811 162.5,183.5 Z"/></g>
<g><path style="opacity:1" fill="#d5d5d3" d="M 145.5,167.5 C 145.424,173.369 143.257,178.703 139,183.5C 138.833,183.167 138.667,182.833 138.5,182.5C 140.076,180.021 141.076,177.354 141.5,174.5C 140.325,174.719 139.325,174.386 138.5,173.5C 141.461,172.204 143.794,170.204 145.5,167.5 Z"/></g>
<g><path style="opacity:1" fill="#d0d0ce" d="M 169.5,179.5 C 170.043,179.56 170.376,179.893 170.5,180.5C 169.826,182.195 169.159,183.862 168.5,185.5C 167.761,185.631 167.094,185.464 166.5,185C 167.639,183.22 168.639,181.386 169.5,179.5 Z"/></g>
<g><path style="opacity:1" fill="#434341" d="M 173.5,178.5 C 172.532,183.096 171.699,187.763 171,192.5C 169.21,194.291 167.377,194.625 165.5,193.5C 168.78,193.373 170.447,191.706 170.5,188.5C 170.36,186.97 169.693,185.97 168.5,185.5C 169.159,183.862 169.826,182.195 170.5,180.5C 170.376,179.893 170.043,179.56 169.5,179.5C 170.403,177.38 171.737,177.046 173.5,178.5 Z"/></g>
<g><path style="opacity:1" fill="#e5e6e8" d="M 203.5,184.5 C 205.225,184.843 205.725,185.843 205,187.5C 203.961,186.756 203.461,185.756 203.5,184.5 Z"/></g>
<g><path style="opacity:1" fill="#273a55" d="M 20.5,151.5 C 23.6014,163.417 27.7681,175.084 33,186.5C 38.1092,193.997 42.9426,201.664 47.5,209.5C 46.7611,209.369 46.0944,209.536 45.5,210C 45.3424,212.228 46.0091,214.395 47.5,216.5C 35.4457,203.072 26.4457,187.739 20.5,170.5C 20.472,168.418 21.1387,166.584 22.5,165C 21.991,162.43 20.991,160.097 19.5,158C 20.4231,155.959 20.7564,153.792 20.5,151.5 Z"/></g>
<g><path style="opacity:1" fill="#858682" d="M 95.5,184.5 C 93.2928,187.584 90.2928,189.584 86.5,190.5C 88.9754,187.759 91.9754,185.759 95.5,184.5 Z"/></g>
<g><path style="opacity:1" fill="#6e6e6c" d="M 162.5,183.5 C 162.244,187.269 162.577,190.936 163.5,194.5C 162.833,194.5 162.5,194.833 162.5,195.5C 161.599,194.71 160.932,193.71 160.5,192.5C 161.167,189.5 161.833,186.5 162.5,183.5 Z"/></g>
<g><path style="opacity:1" fill="#8c222e" d="M 49.5,183.5 C 53.0038,189.844 57.0038,195.844 61.5,201.5C 60.4549,202.878 59.1216,203.878 57.5,204.5C 55.8333,201.833 54.1667,199.167 52.5,196.5C 53.3764,196.631 54.0431,196.298 54.5,195.5C 52.2825,191.687 50.6158,187.687 49.5,183.5 Z"/></g>
<g><path style="opacity:1" fill="#b61b37" d="M 198.5,189.5 C 199.338,189.842 199.672,190.508 199.5,191.5C 193.398,200.93 187.731,210.596 182.5,220.5C 180.271,221.055 178.605,222.389 177.5,224.5C 176.702,224.043 176.369,223.376 176.5,222.5C 180.325,217.53 184.158,212.53 188,207.5C 190.861,201.029 194.361,195.029 198.5,189.5 Z"/></g>
<g><path style="opacity:1" fill="#b4b4b2" d="M 198.5,189.5 C 194.361,195.029 190.861,201.029 188,207.5C 184.158,212.53 180.325,217.53 176.5,222.5C 166.781,234.886 155.448,245.552 142.5,254.5C 139.529,256.657 136.529,258.824 133.5,261C 134.5,261.333 135.5,261.667 136.5,262C 135.244,262.417 134.577,263.25 134.5,264.5C 134.167,264.5 133.833,264.5 133.5,264.5C 131.413,263.449 129.246,263.449 127,264.5C 120.64,261.986 114.473,258.986 108.5,255.5C 103.982,250.821 98.9824,246.654 93.5,243C 87.4954,237.169 81.8287,231.002 76.5,224.5C 79.6678,223.015 82.3344,223.515 84.5,226C 89.8229,226.499 95.1563,226.666 100.5,226.5C 100.5,225.5 100.5,224.5 100.5,223.5C 103.85,223.665 107.183,223.498 110.5,223C 116.054,220.856 121.721,218.856 127.5,217C 133.098,213.573 139.098,210.906 145.5,209C 148.152,207.935 149.985,206.102 151,203.5C 151.333,204.5 151.667,205.5 152,206.5C 152.785,204.751 153.618,203.084 154.5,201.5C 156.883,207.268 159.55,212.935 162.5,218.5C 164.106,219.077 165.772,219.41 167.5,219.5C 170.812,218.562 174.145,217.729 177.5,217C 178.059,216.275 178.392,215.442 178.5,214.5C 174.59,206.927 169.256,200.593 162.5,195.5C 162.5,194.833 162.833,194.5 163.5,194.5C 164.167,194.167 164.833,193.833 165.5,193.5C 167.377,194.625 169.21,194.291 171,192.5C 171.699,187.763 172.532,183.096 173.5,178.5C 175.273,177.686 175.773,176.352 175,174.5C 167.492,169.094 168.658,166.761 178.5,167.5C 178.731,164.215 177.397,161.715 174.5,160C 175.5,159.333 176.5,159.333 177.5,160C 180.464,163.966 183.797,167.633 187.5,171C 195.146,174.792 198.813,180.958 198.5,189.5 Z"/></g>
<g><path style="opacity:1" fill="#c8c8c6" d="M 161.5,198.5 C 164.412,200.066 167.079,202.066 169.5,204.5C 170.893,207.602 170.06,208.602 167,207.5C 165.144,204.444 163.311,201.444 161.5,198.5 Z"/></g>
<g><path style="opacity:1" fill="#d0d0cf" d="M 71.5,200.5 C 72.559,202.726 72.3923,205.059 71,207.5C 69.1159,209.576 66.9492,209.91 64.5,208.5C 67.1577,206.032 69.4911,203.365 71.5,200.5 Z"/></g>
<g><path style="opacity:1" fill="#bcbcba" d="M 95.5,184.5 C 99.711,186.531 103.544,189.198 107,192.5C 106.159,200.17 109.325,205.17 116.5,207.5C 119.64,208.641 122.973,208.808 126.5,208C 126.998,206.842 127.831,206.009 129,205.5C 130.465,206.33 131.965,206.496 133.5,206C 131.82,205.653 130.82,204.653 130.5,203C 134.401,200.146 136.734,196.313 137.5,191.5C 137.5,190.167 137.5,188.833 137.5,187.5C 139.677,187.586 141.677,188.253 143.5,189.5C 146.644,194.18 150.311,198.18 154.5,201.5C 153.618,203.084 152.785,204.751 152,206.5C 151.667,205.5 151.333,204.5 151,203.5C 149.985,206.102 148.152,207.935 145.5,209C 139.098,210.906 133.098,213.573 127.5,217C 121.721,218.856 116.054,220.856 110.5,223C 107.183,223.498 103.85,223.665 100.5,223.5C 100.5,224.5 100.5,225.5 100.5,226.5C 95.1563,226.666 89.8229,226.499 84.5,226C 82.3344,223.515 79.6678,223.015 76.5,224.5C 75.1363,222.809 73.803,221.142 72.5,219.5C 74.7127,214.25 75.8794,208.584 76,202.5C 77.045,201.627 77.8783,200.627 78.5,199.5C 80.9697,197.918 82.4697,195.585 83,192.5C 83.8159,191.177 84.9826,190.511 86.5,190.5C 90.2928,189.584 93.2928,187.584 95.5,184.5 Z"/></g>
<g><path style="opacity:1" fill="#929290" d="M 137.5,191.5 C 136.734,196.313 134.401,200.146 130.5,203C 130.82,204.653 131.82,205.653 133.5,206C 131.965,206.496 130.465,206.33 129,205.5C 127.831,206.009 126.998,206.842 126.5,208C 122.973,208.808 119.64,208.641 116.5,207.5C 119.187,207.664 121.854,207.497 124.5,207C 126.964,205.168 127.964,203.002 127.5,200.5C 128.492,200.672 129.158,200.338 129.5,199.5C 134.681,198.772 135.348,197.105 131.5,194.5C 133.483,194.843 134.817,194.176 135.5,192.5C 136.167,192.167 136.833,191.833 137.5,191.5 Z"/></g>
<g><path style="opacity:1" fill="#e7e7e5" d="M 129.5,199.5 C 129.158,200.338 128.492,200.672 127.5,200.5C 124.084,200.189 120.917,199.189 118,197.5C 115.563,198.654 113.063,199.154 110.5,199C 109.253,197.506 109.253,196.006 110.5,194.5C 111.281,195.737 112.281,196.737 113.5,197.5C 118.044,195.071 122.711,194.904 127.5,197C 128.381,197.708 129.047,198.542 129.5,199.5 Z"/></g>
<g><path style="opacity:1" fill="#e1e1df" d="M 131.5,189.5 C 132.833,190.5 134.167,191.5 135.5,192.5C 134.817,194.176 133.483,194.843 131.5,194.5C 130.167,192.833 130.167,191.167 131.5,189.5 Z"/></g>
<g><path style="opacity:1" fill="#e8e8e6" d="M 114.5,187.5 C 117.099,189.584 116.599,191.251 113,192.5C 110.98,191.968 110.147,190.635 110.5,188.5C 112.099,188.768 113.432,188.434 114.5,187.5 Z"/></g>
<g><path style="opacity:1" fill="#989694" d="M 78.5,199.5 C 77.8783,200.627 77.045,201.627 76,202.5C 75.8794,208.584 74.7127,214.25 72.5,219.5C 71.8333,219.5 71.5,219.167 71.5,218.5C 71.3359,215.813 71.5026,213.146 72,210.5C 73.9464,207.861 74.9464,204.861 75,201.5C 75.8159,200.177 76.9826,199.511 78.5,199.5 Z"/></g>
<g><path style="opacity:1" fill="#731a22" d="M 199.5,191.5 C 200.167,191.5 200.833,191.5 201.5,191.5C 196.313,202.001 189.979,211.667 182.5,220.5C 187.731,210.596 193.398,200.93 199.5,191.5 Z"/></g>
<g><path style="opacity:1" fill="#162741" d="M 227.5,179.5 C 209.515,217.319 181.848,245.819 144.5,265C 138.326,268.117 131.993,270.95 125.5,273.5C 119.686,271.093 114.02,268.426 108.5,265.5C 108.027,264.094 107.027,263.427 105.5,263.5C 82.7815,252.124 63.4482,236.457 47.5,216.5C 46.0091,214.395 45.3424,212.228 45.5,210C 46.0944,209.536 46.7611,209.369 47.5,209.5C 49.1667,211.5 50.8333,213.5 52.5,215.5C 55.0421,218.053 58.0421,219.72 61.5,220.5C 77.9048,241.061 98.2381,256.561 122.5,267C 126.639,267.87 130.306,267.037 133.5,264.5C 133.833,264.5 134.167,264.5 134.5,264.5C 169.249,246.751 195.249,220.418 212.5,185.5C 214.861,187.564 217.194,187.23 219.5,184.5C 220.5,184.5 221.5,184.5 222.5,184.5C 222.238,183.022 222.571,181.689 223.5,180.5C 224.192,181.025 224.692,181.692 225,182.5C 225.236,180.881 226.069,179.881 227.5,179.5 Z"/></g>
<g><path style="opacity:1" fill="#a4a2a1" d="M 68.5,219.5 C 79.3955,234.269 92.7289,246.269 108.5,255.5C 114.473,258.986 120.64,261.986 127,264.5C 129.246,263.449 131.413,263.449 133.5,264.5C 130.306,267.037 126.639,267.87 122.5,267C 98.2381,256.561 77.9048,241.061 61.5,220.5C 63.6074,219.532 65.9407,219.198 68.5,219.5 Z"/></g>
<g><path style="opacity:1" fill="#9b2235" d="M 182.5,220.5 C 181.553,222.287 180.387,223.953 179,225.5C 169.106,236.059 158.273,245.559 146.5,254C 145.054,255.298 143.721,255.465 142.5,254.5C 155.448,245.552 166.781,234.886 176.5,222.5C 176.369,223.376 176.702,224.043 177.5,224.5C 178.605,222.389 180.271,221.055 182.5,220.5 Z"/></g>
<g><path style="opacity:1" fill="#82232c" d="M 71.5,218.5 C 71.5,219.167 71.8333,219.5 72.5,219.5C 73.803,221.142 75.1363,222.809 76.5,224.5C 81.8287,231.002 87.4954,237.169 93.5,243C 98.9824,246.654 103.982,250.821 108.5,255.5C 92.7289,246.269 79.3955,234.269 68.5,219.5C 69.209,218.596 70.209,218.263 71.5,218.5 Z"/></g>
<g><path style="opacity:1" fill="#c7c7c5" d="M 170.5,209.5 C 178.636,212.437 178.469,214.77 170,216.5C 167.015,213.481 167.182,211.148 170.5,209.5 Z"/></g>
<g><path style="opacity:1" fill="#dad9d9" d="M 56.5,209.5 C 60.6613,211.063 64.9946,211.729 69.5,211.5C 69.0749,215.585 66.7415,217.585 62.5,217.5C 59.7201,216.664 57.2201,215.997 55,215.5C 54.5906,213.305 55.0906,211.305 56.5,209.5 Z"/></g>
<g><path style="opacity:0.275" fill="#858e9a" d="M 105.5,263.5 C 107.027,263.427 108.027,264.094 108.5,265.5C 106.973,265.573 105.973,264.906 105.5,263.5 Z"/></g>
</svg>
