<?xml version="1.0" standalone="no"?>
<!DOCTYPE svg PUBLIC "-//W3C//DTD SVG 20010904//EN"
 "http://www.w3.org/TR/2001/REC-SVG-20010904/DTD/svg10.dtd">
<svg version="1.0" xmlns="http://www.w3.org/2000/svg"
 width="200.000000pt" height="96.000000pt" viewBox="0 0 200.000000 96.000000"
 preserveAspectRatio="xMidYMid meet">

<g transform="translate(0.000000,96.000000) scale(0.100000,-0.100000)"
fill="#000000" stroke="none">
<path d="M0 480 l0 -480 1000 0 1000 0 0 480 0 480 -1000 0 -1000 0 0 -480z
m1480 438 c0 -4 -4 -8 -9 -8 -6 0 -12 4 -15 8 -3 5 1 9 9 9 8 0 15 -4 15 -9z
m85 -48 c3 -5 -18 -13 -47 -19 -56 -12 -103 -38 -134 -72 -16 -19 -12 -18 23
5 23 15 59 32 80 37 87 22 86 22 45 -18 -21 -21 -26 -28 -12 -15 44 37 47 25
5 -20 -22 -23 -33 -37 -24 -30 9 6 20 8 24 4 5 -4 5 -2 2 4 -7 13 24 42 40 37
6 -2 19 6 29 19 11 13 32 24 49 26 l30 2 -35 -32 c-19 -18 -44 -43 -54 -56
-19 -22 -19 -22 -1 -16 14 6 16 4 10 -6 -6 -9 -4 -11 5 -5 8 5 11 3 8 -6 -3
-8 -10 -13 -15 -12 -5 1 -9 -6 -10 -16 -1 -11 21 5 61 44 57 56 106 86 106 65
0 -5 -15 -20 -32 -34 -40 -31 -28 -34 15 -4 l32 21 -30 -33 c-16 -19 -37 -40
-45 -47 -11 -9 -12 -15 -3 -20 8 -6 6 -14 -7 -31 -20 -24 -35 -30 -25 -9 8 14
-32 -30 -43 -48 -7 -12 -132 -27 -132 -15 0 3 10 23 21 45 14 26 16 35 6 27
-8 -7 -20 -26 -27 -42 -12 -28 -16 -30 -69 -31 -31 0 -71 -1 -89 -2 -19 -1
-32 3 -32 10 0 27 34 110 58 142 14 19 19 32 11 29 -18 -6 -67 -94 -75 -135
-5 -28 -10 -33 -35 -33 l-29 0 30 31 c16 18 30 37 30 43 0 6 3 22 7 34 6 24 6
24 -25 8 -44 -23 -47 -20 -16 16 l27 33 -34 7 c-19 3 -52 11 -73 17 -22 5 -54
8 -70 5 -31 -4 -31 -4 4 10 47 19 121 19 180 0 46 -15 51 -15 79 2 17 10 31
24 31 32 0 7 4 11 9 8 5 -3 15 1 22 10 10 12 10 15 -1 12 -8 -2 -16 6 -18 16
-4 19 -3 19 13 2 11 -11 26 -15 39 -12 12 3 27 6 34 6 6 0 12 5 12 11 0 5 -5
7 -12 3 -6 -4 -8 -3 -5 3 7 11 75 5 82 -7z m80 -100 c-10 -11 -15 -20 -10 -20
4 0 2 -7 -5 -15 -9 -11 -16 -13 -23 -6 -7 7 -3 19 13 36 28 29 52 34 25 5z
m200 -40 c3 -5 1 -10 -4 -10 -6 0 -11 5 -11 10 0 6 2 10 4 10 3 0 8 -4 11 -10z
m-50 -10 c-3 -5 -10 -10 -16 -10 -5 0 -9 5 -9 10 0 6 7 10 16 10 8 0 12 -4 9
-10z m55 -20 c0 -5 -4 -10 -10 -10 -5 0 -10 5 -10 10 0 6 5 10 10 10 6 0 10
-4 10 -10z m-1247 -102 c-8 -35 -17 -66 -21 -69 -7 -6 -203 -29 -249 -29 -20
0 -21 2 -8 28 7 15 15 42 19 60 5 28 3 32 -17 32 -34 0 -45 -12 -56 -60 -14
-60 -14 -58 12 -63 16 -3 14 -5 -10 -6 l-31 -1 14 62 c17 70 25 79 71 76 18
-1 35 1 39 5 4 4 29 7 56 7 42 0 49 -3 44 -17 -14 -48 -17 -78 -7 -63 5 8 13
31 16 52 7 40 5 39 116 46 l26 2 -14 -62z m1166 35 c14 -29 14 -33 1 -33 -5 0
-10 7 -10 15 0 22 -17 18 -23 -5 -3 -13 0 -20 10 -20 8 0 21 -7 29 -15 16 -16
61 -5 57 14 -2 6 4 11 12 11 8 0 15 5 15 11 0 5 4 8 9 5 13 -8 19 -65 7 -63
-6 1 -10 -6 -10 -15 1 -10 -3 -15 -8 -12 -6 4 -14 0 -19 -7 -6 -10 -9 -11 -10
-1 -1 6 -2 17 -3 22 0 6 -4 10 -8 10 -5 0 -12 0 -18 0 -5 0 -10 -7 -10 -15 0
-9 -9 -15 -22 -15 -21 1 -22 2 -5 14 21 17 22 30 1 22 -12 -4 -15 -2 -10 9 4
12 2 13 -13 6 -10 -6 -21 -8 -24 -5 -3 3 -3 -4 0 -15 3 -12 8 -19 11 -16 8 8
40 -48 35 -62 -4 -10 -10 -10 -26 -1 -20 10 -21 10 -8 -5 12 -15 10 -19 -10
-36 -22 -18 -22 -20 -6 -26 9 -4 17 -16 17 -26 0 -11 7 -22 15 -25 8 -4 12
-10 9 -16 -3 -5 -17 -2 -31 7 -18 12 -23 13 -18 4 16 -28 38 -48 46 -43 5 3 9
-1 10 -8 0 -7 4 -4 9 7 5 11 9 16 9 10 1 -5 17 -10 37 -10 28 0 39 5 45 22 9
26 29 39 29 20 0 -20 -102 -112 -139 -125 -24 -8 -29 -8 -25 3 5 11 -1 11 -33
0 -49 -18 -64 -18 -57 -1 3 8 1 17 -5 21 -7 3 -11 -2 -11 -13 0 -22 -18 -32
-57 -32 -36 0 -24 -9 15 -12 18 -1 32 -5 32 -8 -1 -9 -144 -70 -200 -84 -51
-13 -53 -13 -32 3 13 9 35 18 50 19 35 3 77 34 77 58 0 13 -11 22 -32 29 -18
5 -33 13 -33 18 0 5 8 6 18 2 49 -20 71 -23 65 -9 -3 8 -10 14 -16 14 -6 0 -8
3 -4 6 3 4 0 19 -8 34 -8 15 -11 31 -7 36 4 5 3 5 -2 1 -15 -12 -16 -38 -4
-61 10 -18 9 -19 -4 -9 -11 10 -19 9 -36 -3 -17 -11 -22 -12 -20 -2 2 7 -7 14
-19 16 -13 2 -23 7 -23 12 0 18 -33 40 -61 40 -16 0 -58 -16 -95 -35 -36 -19
-74 -35 -85 -35 -10 0 -19 -4 -19 -9 0 -5 -10 -7 -21 -4 -20 6 -18 8 15 25 20
10 36 25 36 33 0 17 17 22 105 30 39 3 85 8 103 11 24 4 32 1 32 -10 0 -8 5
-18 12 -22 8 -5 9 -2 5 9 -3 9 -2 19 3 22 6 4 10 0 10 -7 0 -13 39 -69 40 -57
0 4 -7 23 -15 43 l-16 37 33 -1 c49 -2 150 11 171 22 21 11 67 106 60 125 -3
7 -18 -13 -33 -45 -15 -33 -35 -62 -44 -65 -9 -4 -92 -13 -184 -22 -337 -31
-685 -85 -1038 -161 -89 -19 -168 -34 -177 -34 -9 0 -21 9 -27 20 -6 11 -9 20
-7 20 2 0 55 11 118 25 314 70 790 145 1064 169 234 21 227 18 254 79 29 63
30 70 13 90 -19 21 -5 53 22 51 9 -1 16 2 16 7 0 5 5 9 11 9 12 0 40 26 34 31
-2 2 7 5 20 5 15 1 26 -6 34 -23z m41 -4 c0 -10 -4 -19 -10 -19 -5 0 -9 11 -8
24 3 28 18 24 18 -5z m-1501 -72 c-12 -43 -22 -50 -13 -9 9 42 14 55 19 50 2
-2 0 -21 -6 -41z m406 33 c3 -5 -1 -10 -10 -10 -9 0 -13 5 -10 10 3 6 8 10 10
10 2 0 7 -4 10 -10z m701 -105 c-9 -21 -16 -39 -16 -41 0 -9 39 -3 46 7 3 6
22 9 40 7 42 -5 43 0 3 14 -65 22 -8 71 74 64 27 -2 51 -7 54 -10 12 -11 -10
-26 -40 -27 -29 0 -30 -1 -9 -9 24 -10 29 -41 9 -58 -7 -6 -44 -13 -82 -16
-39 -2 -94 -8 -124 -12 -44 -6 -53 -4 -49 7 3 8 13 37 23 66 16 46 22 52 49
55 39 4 41 -1 22 -47z m-229 13 l-6 -33 16 33 c14 26 22 32 50 32 39 0 39 0
-23 -97 -32 -50 -36 -53 -75 -53 l-41 0 6 68 c3 37 3 61 0 55 -3 -7 -15 -14
-27 -14 -18 -1 -19 -2 -4 -6 25 -6 17 -37 -11 -41 -24 -4 -31 -32 -7 -32 8 0
15 -3 15 -7 -1 -22 -22 -34 -68 -40 l-52 -6 27 79 c14 44 30 82 35 85 6 3 46
7 90 8 l81 2 -6 -33z m163 27 c0 -4 -41 -118 -44 -122 -5 -7 -66 -12 -66 -6 0
9 39 113 46 125 5 8 64 11 64 3z m-360 -27 c0 -38 -34 -129 -51 -138 -28 -16
-129 -28 -129 -17 0 13 40 159 47 170 2 4 33 7 69 7 59 0 64 -2 64 -22z m-157
-8 c-3 -11 -14 -20 -24 -20 -10 0 -21 -4 -24 -10 -3 -5 3 -10 14 -10 33 0 24
-28 -16 -49 -28 -15 -30 -31 -3 -31 11 0 20 -4 20 -9 0 -17 -31 -41 -53 -41
-12 0 -32 -3 -45 -6 -21 -6 -22 -4 -17 22 6 28 6 28 -9 -3 -12 -26 -21 -33
-45 -33 -29 0 -29 1 -19 36 5 20 7 38 4 41 -3 3 -10 -15 -16 -40 -12 -44 -12
-45 -68 -56 -76 -15 -82 -14 -83 12 -1 21 -2 20 -12 -5 -7 -17 -20 -28 -40
-32 -17 -3 -32 -5 -34 -3 -4 5 65 210 75 218 4 3 29 9 55 13 l49 6 -7 -53
c-16 -133 -14 -141 11 -46 28 107 31 109 125 109 34 0 39 -3 39 -23 0 -12 -7
-32 -15 -44 -10 -15 -12 -29 -7 -44 8 -19 12 -11 27 49 l17 72 53 0 c48 0 53
-2 48 -20z m1067 -7 c0 5 4 5 10 2 6 -4 5 -11 -3 -19 -16 -18 -27 -11 -27 17
0 18 2 19 10 7 5 -8 10 -11 10 -7z m-1507 -26 c8 -21 -32 -179 -50 -199 -16
-18 -118 -46 -129 -35 -3 3 5 56 18 119 l23 113 45 6 c76 10 88 10 93 -4z
m1387 -31 c0 -7 9 -16 20 -19 11 -3 18 -1 14 4 -3 5 0 9 5 9 6 0 11 -4 11 -10
0 -5 7 -7 15 -4 18 7 19 0 4 -27 -6 -11 -17 -18 -24 -15 -15 5 -39 -17 -28
-27 3 -4 1 -7 -5 -7 -7 0 -12 9 -12 21 0 11 -4 17 -10 14 -14 -8 -13 8 1 22
17 17 3 31 -26 25 -28 -5 -35 14 -7 21 32 9 42 7 42 -7z"/>
<path d="M1641 678 c-7 -13 -10 -20 -6 -16 5 4 14 3 21 -3 8 -7 14 -7 19 1 3
5 -1 10 -9 10 -10 0 -13 6 -10 15 9 22 1 18 -15 -7z"/>
<path d="M1529 673 c-13 -16 -12 -17 4 -4 16 13 21 21 13 21 -2 0 -10 -8 -17
-17z"/>
<path d="M575 638 c-7 -23 -25 -93 -25 -100 0 -4 6 -5 14 -2 11 4 36 80 36
109 0 11 -21 4 -25 -7z"/>
<path d="M483 603 c-10 -52 -10 -63 2 -65 6 -2 11 7 13 20 2 12 7 22 11 22 5
0 6 -12 3 -26 -3 -19 -1 -25 8 -22 19 6 42 108 25 108 -7 0 -17 -10 -24 -22
l-11 -23 6 23 c4 15 1 22 -10 22 -9 0 -18 -14 -23 -37z"/>
<path d="M379 620 c-9 -5 -20 -26 -23 -46 -4 -19 -10 -42 -13 -50 -4 -10 2
-14 21 -14 14 0 26 5 26 10 0 6 -4 10 -9 10 -5 0 -7 9 -4 20 3 11 9 20 13 20
5 0 6 9 3 20 -3 11 0 20 6 20 6 0 11 5 11 10 0 12 -10 12 -31 0z"/>
<path d="M421 593 c-16 -56 -14 -73 9 -73 23 0 24 4 10 30 -7 13 -7 21 0 25
13 8 13 55 0 55 -5 0 -14 -17 -19 -37z"/>
<path d="M1660 360 c0 -5 -8 -11 -18 -15 -27 -8 -46 -51 -26 -59 24 -9 26 -8
19 13 -3 11 -1 22 5 26 7 4 10 0 8 -10 -6 -34 19 -25 29 9 9 28 8 36 -3 40 -8
3 -14 1 -14 -4z"/>
<path d="M900 440 c-15 -55 -7 -63 9 -9 7 22 10 43 7 46 -2 3 -10 -14 -16 -37z"/>
<path d="M625 440 c-3 -5 -1 -10 4 -10 6 0 11 5 11 10 0 6 -2 10 -4 10 -3 0
-8 -4 -11 -10z"/>
<path d="M300 355 c-6 -31 -9 -59 -7 -62 3 -2 11 21 17 52 6 31 9 59 7 62 -3
2 -11 -21 -17 -52z"/>
</g>
</svg>
