<?xml version="1.0" standalone="no"?>
<!DOCTYPE svg PUBLIC "-//W3C//DTD SVG 20010904//EN"
 "http://www.w3.org/TR/2001/REC-SVG-20010904/DTD/svg10.dtd">
<svg version="1.0" xmlns="http://www.w3.org/2000/svg"
 width="92.000000pt" height="92.000000pt" viewBox="0 0 92.000000 92.000000"
 preserveAspectRatio="xMidYMid meet">

<g transform="translate(0.000000,92.000000) scale(0.100000,-0.100000)"
fill="#000000" stroke="none">
<path d="M290 836 l-165 -81 -17 -80 c-10 -44 -25 -111 -33 -150 -31 -136 -34
-120 50 -222 51 -62 80 -90 90 -87 23 9 18 -10 -10 -34 -14 -12 -25 -17 -25
-12 0 13 -27 13 -35 0 -3 -5 0 -7 9 -4 20 8 52 -46 67 -113 12 -53 21 -64 35
-41 4 6 3 8 -4 4 -7 -4 -9 6 -7 31 2 20 -4 54 -12 76 -14 35 -14 40 0 55 15
14 18 12 36 -29 26 -56 26 -64 0 -83 -14 -9 -19 -21 -15 -31 5 -14 9 -15 21
-5 9 7 18 10 22 6 4 -3 -2 -13 -13 -21 -19 -14 -18 -14 3 -15 12 0 25 5 29 11
4 8 9 7 15 -2 7 -11 9 -10 9 3 0 32 41 48 110 44 55 -2 65 -6 82 -29 20 -28
58 -37 58 -14 0 9 3 8 9 -2 6 -9 14 1 26 38 20 61 30 69 56 45 19 -17 27 -54
11 -54 -4 0 -8 -9 -9 -20 -3 -30 5 -24 22 17 15 35 14 37 -7 61 -44 46 -56 47
-68 1 -6 -23 -13 -39 -16 -36 -3 2 2 24 10 48 9 24 15 64 15 89 -1 38 -2 41
-10 20 l-8 -25 2 25 c2 19 7 24 22 22 11 -2 28 -4 37 -5 9 -1 15 -3 12 -6 -2
-3 16 -26 41 -51 40 -40 44 -48 32 -64 -13 -17 -14 -17 -28 1 -13 16 -13 17 4
4 30 -24 18 -2 -15 28 -48 43 -57 16 -11 -31 20 -20 40 -35 44 -33 4 3 3 -14
-2 -36 -6 -23 -7 -44 -5 -47 8 -8 25 42 31 95 6 44 3 51 -24 80 -17 18 -31 35
-31 38 0 3 19 31 42 62 24 30 56 73 72 93 l28 38 -20 83 c-12 46 -30 126 -42
177 l-22 93 -59 29 c-32 17 -60 30 -63 30 -6 0 -36 -103 -32 -108 2 -1 13 12
24 30 14 21 17 35 10 39 -6 4 -7 12 -4 18 5 7 19 2 42 -15 32 -25 39 -49 10
-38 -8 3 -25 -9 -38 -26 -23 -29 -27 -31 -47 -19 -11 8 -21 19 -21 26 0 7 -8
12 -17 11 -39 -3 -54 3 -63 25 -6 16 -9 17 -9 5 -1 -12 -8 -16 -28 -14 -15 2
-29 8 -31 14 -2 7 -12 5 -30 -4 -15 -8 -34 -14 -43 -14 -9 0 -29 -7 -45 -14
-15 -8 -31 -13 -36 -10 -14 9 -48 81 -41 88 13 13 24 5 34 -24 6 -16 15 -30
20 -30 12 0 11 6 -6 39 -14 29 -11 41 11 41 6 0 15 -16 18 -36 5 -25 12 -34
23 -32 23 4 27 23 8 41 -20 21 -19 34 5 40 16 4 21 -1 26 -21 10 -46 12 -48
13 -9 1 34 3 37 31 37 27 0 30 -3 30 -32 0 -18 5 -40 10 -48 7 -11 10 -2 10
33 0 51 7 55 55 37 21 -8 25 -14 19 -33 -4 -12 -11 -25 -17 -28 -6 -4 -6 -13
1 -25 9 -15 12 -12 31 24 31 61 38 52 -84 107 l-50 23 -165 -82z m-30 -55 c0
-5 -7 -11 -15 -15 -8 -3 -15 -12 -15 -19 0 -8 7 -20 15 -27 18 -15 20 1 3 18
-9 9 -7 13 6 18 11 4 22 0 30 -12 16 -22 11 -41 -16 -55 -15 -8 -24 -7 -40 8
-35 32 -42 53 -22 74 17 19 54 26 54 10z m258 -87 c49 -13 67 -25 125 -87 38
-39 75 -87 84 -107 22 -52 28 -156 10 -174 -8 -8 -17 -12 -21 -9 -3 4 -6 -1
-6 -10 0 -9 -7 -17 -15 -17 -9 0 -15 -10 -15 -26 l0 -25 -26 20 c-15 11 -30
19 -34 16 -4 -2 -15 13 -25 35 -10 22 -23 44 -29 48 -6 5 -46 6 -89 3 -44 -4
-82 -2 -87 3 -7 7 -10 5 -10 -3 0 -7 -5 -9 -12 -5 -7 4 -4 -2 7 -13 11 -11 27
-19 35 -18 13 2 70 -21 70 -28 0 -1 -27 -2 -60 0 l-60 2 16 -24 c9 -14 20 -22
25 -19 5 3 6 -2 3 -10 -3 -8 -1 -23 4 -33 5 -10 13 -41 16 -68 l7 -51 -48 -14
c-26 -8 -53 -16 -59 -17 -7 -3 -10 6 -7 24 4 22 2 25 -6 13 -6 -9 -11 -10 -11
-3 0 6 -3 20 -6 30 -5 15 -4 15 5 3 12 -17 14 -10 5 14 -3 9 -10 13 -15 10 -5
-3 -6 3 -2 12 5 13 3 15 -7 9 -9 -5 -11 -4 -6 3 10 16 -12 54 -26 46 -7 -5 -8
-2 -3 6 4 7 3 15 -3 19 -8 5 -4 15 11 31 12 14 21 35 19 47 -2 13 6 32 18 45
25 27 23 60 -4 64 -20 3 -36 21 -36 42 0 9 4 10 19 0 15 -9 24 -8 44 5 29 19
45 81 26 103 -15 18 -29 18 -29 -1 0 -8 -5 -15 -11 -15 -7 0 -9 10 -7 25 6 27
-1 32 -19 14 -9 -9 -12 -4 -11 20 1 17 5 34 10 37 4 3 8 1 8 -4 0 -5 14 -6 31
-4 l32 5 -24 14 c-22 12 -19 13 36 8 45 -5 65 -2 80 9 25 19 16 19 83 0z
m-228 -195 c0 -4 -7 -6 -15 -3 -8 4 -15 10 -15 15 0 4 7 6 15 3 8 -4 15 -10
15 -15z m291 -191 c30 -59 36 -175 12 -243 -22 -62 -39 -60 -35 5 3 56 -28
147 -58 175 -27 24 -35 14 -17 -22 8 -15 23 -55 33 -88 10 -33 23 -63 29 -67
18 -13 -10 -9 -47 7 -32 13 -36 19 -41 62 -7 63 -43 147 -58 137 -8 -4 -9 -3
-5 5 7 11 96 12 96 1 0 -3 16 -18 36 -34 25 -20 33 -23 25 -10 -22 39 -47 64
-91 88 l-45 26 72 0 73 0 21 -42z m-56 -125 c22 -52 12 -51 -12 2 -11 24 -16
42 -12 39 5 -3 16 -22 24 -41z m-87 -4 c-3 -8 -7 -3 -11 10 -4 17 -3 21 5 13
5 -5 8 -16 6 -23z m-228 -29 c0 -5 -2 -10 -4 -10 -3 0 -8 5 -11 10 -3 6 -1 10
4 10 6 0 11 -4 11 -10z m237 -27 c-3 -10 -5 -4 -5 12 0 17 2 24 5 18 2 -7 2
-21 0 -30z m274 20 c13 -16 12 -17 -3 -4 -17 13 -22 21 -14 21 2 0 10 -8 17
-17z m-174 -50 c-3 -10 -5 -4 -5 12 0 17 2 24 5 18 2 -7 2 -21 0 -30z m-307
-18 c0 -5 -5 -3 -10 5 -5 8 -10 20 -10 25 0 6 5 3 10 -5 5 -8 10 -19 10 -25z
m220 -8 c0 -5 -4 -5 -10 -2 -5 3 -10 14 -10 23 0 15 2 15 10 2 5 -8 10 -19 10
-23z"/>
<path d="M518 653 c7 -3 16 -2 19 1 4 3 -2 6 -13 5 -11 0 -14 -3 -6 -6z"/>
<path d="M426 642 c-3 -5 1 -9 9 -9 8 0 12 4 9 9 -3 4 -7 8 -9 8 -2 0 -6 -4
-9 -8z"/>
<path d="M592 595 c-7 -9 -8 -15 -2 -15 5 0 10 -9 10 -20 0 -11 4 -20 8 -20 4
0 8 9 8 20 0 11 -5 20 -10 20 -5 0 -1 7 10 15 14 11 15 14 4 14 -8 0 -21 -6
-28 -14z"/>
<path d="M496 532 c-3 -6 -1 -14 5 -17 14 -9 20 -2 10 14 -6 8 -11 9 -15 3z"/>
<path d="M530 520 c0 -11 4 -20 9 -20 5 0 7 9 4 20 -3 11 -7 20 -9 20 -2 0 -4
-9 -4 -20z"/>
<path d="M686 501 c-3 -5 1 -12 10 -15 22 -8 25 -4 9 11 -8 7 -16 9 -19 4z"/>
<path d="M464 489 c-4 -7 -3 -9 4 -5 6 3 13 -2 15 -11 4 -16 5 -16 6 -1 1 21
-15 32 -25 17z"/>
<path d="M581 459 c0 -14 3 -18 6 -10 5 11 7 11 14 0 8 -12 10 -12 18 0 5 7
13 11 18 8 5 -3 15 -2 23 3 12 7 10 9 -5 8 -11 0 -32 3 -47 7 -25 6 -28 5 -27
-16z"/>
<path d="M387 427 c-3 -8 1 -14 9 -14 16 0 19 13 5 21 -5 3 -11 0 -14 -7z"/>
<path d="M450 430 c-8 -5 -10 -10 -5 -10 6 0 17 5 25 10 8 5 11 10 5 10 -5 0
-17 -5 -25 -10z"/>
<path d="M361 384 c0 -11 3 -14 6 -6 3 7 2 16 -1 19 -3 4 -6 -2 -5 -13z"/>
<path d="M620 344 c8 -10 15 -20 16 -22 1 -2 4 1 7 5 3 5 -4 15 -16 23 -21 12
-21 12 -7 -6z"/>
<path d="M645 310 c-3 -5 -1 -10 4 -10 6 0 11 5 11 10 0 6 -2 10 -4 10 -3 0
-8 -4 -11 -10z"/>
<path d="M306 281 c-4 -5 3 -7 14 -4 23 6 26 13 6 13 -8 0 -17 -4 -20 -9z"/>
<path d="M310 249 c0 -6 12 -42 27 -80 27 -71 54 -92 52 -41 l-1 27 -9 -25
c-7 -20 -8 -18 -4 14 5 44 -26 116 -50 116 -8 0 -15 -5 -15 -11z m40 -45 c12
-19 20 -38 17 -40 -3 -3 -15 12 -27 35 -25 50 -19 54 10 5z"/>
<path d="M160 196 c0 -2 7 -6 15 -10 8 -3 15 -1 15 4 0 6 -7 10 -15 10 -8 0
-15 -2 -15 -4z"/>
<path d="M100 132 c0 -5 9 -17 21 -28 12 -10 32 -39 45 -64 13 -25 23 -39 24
-32 0 26 -67 132 -84 132 -3 0 -6 -4 -6 -8z"/>
<path d="M659 86 c9 -11 9 -22 -3 -50 -16 -39 -13 -45 10 -21 9 8 13 15 10 15
-3 0 -1 11 4 24 5 15 5 27 -3 35 -16 16 -32 14 -18 -3z"/>
</g>
</svg>
