<?xml version="1.0" standalone="no"?>
<!DOCTYPE svg PUBLIC "-//W3C//DTD SVG 20010904//EN"
 "http://www.w3.org/TR/2001/REC-SVG-20010904/DTD/svg10.dtd">
<svg version="1.0" xmlns="http://www.w3.org/2000/svg"
 width="480.000000pt" height="245.000000pt" viewBox="0 0 480.000000 245.000000"
 preserveAspectRatio="xMidYMid meet">

<g transform="translate(0.000000,245.000000) scale(0.100000,-0.100000)"
fill="#000000" stroke="none">
<path d="M870 2091 c8 -28 6 -30 -31 -45 -56 -23 -75 -20 -100 13 -19 26 -24
28 -57 20 -239 -53 -518 -93 -608 -87 -72 5 -74 4 -68 -16 3 -12 10 -25 15
-30 13 -15 185 -14 274 1 251 40 403 72 411 84 11 18 29 8 44 -24 18 -38 45
-47 55 -17 9 27 52 45 71 29 23 -19 16 -34 -18 -44 -32 -10 -33 -11 -30 -60 1
-28 -5 -67 -14 -90 -19 -48 -91 -126 -110 -118 -8 3 -11 10 -7 16 4 6 0 8 -11
4 -24 -9 -32 19 -12 42 21 23 20 28 -6 35 -13 3 -35 24 -50 46 -65 94 -194 66
-229 -49 -10 -32 -8 -44 17 -96 15 -33 36 -70 46 -81 13 -15 16 -24 9 -29 -13
-8 -4 -54 15 -76 8 -8 14 -30 14 -48 0 -38 58 -103 210 -237 80 -70 92 -85
106 -133 8 -30 13 -63 10 -75 -3 -12 -2 -27 3 -34 9 -16 154 100 223 179 l49
57 -57 93 c-36 60 -82 118 -127 160 l-69 66 55 109 c30 60 62 142 72 182 9 40
21 75 26 78 17 10 -2 24 -32 24 -33 0 -51 26 -28 41 12 7 12 9 -1 9 -13 0 -13
1 0 11 10 7 11 12 4 15 -31 13 -46 33 -48 64 -1 18 -7 35 -13 37 -9 3 -10 -4
-3 -26z m-173 -393 c5 -7 10 -27 11 -44 2 -27 -3 -34 -32 -48 -58 -27 -172
-44 -159 -23 3 5 0 8 -8 5 -19 -6 -71 56 -63 76 6 15 8 15 18 1 12 -16 44 -11
166 29 58 18 56 18 67 4z"/>
<path d="M658 1693 c-20 -5 -25 -33 -5 -33 6 0 19 5 27 10 19 12 2 28 -22 23z"/>
<path d="M598 1673 c-18 -5 -25 -33 -9 -33 21 0 41 13 41 26 0 14 -3 15 -32 7z"/>
<path d="M450 1652 c0 -11 72 -62 88 -62 7 0 12 7 12 15 0 9 -9 15 -24 15 -13
0 -35 9 -50 21 -14 11 -26 16 -26 11z"/>
<path d="M523 1653 c-33 -6 -28 -23 6 -23 16 0 31 6 35 15 5 15 1 16 -41 8z"/>
<path d="M663 1653 c-13 -5 -19 -43 -7 -43 16 0 44 23 44 35 0 15 -14 18 -37
8z"/>
<path d="M595 1631 c-33 -7 -49 -41 -18 -41 38 0 63 13 63 31 0 11 -3 18 -7
18 -5 -1 -21 -4 -38 -8z"/>
<path d="M990 2089 c0 -5 -4 -7 -10 -4 -5 3 -10 2 -10 -4 0 -5 -10 -11 -22
-13 -18 -3 -14 -7 19 -16 24 -7 44 -20 46 -30 4 -13 5 -12 6 5 0 12 6 25 11
28 6 3 10 15 10 26 0 14 -7 19 -25 19 -14 0 -25 -5 -25 -11z"/>
<path d="M1695 1770 l0 -250 71 0 71 0 0 250 0 250 -71 0 -71 0 0 -250z"/>
<path d="M1940 1786 c0 -129 -3 -241 -6 -250 -5 -13 2 -16 39 -16 l45 0 -5
158 -5 157 66 -65 c37 -36 104 -107 149 -158 74 -83 85 -92 114 -90 l32 3 4
248 4 247 -44 0 c-37 0 -44 -3 -39 -17 2 -10 7 -74 11 -143 l6 -125 -139 143
-138 142 -47 0 -47 0 0 -234z"/>
<path d="M2478 1778 c2 -133 6 -245 9 -248 2 -3 62 -5 131 -5 111 0 133 3 177
23 60 28 109 73 138 127 17 31 21 58 22 126 0 76 -3 90 -27 126 -17 26 -45 49
-75 64 -44 22 -63 24 -213 27 l-165 4 3 -244z m262 167 c50 -26 74 -78 74
-165 0 -62 -5 -84 -25 -120 -27 -49 -60 -76 -104 -85 -61 -12 -65 0 -72 203
l-6 182 52 0 c29 0 65 -7 81 -15z"/>
<path d="M3018 1770 l3 -250 72 0 72 0 0 250 0 250 -75 0 -75 0 3 -250z"/>
<path d="M3413 2003 c-17 -50 -108 -262 -157 -365 l-55 -118 48 0 48 0 25 73
24 72 73 3 c40 2 78 -2 85 -7 6 -5 23 -39 36 -75 l25 -66 83 0 c46 0 82 3 80
8 -2 4 -18 39 -37 77 -45 94 -122 276 -150 353 l-23 62 -50 0 c-37 0 -50 -4
-55 -17z m45 -206 c12 -33 22 -61 22 -63 0 -2 -25 -4 -55 -4 -30 0 -55 2 -55
5 0 2 8 26 18 52 11 26 22 57 26 67 9 25 18 14 44 -57z"/>
<path d="M3770 1793 c0 -126 -3 -238 -6 -250 -6 -21 -3 -23 38 -23 l45 0 -5
158 -4 157 56 -55 c32 -30 98 -101 149 -157 81 -91 96 -103 124 -103 l33 0 0
173 c0 96 3 208 6 250 l7 77 -47 0 -47 0 5 -32 c10 -68 17 -248 9 -248 -4 0
-66 63 -138 140 l-130 140 -47 0 -48 0 0 -227z"/>
<path d="M1695 1140 l0 -250 73 0 72 0 -7 220 -6 220 31 0 c23 0 36 -7 48 -25
31 -47 1 -155 -43 -155 -7 0 -13 -6 -13 -14 0 -40 123 -21 169 26 50 51 53
144 7 187 -34 32 -79 41 -211 41 l-120 0 0 -250z"/>
<path d="M2135 1140 l0 -250 74 0 74 0 -6 85 c-3 62 -2 85 7 82 6 -2 33 -40
60 -85 l49 -82 84 0 c65 0 82 3 77 13 -29 48 -111 167 -132 189 l-25 27 26 6
c13 4 37 20 53 36 22 23 29 40 32 87 4 51 1 61 -23 90 -35 42 -77 52 -225 52
l-125 0 0 -250z m195 175 c69 -36 40 -185 -37 -185 -22 0 -23 2 -23 93 0 115
4 121 60 92z"/>
<path d="M2615 1143 l0 -248 155 0 c93 0 158 4 162 10 4 5 8 23 8 38 0 26 -3
28 -27 23 -67 -13 -123 -17 -142 -11 -19 6 -21 14 -21 87 l0 80 70 -4 70 -4 0
35 0 34 -70 -7 -70 -6 0 81 0 82 75 -6 75 -5 0 34 0 34 -142 0 -143 0 0 -247z"/>
<path d="M3022 1228 c-6 -90 -19 -201 -27 -248 -8 -47 -15 -86 -15 -87 0 -2
20 -3 45 -3 l45 0 1 108 c0 59 4 127 7 152 l7 45 67 -150 66 -150 46 0 47 0
43 100 c24 55 54 123 67 150 l23 50 7 -50 c4 -27 8 -82 8 -121 1 -39 4 -86 7
-103 l7 -31 72 0 72 0 -13 83 c-11 65 -44 376 -44 410 0 4 -25 7 -55 5 l-55
-3 -44 -106 c-23 -58 -56 -134 -73 -170 l-30 -64 -35 75 c-20 41 -55 119 -78
173 l-43 97 -56 0 -57 0 -12 -162z"/>
<path d="M3685 1363 c8 -35 8 -411 0 -446 l-7 -27 82 0 c80 0 81 0 74 23 -9
29 -9 425 0 455 7 22 6 22 -74 22 l-82 0 7 -27z"/>
<path d="M3936 1223 c3 -93 2 -204 -3 -248 l-9 -80 163 0 162 0 6 34 c3 18 5
35 3 37 -2 2 -34 -1 -72 -7 -37 -6 -78 -8 -92 -5 -23 6 -24 10 -24 87 l0 81
70 -4 70 -4 0 35 0 34 -70 -7 -70 -6 0 80 0 80 43 0 c23 0 57 -4 75 -9 l32
-10 0 40 0 39 -145 0 -145 0 6 -167z"/>
<path d="M4315 1369 c10 -30 10 -427 1 -457 -7 -22 -6 -22 71 -22 l78 0 -4 85
c-1 47 1 85 6 85 8 0 35 -42 89 -137 l18 -33 83 0 c46 0 83 2 83 5 0 15 -142
215 -153 215 -6 0 7 9 30 21 23 11 49 32 58 46 22 32 24 112 5 147 -27 51 -61
60 -223 64 l-149 4 7 -23z m218 -71 c32 -38 14 -146 -28 -162 -42 -16 -45 -10
-45 95 l0 101 28 -6 c15 -4 35 -16 45 -28z"/>
<path d="M1065 1128 c-43 -38 -114 -91 -157 -117 -62 -39 -75 -51 -65 -60 24
-19 50 -158 51 -265 0 -117 -11 -146 -74 -196 -24 -19 -53 -57 -71 -92 -37
-73 -87 -140 -145 -194 -41 -38 -44 -44 -44 -93 0 -65 12 -88 50 -96 48 -11
130 4 130 23 0 27 122 182 144 182 6 0 20 -13 31 -29 19 -29 63 -57 73 -47 3
3 7 28 10 56 4 42 10 54 31 68 14 8 62 50 106 92 175 165 232 214 271 230 39
17 134 118 134 142 0 5 -23 -11 -52 -37 -52 -47 -106 -80 -115 -72 -2 3 14 20
36 38 29 23 41 40 41 59 0 14 -27 80 -61 145 -49 98 -74 134 -135 196 -41 42
-74 83 -74 91 0 8 -8 22 -17 30 -17 14 -25 10 -98 -54z m85 -444 l25 -15 -25
8 c-14 4 -47 7 -75 6 -34 -1 -45 1 -35 7 23 14 82 11 110 -6z m-170 -469 c0
-42 -21 -47 -39 -8 -10 21 -9 28 1 34 26 17 38 9 38 -26z m-300 -100 c23 -12
30 -22 30 -45 0 -28 -2 -30 -41 -30 -55 0 -79 15 -79 49 0 15 3 31 7 34 11 12
53 8 83 -8z"/>
<path d="M1695 510 l0 -250 163 0 162 0 0 39 0 38 -51 -9 c-27 -5 -67 -8 -87
-6 l-37 3 -7 65 c-4 36 -4 134 -1 218 l6 152 -74 0 -74 0 0 -250z"/>
<path d="M2085 510 l0 -250 163 0 162 0 0 38 0 39 -47 -8 c-27 -4 -67 -8 -89
-8 -49 -1 -54 8 -54 108 l0 64 70 -6 70 -6 0 35 0 35 -70 -7 -70 -7 0 83 0 83
63 -6 c34 -3 70 -9 80 -13 16 -6 18 -2 15 32 l-3 39 -145 3 -145 3 0 -251z"/>
<path d="M2645 738 c-11 -34 -107 -258 -159 -371 -25 -54 -46 -100 -46 -103 0
-2 20 -4 44 -4 l44 0 25 68 25 67 82 0 82 0 27 -65 28 -65 82 -3 c46 -2 81 1
78 5 -35 64 -131 286 -181 421 l-28 72 -48 0 c-42 0 -50 -3 -55 -22z m65 -260
c0 -15 -9 -18 -55 -18 -30 0 -55 2 -55 4 0 3 12 38 27 78 l27 73 28 -60 c15
-33 27 -68 28 -77z"/>
<path d="M3129 741 c-68 -27 -112 -64 -144 -123 -24 -43 -28 -64 -28 -122 0
-82 23 -137 74 -180 60 -51 94 -60 219 -59 165 1 159 -4 164 126 l4 107 -71 0
-72 0 3 -90 4 -90 -45 0 c-54 0 -92 27 -118 84 -23 52 -25 162 -3 214 44 106
146 133 229 61 l34 -30 10 38 c16 55 14 62 -15 73 -43 17 -194 11 -245 -9z"/>
<path d="M3508 583 c3 -234 14 -272 87 -311 43 -23 199 -23 242 1 63 34 75 65
84 216 4 75 11 166 14 204 l6 67 -44 0 -45 0 6 -174 c5 -190 0 -220 -46 -256
-33 -26 -92 -26 -125 0 -44 35 -51 77 -44 262 l7 168 -73 0 -72 0 3 -177z"/>
<path d="M4035 510 l0 -250 156 0 c168 0 169 0 169 53 0 22 -2 22 -79 13 -111
-13 -111 -13 -111 85 l0 82 70 -7 70 -6 0 36 0 35 -70 -7 -70 -7 0 82 0 81 38
0 c20 0 54 -4 75 -9 l37 -9 0 39 0 39 -142 0 -143 0 0 -250z"/>
</g>
</svg>
