<?xml version="1.0" standalone="no"?>
<!DOCTYPE svg PUBLIC "-//W3C//DTD SVG 20010904//EN"
 "http://www.w3.org/TR/2001/REC-SVG-20010904/DTD/svg10.dtd">
<svg version="1.0" xmlns="http://www.w3.org/2000/svg"
 width="200.000000pt" height="150.000000pt" viewBox="0 0 200.000000 150.000000"
 preserveAspectRatio="xMidYMid meet">

<g transform="translate(0.000000,150.000000) scale(0.100000,-0.100000)"
fill="#000000" stroke="none">
<path d="M765 1435 c-379 -86 -425 -97 -425 -104 1 -3 22 -46 48 -96 40 -76
51 -90 74 -93 l27 -3 -45 86 c-26 47 -45 88 -43 89 2 2 108 27 234 55 127 28
239 54 250 58 11 3 17 3 14 -1 -5 -6 -92 -31 -377 -112 l-53 -15 43 -79 43
-80 446 0 447 0 45 80 c30 52 42 82 34 85 -7 1 -90 25 -184 51 -95 26 -171 49
-169 51 1 2 100 -18 219 -44 l216 -47 -44 -82 c-25 -46 -45 -85 -45 -88 0 -3
10 -6 23 -6 19 0 31 17 70 96 27 53 47 98 45 99 -5 5 -150 39 -403 95 -126 28
-237 52 -245 54 -8 2 -118 -20 -245 -49z m278 -127 c35 -2 43 -7 45 -25 3 -20
-1 -23 -27 -23 -21 0 -31 -5 -31 -15 0 -9 9 -15 25 -15 19 0 25 -5 25 -23 0
-13 -5 -28 -12 -35 -15 -15 -74 -16 -83 -2 -4 7 -12 7 -25 0 -26 -14 -77 -13
-86 2 -4 6 -13 37 -20 67 -6 31 -12 46 -13 34 -1 -13 -6 -23 -13 -23 -7 0 -5
-7 5 -17 8 -10 19 -30 22 -45 6 -23 4 -28 -12 -28 -10 0 -25 6 -32 13 -11 10
-13 10 -7 0 5 -9 0 -13 -16 -13 -20 0 -27 10 -48 67 -25 66 -46 91 -46 54 0
-11 5 -17 10 -14 5 4 7 -1 3 -10 -3 -8 1 -21 9 -27 17 -15 19 -34 2 -24 -7 4
-3 -4 10 -18 12 -13 22 -27 22 -31 0 -4 -40 -7 -90 -7 -57 0 -90 4 -90 11 0 5
6 7 13 4 6 -4 3 1 -8 10 -11 9 -19 23 -17 32 2 8 -1 12 -6 9 -6 -3 -13 1 -16
10 -4 10 -1 13 7 9 6 -3 2 2 -10 11 -27 20 -30 43 -5 46 31 2 37 4 60 16 12 7
28 12 35 10 6 -1 22 3 35 10 12 7 28 12 35 10 6 -1 22 3 35 10 12 7 28 12 35
10 6 -1 22 3 35 10 12 7 28 12 35 10 6 -1 22 4 35 11 13 7 30 10 37 7 8 -3 17
-1 20 4 3 5 20 13 38 18 l32 8 3 -57 3 -58 42 -3z m112 -25 l-5 -28 12 28 c8
18 19 27 35 27 28 0 28 1 5 -80 -15 -52 -23 -66 -40 -68 -15 -2 -22 2 -23 15
-1 17 -2 17 -6 1 -2 -10 -14 -18 -25 -18 -19 0 -20 4 -14 61 9 80 14 89 42 89
21 0 24 -4 19 -27z m135 18 c0 -5 -11 -37 -24 -72 -18 -48 -29 -65 -45 -67
-26 -4 -26 -6 0 79 18 60 24 69 45 69 13 0 24 -4 24 -9z"/>
<path d="M948 1311 c5 -3 11 -14 13 -23 3 -15 6 -14 15 6 10 21 9 24 -14 24
-13 0 -20 -3 -14 -7z"/>
<path d="M901 1264 c0 -11 3 -14 6 -6 3 7 2 16 -1 19 -3 4 -6 -2 -5 -13z"/>
<path d="M1141 1214 c0 -11 3 -14 6 -6 3 7 2 16 -1 19 -3 4 -6 -2 -5 -13z"/>
<path d="M47 1098 c6 -7 54 -71 107 -143 95 -127 91 -126 -24 3 -48 55 -60 63
-85 60 -31 -3 -19 -17 390 -445 l50 -53 80 41 c73 37 209 89 234 89 6 0 20
-18 31 -39 11 -22 27 -44 35 -49 15 -8 125 -197 125 -214 0 -24 21 3 69 90 30
53 67 112 83 131 16 18 33 44 38 57 5 13 14 24 20 24 26 0 161 -51 235 -89
l80 -41 36 38 c201 208 429 451 429 456 0 3 -13 6 -28 6 -23 0 -43 -18 -111
-95 -46 -52 -85 -95 -88 -95 -2 0 40 57 93 128 54 70 102 133 107 140 8 9
-185 12 -953 12 -768 0 -960 -3 -953 -12z m1787 -50 c-15 -25 -87 -118 -91
-118 -6 0 59 90 69 96 34 21 -61 24 -812 24 -451 0 -820 -2 -820 -5 0 -3 59
-85 131 -183 166 -224 157 -211 137 -192 -14 13 -261 345 -282 378 -6 9 164
12 834 12 670 0 840 -3 834 -12z m-933 -46 c4 -4 9 -22 12 -39 6 -33 6 -33
-33 -33 -33 0 -40 3 -40 20 0 11 -5 20 -11 20 -6 0 -9 -10 -7 -21 2 -15 17
-26 48 -38 45 -16 45 -17 48 -68 3 -60 -8 -70 -76 -74 -50 -3 -69 11 -74 56
-3 28 -1 35 13 35 10 0 24 2 32 6 10 3 16 -4 20 -25 4 -17 12 -31 18 -31 6 0
8 7 5 16 -3 9 -6 22 -6 29 0 8 -18 20 -40 26 -51 16 -61 27 -63 80 -2 38 1 44
23 50 27 9 121 2 131 -9z m773 -2 c13 -12 -45 -104 -67 -108 -10 -2 -25 -1
-33 2 -13 5 -13 10 1 37 13 24 13 30 3 27 -7 -3 -19 -17 -26 -32 -13 -25 -12
-30 7 -50 12 -12 21 -28 21 -35 0 -22 -79 -159 -95 -165 -18 -7 -82 22 -89 40
-3 8 4 36 16 64 16 40 25 50 44 50 32 0 37 -14 19 -49 -17 -34 -18 -41 -7 -41
5 0 17 18 27 40 18 40 18 41 -3 63 -12 13 -22 33 -22 46 0 25 32 92 52 108 26
22 130 24 152 3z m-1164 1 c0 -5 3 -16 6 -25 5 -12 0 -16 -19 -16 l-25 0 55
-131 c30 -72 53 -132 51 -134 -2 -1 -13 -6 -26 -9 -24 -8 -15 -23 -129 223
-23 49 -27 53 -54 49 -25 -4 -33 0 -45 24 l-15 28 101 0 c55 0 100 -4 100 -9z
m125 -97 c31 -109 40 -132 49 -123 3 3 -8 52 -24 110 -16 57 -30 107 -30 112
0 4 17 7 39 7 l38 0 22 -107 c11 -60 21 -116 21 -125 0 -23 -54 -50 -93 -46
-31 3 -33 6 -79 133 -26 72 -48 133 -48 138 0 4 17 7 38 7 l38 0 29 -106z
m386 79 l1 -28 11 28 c9 23 17 27 49 27 21 0 38 -2 38 -5 0 -3 -11 -27 -24
-53 -22 -44 -22 -50 -10 -102 18 -74 18 -72 -18 -68 -29 3 -33 8 -44 48 l-12
45 -1 -47 c-1 -46 -2 -48 -30 -48 -27 0 -29 3 -35 53 -3 28 -6 80 -6 115 l0
62 40 0 c37 0 40 -2 41 -27z m252 7 c-3 -13 -14 -20 -28 -20 -16 0 -24 -7 -27
-25 -4 -19 -1 -25 13 -25 12 0 19 -7 19 -20 0 -14 -7 -20 -24 -20 -19 0 -25
-7 -30 -32 -5 -25 -2 -36 10 -45 31 -22 10 -42 -38 -36 -24 3 -45 7 -47 9 -2
2 5 55 15 119 l18 115 62 0 c57 0 62 -2 57 -20z m197 -5 c0 -32 -36 -104 -55
-111 -7 -3 -11 -12 -8 -19 2 -8 -6 -42 -19 -75 -21 -56 -25 -60 -48 -55 -14 4
-26 8 -28 10 -2 1 6 26 17 54 10 28 16 53 11 56 -4 3 -16 -19 -27 -48 -16 -46
-21 -52 -43 -49 -39 6 -41 -11 16 180 l25 82 80 0 c78 0 79 0 79 -25z m248
-97 c-14 -18 -57 -77 -97 -130 -40 -54 -74 -98 -77 -98 -4 0 50 76 149 208 22
28 42 52 44 52 3 0 -6 -15 -19 -32z m-790 -165 c-10 -2 -26 -2 -35 0 -10 3 -2
5 17 5 19 0 27 -2 18 -5z m180 0 c-10 -2 -26 -2 -35 0 -10 3 -2 5 17 5 19 0
27 -2 18 -5z m-265 -10 c-7 -2 -19 -2 -25 0 -7 3 -2 5 12 5 14 0 19 -2 13 -5z
m340 0 c-7 -2 -19 -2 -25 0 -7 3 -2 5 12 5 14 0 19 -2 13 -5z m-16 -20 l21 -8
-20 -41 -19 -41 -148 -1 -148 0 -21 44 -21 43 32 5 c18 3 43 8 57 10 37 7 242
-2 267 -11z m-422 -3 c-11 -5 -27 -9 -35 -9 -9 0 -8 4 5 9 11 5 27 9 35 9 9 0
8 -4 -5 -9z m540 0 c13 -5 14 -9 5 -9 -8 0 -24 4 -35 9 -13 5 -14 9 -5 9 8 0
24 -4 35 -9z m-605 -19 c-8 -5 -26 -11 -40 -15 -21 -5 -20 -3 5 9 32 15 60 20
35 6z m690 -13 c10 -6 7 -7 -10 -2 -14 3 -32 11 -40 16 -10 6 -7 7 10 2 14 -3
32 -11 40 -16z m-848 -43 c18 5 20 4 8 -4 -24 -17 -37 -13 -54 17 l-17 27 20
-23 c15 -17 27 -22 43 -17z m78 25 c-8 -5 -19 -10 -25 -10 -5 0 -3 5 5 10 8 5
20 10 25 10 6 0 3 -5 -5 -10z m820 0 c8 -5 11 -10 5 -10 -5 0 -17 5 -25 10 -8
5 -10 10 -5 10 6 0 17 -5 25 -10z m104 -15 c-18 -27 -31 -31 -54 -14 -12 8
-10 9 8 4 18 -5 28 -1 38 14 21 30 28 26 8 -4z m-524 -122 c-1 -65 -3 -83 -11
-70 -5 9 -7 22 -3 29 4 6 3 8 -3 5 -6 -4 -14 0 -17 9 -4 10 -2 13 7 9 6 -4 2
2 -9 12 -28 23 -53 69 -32 58 7 -3 5 0 -6 9 -17 14 -15 15 25 19 24 2 45 4 47
5 1 1 2 -37 2 -85z"/>
<path d="M1362 938 c-12 -33 -9 -49 7 -32 14 13 25 64 14 64 -5 0 -14 -14 -21
-32z"/>
<path d="M950 683 c0 -10 3 -29 7 -42 6 -23 7 -23 14 -5 7 16 8 17 8 2 1 -10
5 -18 11 -18 5 0 8 17 7 38 -2 30 -6 38 -24 40 -17 3 -23 -2 -23 -15z"/>
<path d="M1016 678 c-10 -40 -7 -54 14 -55 17 -2 20 4 20 38 0 44 -23 55 -34
17z"/>
<path d="M862 681 c-12 -7 -11 -13 1 -38 16 -31 54 -44 41 -14 -4 9 -9 26 -11
39 -6 24 -11 26 -31 13z"/>
<path d="M911 658 c5 -18 9 -34 9 -35 0 -2 7 -3 16 -3 11 0 14 4 7 13 -5 6 -8
22 -7 35 1 15 -4 22 -17 22 -15 0 -16 -4 -8 -32z"/>
<path d="M1066 668 c-8 -32 -7 -48 2 -48 5 0 9 6 9 13 0 6 3 22 7 35 4 12 3
22 -2 22 -5 0 -12 -10 -16 -22z"/>
<path d="M1106 651 c-14 -26 -14 -30 1 -35 19 -8 17 -9 31 32 9 26 8 32 -3 32
-8 0 -21 -13 -29 -29z"/>
<path d="M726 601 c-3 -5 33 -82 79 -172 47 -90 109 -210 138 -266 29 -57 54
-103 57 -103 3 0 24 37 47 83 24 45 85 165 138 265 52 101 92 188 89 193 -13
21 -37 2 -65 -51 -16 -30 -69 -130 -116 -222 -48 -93 -90 -168 -93 -168 -4 0
-191 355 -225 427 -10 23 -39 31 -49 14z"/>
<path d="M666 537 c-29 -76 -132 -240 -193 -306 -72 -80 -152 -133 -227 -151
-63 -15 -69 -19 -56 -40 7 -12 32 -15 112 -14 88 1 111 5 158 26 114 52 232
164 305 291 l28 48 -49 94 c-27 52 -52 95 -55 95 -4 0 -14 -20 -23 -43z m94
-146 c0 -26 -91 -149 -159 -213 -81 -77 -153 -115 -244 -129 -75 -12 -137 -9
-102 5 88 35 148 72 204 128 68 68 149 184 201 288 l33 64 33 -64 c18 -36 33
-71 34 -79z"/>
<path d="M1257 485 l-49 -96 34 -55 c77 -128 187 -232 298 -281 92 -41 291
-42 278 -1 -2 6 -32 19 -67 29 -150 42 -285 183 -394 411 -23 48 -44 88 -47
88 -3 0 -27 -43 -53 -95z m101 -48 c115 -213 220 -317 387 -383 35 -14 -27
-17 -102 -5 -91 14 -163 52 -244 129 -65 60 -159 186 -159 211 0 10 62 141 66
141 1 0 25 -42 52 -93z"/>
</g>
</svg>
