<?xml version="1.0" standalone="no"?>
<!DOCTYPE svg PUBLIC "-//W3C//DTD SVG 20010904//EN"
 "http://www.w3.org/TR/2001/REC-SVG-20010904/DTD/svg10.dtd">
<svg version="1.0" xmlns="http://www.w3.org/2000/svg"
 width="200.000000pt" height="227.000000pt" viewBox="0 0 200.000000 227.000000"
 preserveAspectRatio="xMidYMid meet">

<g transform="translate(0.000000,227.000000) scale(0.100000,-0.100000)"
fill="#000000" stroke="none">
<path d="M625 2122 c-8 -39 -37 -56 -81 -49 -43 7 -43 -1 1 -43 19 -18 32 -37
29 -42 -3 -4 2 -11 11 -14 31 -12 -6 -23 -64 -18 -79 6 -156 46 -195 101 l-31
45 -3 -365 -2 -364 -25 -13 c-14 -7 -23 -16 -19 -19 3 -3 -18 -15 -46 -28 -34
-15 -50 -28 -50 -40 0 -11 -5 -24 -11 -30 -8 -8 -8 -31 0 -82 8 -49 8 -78 1
-91 -15 -28 -13 -38 16 -67 19 -19 28 -23 34 -13 4 7 16 9 29 5 12 -3 19 -10
17 -14 -3 -4 -1 -25 5 -46 8 -27 13 -34 19 -24 13 20 26 -22 34 -109 18 -200
123 -374 297 -493 58 -39 296 -158 385 -192 39 -15 43 -14 115 14 447 180 622
365 654 694 7 66 23 123 25 85 1 -23 29 32 30 58 0 25 28 42 39 23 5 -8 15 -6
34 9 28 22 35 58 16 77 -7 7 -7 29 1 75 16 91 5 127 -45 153 -22 12 -52 32
-67 47 l-28 25 0 362 0 362 -58 -60 c-72 -73 -129 -91 -257 -82 l-30 3 28 10
c15 5 27 15 27 21 0 7 14 25 30 40 36 35 38 46 5 39 -45 -8 -73 6 -85 43 l-11
34 -31 -34 c-17 -20 -41 -38 -53 -41 -13 -3 -25 -14 -28 -24 -4 -14 -26 -21
-102 -35 -159 -29 -453 -8 -438 31 3 9 -6 18 -23 24 -16 6 -43 27 -60 47 l-32
36 -7 -31z m-136 -222 c33 -4 85 -3 126 3 75 12 75 12 330 2 133 -6 190 -4
260 8 79 14 97 14 145 1 87 -23 214 -18 283 10 l57 24 0 -255 c0 -231 -1 -254
-16 -242 -13 10 -17 10 -24 -1 -6 -10 -19 -4 -55 25 -40 33 -54 39 -103 41
-46 3 -50 2 -22 -5 40 -8 72 -24 88 -43 8 -10 -2 -13 -51 -11 l-62 3 48 -14
c27 -7 54 -19 60 -26 10 -10 7 -11 -13 -5 -72 22 -192 -4 -229 -49 -15 -18
-11 -19 43 -7 24 6 48 6 65 -1 l26 -10 -30 -13 -30 -13 42 -1 c43 -1 73 -21
73 -48 0 -14 -4 -12 -23 5 -22 21 -57 30 -57 16 0 -4 8 -13 18 -20 15 -12 14
-13 -11 -14 -16 0 -26 -4 -22 -10 3 -5 2 -10 -4 -10 -11 0 -41 -28 -41 -39 0
-4 15 -7 33 -7 17 0 63 -14 101 -31 l69 -31 -33 -17 c-18 -9 -54 -20 -79 -24
l-46 -7 30 -16 c17 -9 49 -20 70 -24 l40 -7 -30 -13 c-37 -16 -114 -18 -151
-3 l-28 10 19 -22 c21 -23 64 -47 105 -60 22 -6 20 -7 -14 -8 -32 -1 -36 -3
-27 -15 7 -8 23 -17 38 -20 24 -7 25 -8 8 -26 -12 -13 -14 -20 -6 -20 7 0 26
14 42 31 31 33 39 22 17 -26 -13 -28 -45 -40 -83 -31 -34 9 -31 -7 6 -38 49
-41 92 -36 146 19 l45 45 -4 -30 c-5 -35 5 -39 26 -9 l15 22 7 -27 c9 -38 -13
-135 -48 -209 -42 -88 -99 -158 -181 -221 -70 -53 -251 -149 -370 -196 l-59
-23 -81 33 c-276 111 -449 240 -521 387 -34 68 -69 201 -61 232 l6 24 20 -22
c27 -28 30 -27 22 11 l-6 32 39 -41 c57 -60 118 -69 164 -23 29 29 24 39 -18
33 -43 -6 -66 13 -78 62 l-7 30 33 -32 c34 -34 65 -47 37 -15 -22 24 -21 27 5
29 12 1 28 9 37 18 14 13 12 15 -19 15 l-35 0 50 24 c28 13 59 33 70 46 l20
23 -22 -12 c-29 -15 -121 -13 -158 3 l-30 13 40 7 c22 4 56 16 75 26 l35 19
-40 1 c-45 1 -139 39 -115 47 8 3 46 19 83 35 40 17 76 27 87 23 30 -10 25 23
-5 37 -13 6 -22 15 -19 19 3 5 -7 9 -23 9 -24 1 -25 2 -10 11 9 5 17 14 17 19
0 17 -26 11 -54 -11 -29 -23 -34 -15 -10 19 11 16 26 22 57 23 38 0 40 1 20
11 -53 26 -3 40 81 24 28 -6 29 -6 12 13 -41 45 -128 64 -218 46 -31 -6 -32
-5 -13 10 11 8 38 18 60 22 35 6 37 7 15 13 -14 3 -39 3 -57 -1 -23 -5 -30 -3
-27 6 6 16 42 35 85 45 l34 8 -43 1 c-48 1 -70 -8 -121 -50 -27 -22 -38 -26
-49 -17 -10 9 -16 8 -23 -3 -5 -8 -9 85 -9 243 l0 256 42 -20 c23 -11 67 -24
97 -28z m-112 -554 c18 4 42 0 59 -9 25 -13 32 -13 49 -1 10 8 27 14 36 14 14
0 11 -6 -12 -29 -16 -16 -29 -40 -29 -52 0 -13 -10 -34 -22 -47 -21 -23 -22
-25 -3 -18 38 15 139 20 131 8 -4 -7 -16 -12 -26 -12 -11 0 -42 -9 -70 -20
-28 -11 -63 -20 -77 -20 -26 0 -26 0 -8 -20 19 -21 24 -77 10 -100 -5 -8 -22
-10 -46 -7 -34 4 -39 2 -39 -14 0 -11 10 -39 21 -62 l21 -42 -26 24 -26 24 0
-39 c0 -29 -3 -35 -10 -24 -5 8 -10 34 -10 58 0 25 -5 44 -12 46 -7 2 -33 10
-58 17 -45 13 -45 13 -13 17 37 4 82 50 84 85 1 20 2 20 9 -3 7 -20 8 -16 7
20 l-2 45 -62 -3 c-57 -3 -63 -2 -63 16 0 28 26 48 43 33 8 -6 17 -8 20 -4 14
13 6 23 -25 31 -48 12 -46 30 6 44 25 7 46 18 46 25 0 18 42 33 56 22 6 -5 25
-6 41 -3z m1380 -6 c1 0 0 -6 -2 -12 -3 -8 12 -19 41 -28 55 -18 58 -32 10
-43 -24 -6 -33 -13 -29 -23 4 -10 10 -11 23 -4 15 8 22 5 34 -12 26 -37 20
-41 -45 -34 -69 8 -79 2 -78 -49 1 -29 1 -29 8 -5 7 24 7 24 14 -10 10 -46 43
-80 81 -81 l31 -1 -30 -13 c-16 -8 -40 -14 -52 -15 -13 0 -24 -3 -24 -7 -1 -5
-3 -28 -4 -52 -2 -24 -8 -48 -14 -54 -7 -7 -8 1 -4 26 7 42 -7 49 -31 15 -22
-31 -20 -5 3 41 21 40 15 66 -12 55 -10 -3 -28 -3 -42 0 -21 5 -25 12 -25 45
0 22 6 44 15 51 21 18 19 30 -7 30 -21 0 -168 47 -178 57 -7 7 109 -3 138 -13
24 -7 24 -7 -2 19 -14 14 -26 37 -26 51 0 15 -12 34 -31 50 -24 20 -27 26 -12
26 10 -1 29 -7 42 -14 20 -11 28 -11 50 1 17 8 40 11 65 7 26 -4 36 -3 32 4
-4 7 4 8 26 1 18 -5 34 -9 35 -9z m-1577 -107 c0 -5 -5 -15 -10 -23 -8 -12
-10 -11 -10 8 0 12 5 22 10 22 6 0 10 -3 10 -7z m1690 -13 c0 -11 -2 -20 -4
-20 -2 0 -6 9 -9 20 -3 11 -1 20 4 20 5 0 9 -9 9 -20z m-1630 -70 c-14 -11
-31 -17 -38 -15 -8 3 -18 5 -23 5 -5 0 -9 6 -9 13 0 7 17 13 48 14 l47 2 -25
-19z m1630 3 c0 -7 -9 -13 -20 -13 -11 0 -20 -5 -20 -10 0 -7 -4 -7 -12 0 -7
6 -22 17 -33 24 -18 13 -15 14 33 13 34 -1 52 -6 52 -14z m-1642 -72 c6 -1 12
-6 12 -12 0 -13 -62 -7 -67 7 -2 6 6 10 19 8 13 -1 29 -3 36 -3z m1630 -12
c-7 -5 -26 -9 -43 -9 -27 1 -28 2 -12 14 9 7 29 11 43 8 19 -3 22 -7 12 -13z
m-1328 -87 c-21 -4 -60 14 -60 28 0 5 18 1 40 -8 29 -12 34 -18 20 -20z m1016
12 c-11 -8 -31 -14 -45 -14 -23 0 -21 3 14 19 44 20 61 17 31 -5z m-1071 -78
c12 -53 12 -56 -3 -45 -9 6 -2 -3 16 -20 18 -17 47 -34 63 -38 38 -7 19 -23
-27 -23 -35 0 -56 20 -79 73 -19 45 -20 67 -1 42 12 -16 13 -13 6 28 -4 25
-13 54 -20 64 -9 12 -6 11 9 -3 14 -13 29 -45 36 -78z m1119 67 c-7 -16 -14
-39 -14 -53 0 -14 -7 -36 -16 -48 -8 -12 -13 -22 -9 -22 3 0 14 15 25 33 25
40 28 11 4 -36 -26 -51 -45 -67 -78 -67 -49 0 -64 16 -23 24 34 6 59 26 63 50
17 88 24 110 39 126 24 27 26 25 9 -7z"/>
<path d="M884 1806 c-3 -8 -3 -64 0 -123 3 -59 5 -118 5 -131 1 -20 5 -23 34
-20 29 3 32 7 37 43 l6 40 8 -42 c8 -42 9 -43 47 -43 l39 0 0 145 0 145 -35 0
c-34 0 -35 -1 -36 -42 l-1 -43 -11 43 c-9 40 -11 42 -49 42 -24 0 -41 -5 -44
-14z"/>
<path d="M1119 1801 c-21 -17 -24 -29 -28 -105 -6 -146 7 -166 104 -165 l65 1
0 79 0 79 -45 0 c-45 0 -45 0 -45 35 0 41 7 45 20 10 7 -19 17 -25 40 -25 27
0 30 3 30 30 0 67 -87 105 -141 61z m71 -191 c0 -11 -4 -20 -10 -20 -5 0 -10
9 -10 20 0 11 5 20 10 20 6 0 10 -9 10 -20z"/>
<path d="M722 1803 c-12 -2 -30 -19 -39 -36 l-18 -32 -3 28 c-3 24 -7 28 -25
23 -12 -3 -28 -6 -34 -6 -10 0 -13 -32 -13 -125 l0 -125 34 0 c33 0 35 2 38
38 l4 37 17 -37 17 -38 80 0 80 0 0 140 0 140 -40 0 -40 0 0 -132 0 -133 -32
68 -32 68 27 55 c38 77 37 78 -21 67z"/>
<path d="M1314 1793 c-42 -30 -41 -110 2 -140 58 -41 69 -52 61 -60 -5 -4 -14
0 -21 10 -8 10 -26 17 -45 17 -26 0 -31 -4 -31 -25 0 -39 33 -65 83 -65 62 0
87 21 87 75 0 37 -5 47 -32 69 l-33 26 34 0 c31 0 33 2 26 28 -3 15 -14 35
-24 45 -20 20 -89 33 -107 20z m66 -79 c0 -8 -4 -12 -10 -9 -5 3 -10 13 -10
21 0 8 5 12 10 9 6 -3 10 -13 10 -21z"/>
<path d="M440 1732 c-26 -21 -30 -67 -9 -87 29 -27 57 -27 84 -1 32 32 32 59
-1 85 -33 26 -45 26 -74 3z m31 -15 c-1 -12 -15 -9 -19 4 -3 6 1 10 8 8 6 -3
11 -8 11 -12z m19 -47 c0 -5 -10 -10 -22 -10 -19 0 -20 2 -8 10 19 13 30 13
30 0z"/>
<path d="M1520 1730 c-41 -41 -16 -103 40 -103 37 0 60 23 60 60 0 28 -33 63
-60 63 -11 0 -29 -9 -40 -20z m40 -8 c0 -13 -12 -22 -22 -16 -10 6 -1 24 13
24 5 0 9 -4 9 -8z m-30 -36 c0 -3 -4 -8 -10 -11 -5 -3 -10 -1 -10 4 0 6 5 11
10 11 6 0 10 -2 10 -4z m45 -15 c3 -6 -3 -9 -14 -8 -11 0 -17 5 -15 9 7 11 22
10 29 -1z"/>
<path d="M645 1432 c17 -5 41 -14 53 -21 15 -8 34 -10 50 -5 26 7 25 8 -13 16
-22 4 -58 10 -80 13 -34 4 -35 3 -10 -3z"/>
<path d="M1340 1430 c-8 -5 -28 -10 -44 -10 -23 0 -27 -3 -18 -12 8 -8 26 -6
74 10 49 16 56 21 33 21 -16 1 -37 -4 -45 -9z"/>
<path d="M924 1324 c-3 -25 -13 -48 -20 -51 -8 -3 -34 2 -59 10 -50 17 -51 16
-31 -39 7 -22 11 -45 9 -51 -3 -7 -27 -15 -54 -19 -27 -4 -49 -9 -49 -13 0 -3
16 -19 35 -34 19 -15 35 -35 35 -43 0 -8 -16 -29 -36 -46 -32 -29 -34 -33 -18
-39 11 -4 31 -8 46 -8 39 -1 49 -27 31 -74 -9 -21 -13 -40 -11 -43 3 -2 23 2
45 10 52 18 70 7 79 -50 l7 -46 36 36 c20 20 44 36 53 36 8 0 28 -16 43 -36
29 -38 45 -34 45 12 0 11 6 29 14 39 13 18 18 19 61 7 26 -7 49 -11 51 -9 3 2
-3 20 -11 41 -22 51 -8 72 52 81 l48 7 -37 33 c-21 17 -38 39 -38 47 0 8 14
27 30 43 17 16 30 32 30 36 0 4 -20 10 -44 13 -54 8 -63 27 -41 80 9 21 14 40
12 42 -2 2 -24 -3 -47 -11 -24 -9 -49 -14 -56 -11 -6 2 -17 26 -23 52 l-12 47
-32 -32 c-41 -39 -61 -39 -94 -1 -13 17 -29 30 -33 30 -5 0 -12 -21 -16 -46z
m92 -34 c15 0 35 11 49 28 l24 27 7 -33 c9 -45 42 -66 79 -52 35 13 38 10 25
-24 -13 -35 5 -65 43 -73 38 -8 41 -18 12 -37 -32 -21 -32 -53 1 -87 l26 -27
-31 -7 c-41 -9 -63 -40 -50 -72 14 -38 11 -42 -20 -30 -39 14 -81 -6 -81 -39
0 -32 -14 -37 -35 -14 -24 27 -76 26 -93 0 -16 -27 -32 -25 -32 3 0 38 -33 61
-76 53 -36 -7 -36 -7 -29 23 10 47 -1 68 -40 75 -42 8 -43 12 -10 38 14 11 25
27 25 37 0 10 -11 28 -25 41 -33 31 -32 40 4 40 19 0 35 8 45 22 13 18 13 25
1 55 -15 36 -11 39 31 23 34 -13 74 10 74 44 0 34 11 38 32 11 11 -15 30 -25
44 -25z"/>
<path d="M900 1215 c0 -4 7 -31 16 -61 15 -52 15 -58 -5 -116 -27 -79 -26 -88
3 -88 20 0 27 8 39 43 l14 42 13 -42 c11 -37 17 -43 42 -43 34 0 34 8 8 85
-21 61 -20 70 18 173 2 7 -5 12 -21 12 -21 0 -28 -7 -38 -37 l-12 -38 -12 35
c-9 27 -18 36 -38 38 -15 2 -27 0 -27 -3z"/>
<path d="M1070 1085 l0 -135 25 0 25 0 0 135 0 135 -25 0 -25 0 0 -135z"/>
<path d="M570 1120 l-25 -7 25 -6 c14 -3 45 -5 69 -5 41 0 43 2 26 14 -20 15
-55 17 -95 4z"/>
<path d="M1366 1117 c-16 -12 -10 -13 40 -12 76 3 85 5 54 15 -39 12 -74 11
-94 -3z"/>
<path d="M545 688 l-68 -102 29 -23 c32 -25 30 -26 67 31 11 16 17 17 34 7 51
-27 103 1 119 62 6 25 1 34 -46 78 -29 27 -56 49 -60 49 -4 0 -37 -46 -75
-102z m102 -13 c-4 -8 -11 -15 -17 -15 -7 0 -7 6 0 21 13 23 26 19 17 -6z"/>
<path d="M1395 770 c-11 -4 -37 -25 -57 -47 l-37 -38 74 -90 c40 -49 78 -91
83 -93 14 -4 102 95 102 116 0 25 -35 69 -60 77 -11 4 -20 15 -20 25 0 10 -12
28 -26 39 -29 23 -30 23 -59 11z m20 -81 c11 -17 -1 -21 -15 -4 -8 9 -8 15 -2
15 6 0 14 -5 17 -11z m65 -79 c0 -11 -2 -20 -5 -20 -2 0 -9 9 -15 20 -9 16 -8
20 5 20 8 0 15 -9 15 -20z"/>
<path d="M711 584 c-46 -127 -40 -158 37 -185 51 -17 75 5 113 106 18 47 34
83 37 81 2 -3 -2 -55 -8 -116 -7 -61 -11 -113 -8 -115 2 -3 19 -8 36 -11 l32
-6 0 43 c0 32 3 40 10 29 5 -8 10 -27 10 -41 0 -28 16 -39 55 -39 25 0 35 17
35 58 0 26 0 26 18 -7 9 -19 26 -37 37 -41 31 -10 83 8 101 35 14 22 14 32 -7
131 l-23 106 -34 -6 c-19 -3 -36 -7 -38 -9 -2 -2 5 -40 16 -86 11 -45 20 -90
20 -99 -1 -15 -2 -15 -11 1 -8 14 -18 16 -45 11 -33 -6 -35 -5 -29 17 3 13 6
51 8 84 l2 60 -31 3 c-27 3 -31 -1 -41 -35 l-10 -38 -2 37 c-1 42 -4 45 -51
49 -19 2 -40 6 -45 10 -6 4 -22 12 -37 18 -26 10 -26 9 -58 -80 -18 -49 -36
-89 -41 -89 -14 0 -11 13 21 97 17 42 30 80 30 84 0 6 -46 29 -60 29 -4 0 -22
-38 -39 -86z"/>
<path d="M1238 650 c-25 -14 -35 -25 -32 -37 36 -154 54 -227 58 -230 3 -3 18
3 35 13 23 14 29 23 25 37 -9 27 16 40 38 20 16 -14 20 -14 48 4 l31 20 -81
96 c-44 54 -82 97 -83 97 -1 -1 -18 -10 -39 -20z m66 -116 c3 -8 2 -12 -4 -9
-6 3 -10 10 -10 16 0 14 7 11 14 -7z"/>
<path d="M340 1290 c-24 -15 2 -32 41 -27 30 4 32 5 12 12 -13 4 -20 11 -17
16 7 12 -17 11 -36 -1z"/>
<path d="M1660 1291 c0 -5 -10 -12 -22 -16 -21 -7 -20 -8 11 -12 39 -5 65 12
41 27 -19 12 -30 13 -30 1z"/>
</g>
</svg>
