<?xml version="1.0" standalone="no"?>
<!DOCTYPE svg PUBLIC "-//W3C//DTD SVG 20010904//EN"
 "http://www.w3.org/TR/2001/REC-SVG-20010904/DTD/svg10.dtd">
<svg version="1.0" xmlns="http://www.w3.org/2000/svg"
 width="200.000000pt" height="100.000000pt" viewBox="0 0 200.000000 100.000000"
 preserveAspectRatio="xMidYMid meet">

<g transform="translate(0.000000,100.000000) scale(0.100000,-0.100000)"
fill="#000000" stroke="none">
<path d="M735 926 c-27 -14 -47 -25 -44 -25 9 -1 99 39 99 44 0 7 -1 7 -55
-19z"/>
<path d="M630 880 c-19 -11 -30 -19 -25 -19 6 0 26 8 45 19 19 11 31 19 25 19
-5 0 -26 -8 -45 -19z"/>
<path d="M550 845 c-14 -8 -20 -14 -15 -14 6 0 21 6 35 14 14 8 21 14 15 14
-5 0 -21 -6 -35 -14z"/>
<path d="M402 824 c-7 -8 -8 -14 -3 -14 10 0 25 19 20 25 -2 1 -10 -3 -17 -11z"/>
<path d="M474 812 c-18 -13 -17 -14 6 -7 22 7 23 6 11 -9 -13 -15 -12 -42 4
-78 5 -12 3 -18 -7 -18 -18 0 -38 41 -38 75 0 25 -18 33 -35 16 -6 -5 -59 -30
-120 -56 -168 -71 -201 -88 -187 -92 7 -3 36 8 65 23 28 15 96 46 150 70 l97
42 6 -27 c14 -63 22 -76 50 -86 16 -5 37 -20 48 -33 10 -13 27 -27 37 -30 13
-5 16 -11 9 -22 -8 -12 -13 -11 -33 8 -28 26 -37 28 -37 6 0 -9 -5 -12 -12 -8
-7 4 -8 3 -4 -5 6 -9 11 -9 21 -1 8 7 16 7 19 2 8 -13 -19 -23 -39 -16 -14 6
-19 18 -16 37 1 5 -8 5 -20 2 -15 -5 -19 -4 -14 5 6 9 3 9 -13 1 -11 -6 -23
-11 -26 -11 -9 0 -2 24 9 32 6 5 -5 5 -22 2 -21 -4 -33 -3 -33 4 0 7 -7 9 -17
5 -11 -4 -14 -3 -9 5 5 9 1 9 -18 2 -21 -8 -24 -7 -19 8 4 13 0 11 -16 -5 -24
-26 -40 -31 -21 -8 11 13 10 14 -4 9 -9 -3 -16 -11 -16 -16 0 -6 -7 -8 -15 -4
-8 3 -15 0 -15 -6 0 -6 -8 -20 -17 -30 -15 -17 -15 -21 -3 -30 13 -8 13 -9 -1
-5 -21 7 -79 -40 -79 -63 0 -13 5 -17 15 -14 11 5 13 2 9 -10 -8 -21 29 -22
50 -1 15 16 41 21 32 6 -3 -4 6 -6 19 -3 14 2 22 8 19 13 -3 5 4 9 16 9 12 0
19 -4 16 -9 -4 -5 7 -12 23 -16 37 -8 71 -44 81 -87 4 -18 11 -41 15 -50 6
-15 1 -18 -30 -18 -20 0 -45 -4 -55 -10 -27 -15 -12 -62 23 -71 14 -4 38 -16
52 -27 19 -15 35 -19 64 -15 23 3 41 1 45 -6 4 -6 19 -11 34 -11 19 0 23 -3
13 -9 -7 -5 -10 -14 -7 -20 9 -14 46 -15 46 -1 0 6 8 5 19 -2 19 -12 19 -13
-4 -34 -13 -12 -30 -24 -37 -27 -10 -4 -10 -8 2 -16 17 -12 51 -15 49 -3 -3
20 2 32 16 32 8 0 28 14 43 31 19 21 38 32 58 33 27 1 29 3 27 38 -2 35 0 38
25 39 l27 1 -25 8 c-24 8 -24 8 -2 9 12 1 22 6 22 12 0 8 5 7 15 -1 21 -17
277 -18 283 -1 4 13 32 15 32 2 0 -12 103 -22 114 -11 7 7 0 10 -18 10 -23 0
-26 3 -17 14 9 11 8 14 -5 12 -9 0 -19 5 -21 12 -4 9 12 11 64 8 37 -2 49 -1
26 1 -24 2 -43 9 -43 15 0 7 17 9 48 5 26 -3 56 -2 67 3 14 6 -4 9 -55 9 -41
1 -82 6 -90 12 -11 7 5 8 51 3 42 -4 74 -2 85 5 15 8 7 10 -41 11 -39 0 -55 3
-46 9 11 7 10 10 -5 14 -10 2 -2 5 19 6 32 1 37 4 37 25 l0 24 28 -28 c33 -32
80 -34 112 -5 18 16 20 17 20 2 0 -12 9 -17 29 -17 25 0 30 5 33 28 l4 27 11
-26 c11 -25 16 -27 75 -27 89 0 99 7 96 71 -3 44 -7 53 -30 66 -22 13 -33 14
-59 4 -21 -8 -38 -9 -50 -3 -29 16 -109 12 -110 -5 -1 -8 -2 -21 -3 -27 -1 -7
-5 -16 -11 -20 -6 -5 -4 -8 5 -8 11 -1 10 -4 -4 -15 -11 -8 -14 -15 -8 -15 7
0 5 -7 -5 -18 -10 -10 -21 -14 -24 -9 -4 5 -12 1 -18 -9 -6 -11 -11 -13 -11
-7 0 7 -3 12 -7 11 -5 -2 -19 5 -33 15 -15 11 -19 17 -10 17 11 1 10 4 -4 15
-14 11 -16 15 -5 15 11 0 11 2 2 8 -10 6 -10 12 3 28 8 10 13 12 9 4 -4 -8 2
-4 13 9 15 18 21 21 25 10 5 -12 6 -12 6 0 1 11 5 10 16 -5 11 -14 15 -16 15
-4 0 12 3 11 11 -3 6 -9 14 -15 20 -12 16 11 10 22 -19 34 -35 14 -73 11 -98
-9 -11 -9 -15 -10 -10 -2 6 11 -18 18 -47 13 -5 -1 -6 3 -2 9 3 5 16 10 28 10
16 0 18 3 8 9 -9 6 -10 11 -2 15 6 4 8 12 5 18 -4 6 -3 9 2 6 5 -3 20 -1 34 4
23 8 23 10 7 19 -9 6 -36 11 -58 11 -27 0 -37 3 -28 9 9 6 -3 9 -33 9 -34 0
-48 4 -48 14 0 10 -21 15 -82 19 -46 3 -119 12 -163 21 -83 16 -271 21 -292 8
-6 -4 -31 -6 -55 -4 -34 3 -46 9 -54 27 -10 20 -9 25 5 28 10 3 7 5 -8 6 -15
1 -21 6 -18 14 7 18 -16 17 -39 -1z m323 -78 c-3 -3 -12 -4 -19 -1 -8 3 -5 6
6 6 11 1 17 -2 13 -5z m3 -49 c19 -23 7 -49 -28 -60 -21 -6 -32 -15 -32 -28 0
-10 -5 -17 -12 -15 -8 3 -14 27 -16 61 l-3 57 39 0 c22 0 45 -6 52 -15z m56
-27 c2 -44 10 -59 29 -51 10 3 15 20 15 49 0 34 4 44 16 44 14 0 16 -9 12 -51
-5 -53 -18 -69 -53 -69 -33 0 -45 20 -45 73 0 58 24 62 26 5z m144 10 l20 -33
0 33 c0 22 5 32 15 32 12 0 15 -13 15 -60 0 -70 -18 -81 -47 -27 l-18 32 -3
-32 c-2 -21 -9 -33 -18 -33 -11 0 -14 15 -14 60 0 70 18 80 50 28z m170 17 c0
-10 -10 -15 -30 -15 -16 0 -30 -4 -30 -10 0 -5 11 -10 25 -10 14 0 25 -4 25
-10 0 -5 -11 -10 -25 -10 -16 0 -25 -6 -25 -15 0 -10 10 -15 30 -15 17 0 30
-4 30 -10 0 -5 -20 -10 -45 -10 l-45 0 0 60 0 60 45 0 c33 0 45 -4 45 -15z
m-356 -84 c4 -5 -3 -7 -14 -4 -23 6 -26 13 -6 13 8 0 17 -4 20 -9z m-437 -7
c-3 -3 -12 -4 -19 -1 -8 3 -5 6 6 6 11 1 17 -2 13 -5z m363 -24 c25 0 30 -4
30 -22 -1 -21 -2 -21 -11 -5 -6 10 -22 17 -38 17 -16 0 -36 9 -47 22 l-19 22
27 -17 c15 -9 41 -17 58 -17z m105 -8 c-3 -3 -11 0 -18 7 -9 10 -8 11 6 5 10
-3 15 -9 12 -12z m375 8 c-18 -12 -30 -13 -30 -2 0 4 10 9 22 9 18 2 20 0 8
-7z m-325 -46 c-15 -50 -32 -75 -21 -32 9 38 25 78 30 78 3 0 -1 -21 -9 -46z
m-351 27 c3 -5 0 -14 -8 -20 -10 -8 -16 -8 -25 3 -9 11 -9 15 1 19 20 8 26 8
32 -2z m51 -21 c10 -11 16 -20 13 -20 -3 0 -13 9 -23 20 -10 11 -16 20 -13 20
3 0 13 -9 23 -20z m155 -7 c0 -16 5 -35 10 -43 8 -12 10 -9 10 12 0 65 32 79
48 21 l10 -38 7 33 c7 32 21 49 32 39 2 -3 -1 -31 -8 -61 -9 -42 -17 -56 -29
-56 -12 0 -20 12 -25 38 l-8 37 -10 -37 c-16 -66 -46 -44 -62 46 -6 29 -4 36
9 36 11 0 16 -9 16 -27z m215 -13 c27 -77 27 -80 11 -80 -9 0 -16 5 -16 10 0
6 -11 10 -25 10 -14 0 -25 -4 -25 -10 0 -5 -7 -10 -16 -10 -18 0 -15 20 11 84
20 46 43 45 60 -4z m29 24 c3 -9 6 -28 5 -42 l-1 -27 -13 30 c-8 17 -14 36
-15 43 0 17 17 15 24 -4z m103 4 c16 -21 14 -108 -3 -108 -8 0 -14 9 -14 20 0
13 -7 20 -20 20 -13 0 -20 -7 -20 -20 0 -11 -7 -20 -15 -20 -12 0 -15 13 -15
60 l0 60 39 0 c21 0 43 -6 48 -12z m129 -2 c16 -13 17 -18 7 -35 -8 -13 -9
-22 -3 -26 15 -9 12 -45 -4 -45 -7 0 -16 9 -19 20 -3 11 -12 20 -21 20 -9 0
-16 -8 -16 -20 0 -13 -7 -20 -20 -20 -17 0 -20 7 -20 53 0 30 3 57 7 60 12 12
69 7 89 -7z m64 -46 c0 -47 -3 -60 -15 -60 -12 0 -15 13 -15 60 0 47 3 60 15
60 12 0 15 -13 15 -60z m263 51 c22 -9 25 -16 25 -60 0 -35 -4 -51 -13 -51 -7
0 -15 9 -18 20 -3 11 -12 20 -21 20 -9 0 -16 -8 -16 -20 0 -11 -7 -20 -15 -20
-12 0 -15 13 -15 60 0 57 1 60 24 60 14 0 36 -4 49 -9z m133 -12 l19 -21 -38
7 c-47 9 -48 0 -2 -19 43 -18 47 -51 10 -68 -27 -12 -75 2 -75 22 0 13 23 13
37 -1 11 -11 33 -5 33 9 0 4 -13 13 -30 19 -38 14 -49 41 -25 59 27 20 49 17
71 -7z m-1026 -54 c19 -19 32 -35 29 -35 -3 0 -20 16 -39 35 -19 19 -32 35
-29 35 3 0 20 -16 39 -35z m-215 5 c-11 -5 -38 -8 -60 -8 l-40 1 40 7 c22 4
49 7 60 8 l20 1 -20 -9z m625 -36 c0 -8 -4 -12 -10 -9 -5 3 -10 10 -10 16 0 5
5 9 10 9 6 0 10 -7 10 -16z m130 -15 c0 -10 -4 -19 -10 -19 -5 0 -10 12 -10
26 0 14 4 23 10 19 6 -3 10 -15 10 -26z m-460 -89 c0 -47 -3 -60 -15 -60 -12
0 -15 13 -15 60 0 47 3 60 15 60 12 0 15 -13 15 -60z m69 29 l19 -32 4 28 c2
16 9 30 16 33 9 3 12 -13 12 -57 0 -71 -18 -82 -47 -28 l-18 32 -3 -32 c-2
-21 -9 -33 -18 -33 -11 0 -14 15 -14 60 0 70 18 80 49 29z m165 15 c18 -18 21
-56 6 -85 -8 -14 -21 -19 -55 -19 l-45 0 0 60 0 60 39 0 c23 0 46 -7 55 -16z
m66 -44 c0 -47 -3 -60 -15 -60 -12 0 -15 13 -15 60 0 47 3 60 15 60 12 0 15
-13 15 -60z m109 9 c25 -61 26 -69 6 -69 -8 0 -15 5 -15 10 0 6 -11 10 -25 10
-14 0 -25 -4 -25 -10 0 -5 -7 -10 -16 -10 -18 0 -15 25 11 87 20 47 39 41 64
-18z m-468 -74 c30 -67 20 -85 -45 -85 -29 0 -67 5 -85 11 -30 11 -32 14 -29
53 2 34 7 42 26 44 22 3 30 -12 12 -23 -19 -11 -10 -23 13 -17 28 7 50 29 42
41 -3 5 5 12 17 14 13 2 24 5 26 6 2 0 12 -19 23 -44z m-266 -9 c46 -10 61
-17 63 -32 3 -15 1 -17 -9 -7 -8 8 -17 9 -24 3 -12 -10 -105 27 -105 42 0 10
1 10 75 -6z m575 4 c0 -5 -8 -10 -17 -10 -15 0 -16 2 -3 10 19 12 20 12 20 0z
m-330 -104 c0 -3 -4 -8 -10 -11 -5 -3 -10 -1 -10 4 0 6 5 11 10 11 6 0 10 -2
10 -4z"/>
<path d="M740 660 c0 -15 5 -20 18 -18 9 2 17 10 17 18 0 8 -8 16 -17 18 -13
2 -18 -3 -18 -18z"/>
<path d="M927 495 c-8 -20 -4 -29 11 -24 5 2 6 13 2 23 -6 19 -7 19 -13 1z"/>
<path d="M1040 504 c0 -9 7 -14 17 -12 25 5 28 28 4 28 -12 0 -21 -6 -21 -16z"/>
<path d="M1170 504 c0 -9 7 -14 17 -12 25 5 28 28 4 28 -12 0 -21 -6 -21 -16z"/>
<path d="M1510 505 c0 -8 9 -15 20 -15 11 0 20 7 20 15 0 8 -9 15 -20 15 -11
0 -20 -7 -20 -15z"/>
<path d="M920 335 c0 -37 10 -44 30 -20 14 17 4 55 -16 55 -9 0 -14 -11 -14
-35z"/>
<path d="M1107 345 c-8 -20 -4 -29 11 -24 5 2 6 13 2 23 -6 19 -7 19 -13 1z"/>
<path d="M1720 540 c13 -23 62 -27 99 -6 22 12 21 13 -24 19 -80 11 -87 10
-75 -13z"/>
<path d="M1730 500 c0 -20 32 -23 63 -7 l32 16 -47 0 c-27 1 -48 -4 -48 -9z
m47 -6 c-3 -3 -12 -4 -19 -1 -8 3 -5 6 6 6 11 1 17 -2 13 -5z"/>
<path d="M1258 243 c7 -3 16 -2 19 1 4 3 -2 6 -13 5 -11 0 -14 -3 -6 -6z"/>
</g>
</svg>
