<?xml version="1.0" standalone="no"?>
<!DOCTYPE svg PUBLIC "-//W3C//DTD SVG 20010904//EN"
 "http://www.w3.org/TR/2001/REC-SVG-20010904/DTD/svg10.dtd">
<svg version="1.0" xmlns="http://www.w3.org/2000/svg"
 width="194.000000pt" height="259.000000pt" viewBox="0 0 194.000000 259.000000"
 preserveAspectRatio="xMidYMid meet">

<g transform="translate(0.000000,259.000000) scale(0.100000,-0.100000)"
fill="#000000" stroke="none">
<path d="M0 1295 l0 -1295 970 0 970 0 0 1295 0 1295 -970 0 -970 0 0 -1295z
m931 1113 c11 -11 19 -27 19 -35 0 -16 37 -18 42 -1 3 8 9 8 24 0 17 -10 17
-11 2 -12 -10 0 -18 -5 -18 -11 0 -5 4 -8 9 -4 19 11 23 -17 5 -30 -16 -12
-17 -16 -5 -27 11 -10 14 -10 18 0 9 24 34 42 59 42 15 0 23 -4 19 -10 -4 -6
-11 -8 -16 -5 -5 3 -6 -1 -3 -9 3 -9 -5 -25 -20 -39 -14 -13 -26 -28 -26 -33
0 -5 -58 -9 -130 -9 -95 0 -130 3 -130 12 0 7 -9 17 -19 23 -11 5 -26 23 -34
39 -14 28 -13 29 8 33 22 5 31 -2 55 -42 8 -12 11 -13 22 -2 11 11 10 16 -6
27 -19 14 -13 40 7 29 7 -3 4 1 -6 9 -18 15 -18 15 0 19 22 4 65 -32 45 -39
-16 -6 -5 -23 15 -23 11 0 13 5 8 18 -14 33 -11 56 9 78 26 28 25 28 47 2z
m-179 -213 c24 -16 39 -21 43 -14 30 48 200 38 244 -14 6 -9 34 -18 62 -22 52
-7 66 -29 34 -55 -8 -7 -15 -24 -15 -39 0 -26 -20 -69 -20 -43 0 7 -19 22 -42
33 -24 11 -35 17 -25 15 16 -5 16 -4 1 19 -12 19 -22 23 -39 19 -13 -3 -38 2
-56 12 -34 17 -34 17 -16 -3 9 -11 17 -30 17 -42 l0 -23 18 22 c15 19 22 21
38 12 18 -11 17 -12 -5 -9 -26 2 -32 -12 -44 -95 -5 -35 -4 -38 30 -49 19 -6
50 -9 69 -6 37 6 39 5 24 -24 -9 -15 -22 -19 -63 -19 -29 0 -58 -5 -65 -12 -8
-8 -12 -8 -12 -1 0 16 25 23 81 23 27 0 49 3 49 8 0 4 -31 7 -69 7 l-69 -1
-11 38 c-7 20 -9 49 -6 63 3 14 7 37 10 53 l5 27 -20 -24 c-11 -13 -20 -36
-20 -52 0 -15 -4 -31 -10 -34 -15 -9 -12 -62 4 -68 11 -4 16 3 19 26 3 29 4
28 6 -8 2 -63 8 -67 114 -71 83 -3 98 -1 120 16 33 26 40 25 31 -2 -8 -28 -33
-58 -48 -58 -6 0 0 10 14 21 21 17 22 19 3 10 -20 -10 -65 -19 -105 -20 -22
-1 -24 -21 -2 -21 8 0 12 -4 9 -10 -10 -16 59 -12 130 7 52 14 67 14 93 4 17
-7 33 -19 36 -27 4 -12 0 -11 -26 2 -27 14 -37 14 -72 4 -23 -7 -72 -15 -111
-19 -67 -6 -70 -7 -73 -33 -2 -14 9 -50 23 -78 15 -29 24 -55 21 -58 -4 -3
-23 14 -44 38 -83 98 -81 96 -92 80 -6 -9 -10 -10 -10 -3 0 6 4 14 10 18 5 3
6 13 3 22 -5 13 -8 12 -15 -6 -10 -27 -2 -59 29 -126 12 -27 23 -59 23 -70 -1
-19 -1 -19 -19 3 -20 23 -38 31 -25 10 4 -7 3 -8 -5 -4 -6 4 -9 12 -6 17 3 5
-6 24 -22 44 -27 34 -28 34 -39 13 -8 -14 -9 -32 -2 -55 5 -18 8 -52 6 -75
l-3 -42 -35 55 c-28 44 -34 64 -35 107 0 52 0 53 -17 31 -26 -31 -23 -88 6
-130 48 -70 42 -125 -14 -154 -41 -21 -50 -16 -33 20 10 21 13 23 9 8 -5 -29
10 -30 25 -2 13 26 5 75 -20 113 -18 26 -19 27 -25 8 -9 -28 -63 -53 -93 -41
-13 5 -23 6 -23 4 0 -16 56 -25 83 -14 31 13 47 2 46 -31 0 -8 -5 -4 -10 9 -7
17 -14 21 -27 16 -39 -16 -53 -17 -77 -1 -32 21 -32 32 3 48 18 9 28 22 30 40
3 27 2 27 -28 17 -23 -8 -34 -8 -45 1 -20 17 -19 24 8 35 19 9 22 19 25 80 2
38 7 75 13 81 7 8 6 14 -3 17 -9 4 -7 6 4 6 9 1 20 6 23 11 4 6 -12 3 -35 -6
-38 -16 -43 -16 -58 0 -15 15 -15 16 5 16 26 0 53 35 53 69 0 13 9 39 21 57
19 32 20 34 2 34 -20 0 -84 39 -68 41 6 1 20 0 32 -1 35 -2 59 16 87 66 22 39
23 48 12 59 -7 8 -17 30 -20 49 -4 20 -14 40 -24 45 -13 8 -7 10 28 11 32 0
56 -7 82 -25z m909 -20 c1 -5 -14 -17 -32 -27 -19 -9 -40 -22 -47 -29 -11 -9
-13 -8 -10 7 2 12 13 20 30 22 24 3 63 33 42 32 -28 -2 -79 -37 -79 -55 0 -20
2 -21 65 -9 27 5 71 -14 78 -33 2 -7 -4 -13 -13 -13 -9 0 -28 -9 -42 -20 -14
-11 -36 -20 -49 -20 -28 0 -53 -37 -31 -45 7 -3 34 -7 60 -8 26 -1 47 -5 47
-8 0 -3 -10 -21 -23 -40 -20 -30 -28 -34 -67 -35 -25 -1 -34 0 -20 2 58 10 67
15 79 40 l12 26 -32 -26 c-24 -20 -41 -26 -65 -24 -18 2 -33 -1 -33 -5 0 -4
-7 -14 -15 -22 -8 -8 -17 -38 -21 -67 -10 -74 -23 -107 -35 -88 -6 8 -10 20
-10 25 0 6 5 3 10 -5 5 -8 10 -10 10 -5 1 29 21 162 26 178 4 12 2 17 -4 13
-16 -10 -41 -94 -48 -161 -9 -86 -19 -95 -49 -47 l-18 27 21 -19 c24 -21 28
-16 12 15 -7 12 -21 19 -38 19 -22 0 -24 -2 -12 -11 13 -9 13 -10 0 -6 -8 2
-15 11 -15 21 0 9 -10 25 -23 34 l-22 17 70 85 c55 66 75 99 91 153 16 49 31
76 56 98 31 27 41 30 89 27 30 -2 55 -7 55 -13z m-1257 -75 c-1 -19 -4 -59 -9
-87 -9 -63 3 -69 27 -13 13 31 27 45 60 60 48 21 59 19 34 -9 -26 -28 -30 -87
-12 -157 9 -34 16 -90 16 -123 0 -61 -24 -190 -42 -223 -7 -14 -5 -18 10 -18
24 0 49 -20 57 -47 6 -21 3 -23 -38 -23 -38 0 -49 -5 -71 -31 -14 -17 -26 -34
-26 -37 0 -4 -4 -35 -9 -69 -11 -75 -1 -122 31 -142 13 -8 57 -17 98 -20 l74
-6 8 -39 c6 -29 5 -42 -4 -48 -18 -11 -126 -10 -133 2 -3 5 -13 6 -22 3 -11
-4 -14 -3 -9 6 5 8 3 12 -5 10 -27 -3 -40 1 -34 11 3 6 -1 10 -9 10 -22 0 -47
43 -56 93 -8 42 -8 42 9 17 9 -14 25 -34 37 -46 11 -11 18 -26 17 -31 -6 -18
80 -53 129 -53 43 0 46 2 44 25 -1 23 -4 25 -56 25 -71 0 -98 15 -135 73 -30
48 -61 65 -92 52 -17 -7 -16 -8 2 -14 17 -7 16 -8 -8 -13 -18 -4 -27 -1 -27 8
0 26 38 50 72 45 3 0 11 14 17 31 9 25 8 36 -5 55 -8 13 -22 27 -30 30 -17 6
-44 -14 -44 -34 0 -11 4 -11 21 -3 31 17 30 8 -1 -17 l-27 -22 -1 37 c-3 69
53 107 98 67 16 -15 19 -10 39 63 47 176 34 264 -41 270 -37 3 -69 -17 -80
-49 -7 -22 -36 7 -46 45 -12 43 4 82 38 96 l29 12 -20 31 c-21 36 -25 88 -7
120 6 12 26 40 44 62 18 22 38 54 44 69 l11 29 16 -24 c10 -13 17 -39 17 -59z
m648 -106 c17 -9 40 -13 51 -10 20 5 20 5 -1 -16 -19 -19 -25 -20 -60 -10 -22
7 -49 12 -61 12 -19 0 -20 3 -11 20 13 24 40 25 82 4z m-447 -57 c19 -4 19 -5
-1 -6 -12 0 -28 7 -35 17 -12 15 -12 16 1 6 8 -7 24 -14 35 -17z m488 -144
c-7 -2 -21 -2 -30 0 -10 3 -4 5 12 5 17 0 24 -2 18 -5z m267 -92 c14 -10 38
-37 54 -60 16 -24 42 -49 57 -55 22 -9 26 -15 17 -24 -19 -19 -63 -14 -84 11
-19 22 -19 22 2 5 11 -10 34 -18 50 -17 l29 1 -28 8 c-31 9 -48 28 -72 75 -21
42 -63 65 -122 66 -47 2 -47 2 -13 9 44 10 78 4 110 -19z m-395 -58 c12 -10
31 -24 41 -31 11 -7 5 -6 -13 3 -43 20 -63 42 -62 68 l2 22 4 -22 c2 -13 15
-31 28 -40z m322 18 c47 -24 73 -63 73 -113 0 -18 7 -45 14 -60 17 -32 2 -39
-21 -10 -8 9 -12 11 -8 5 10 -20 0 -15 -21 9 -15 18 -16 20 -2 9 17 -12 18
-10 12 35 -10 84 -63 133 -127 118 l-32 -8 41 -8 c48 -10 70 -31 78 -73 6 -29
6 -29 -7 4 -7 18 -24 39 -37 47 -38 20 -43 17 -20 -14 21 -28 62 -143 54 -151
-3 -3 -15 6 -27 18 -12 13 -16 20 -8 16 10 -6 12 -4 7 4 -5 7 -14 10 -22 7 -7
-3 -16 -1 -19 5 -4 5 -3 8 2 7 36 -12 -51 119 -98 146 l-33 19 24 -39 c13 -21
39 -59 59 -84 19 -25 25 -37 13 -26 -11 10 -44 52 -73 94 l-52 75 94 -5 c69
-4 105 -11 136 -27z m38 19 c3 -6 -1 -7 -9 -4 -18 7 -21 14 -7 14 6 0 13 -4
16 -10z m46 -35 c3 2 5 -5 5 -15 0 -25 0 -25 -22 8 -13 19 -13 24 -2 15 8 -7
17 -11 19 -8z m-501 -60 c0 -5 -5 -3 -10 5 -5 8 -10 20 -10 25 0 6 5 3 10 -5
5 -8 10 -19 10 -25z m188 -51 l42 -36 0 39 0 38 24 -36 c14 -20 35 -43 49 -52
13 -8 67 -52 121 -96 60 -50 106 -81 121 -81 15 0 36 16 63 47 37 45 42 47 92
47 34 1 55 -4 57 -11 3 -7 -3 -13 -11 -13 -9 0 -19 -8 -23 -17 -3 -10 -15 -28
-26 -40 l-20 -23 41 0 c37 0 45 -4 62 -32 23 -38 28 -76 8 -61 -7 5 -40 10
-73 11 l-60 2 33 -20 c27 -17 32 -26 32 -57 0 -21 -5 -45 -11 -53 -8 -12 -9
-10 -4 9 5 15 3 21 -3 17 -6 -3 -8 1 -5 12 3 12 -7 25 -34 42 -34 23 -45 25
-108 20 l-70 -6 45 -22 c25 -12 40 -22 33 -22 -23 0 -61 19 -88 44 -34 31 -36
31 -110 6 -80 -28 -86 -27 -73 11 11 33 5 47 -14 32 -7 -6 -22 -13 -33 -17
-18 -5 -20 -2 -16 46 l3 51 -27 -21 c-39 -31 -56 -29 -49 7 7 33 -8 66 -36 81
-20 10 -20 10 -3 -25 14 -29 15 -43 6 -76 l-11 -41 32 5 c17 2 39 7 49 12 24
10 22 -10 -5 -36 -13 -12 -17 -19 -10 -14 11 6 11 3 0 -15 -7 -12 -41 -37 -75
-56 -34 -19 -65 -43 -68 -53 -3 -10 7 -43 24 -75 26 -49 29 -60 19 -89 -6 -17
-15 -36 -19 -41 -5 -6 -9 -23 -9 -38 0 -17 -5 -28 -14 -28 -16 0 -26 21 -26
58 0 21 -2 24 -10 12 -5 -8 -10 -26 -11 -40 -1 -17 -3 -19 -6 -7 -5 20 -19 23
-25 5 -5 -15 -86 19 -126 52 l-24 20 20 27 c27 38 44 106 42 162 -4 73 -3 77
51 138 58 66 83 109 73 125 -5 7 -3 8 6 3 7 -5 11 -4 7 1 -3 5 1 18 10 29 13
19 14 18 7 -10 -3 -16 -15 -45 -25 -63 -11 -19 -16 -38 -13 -44 4 -6 2 -8 -4
-4 -6 3 -20 -6 -31 -21 -12 -16 -32 -40 -46 -56 -22 -24 -25 -37 -25 -105 0
-54 -6 -89 -20 -119 -18 -40 -18 -42 -1 -31 28 17 52 63 67 130 13 53 23 70
79 130 36 37 66 73 66 78 1 6 2 14 3 19 0 5 4 13 9 17 20 20 -2 122 -35 161
-9 11 -15 3 -28 -38 -10 -28 -23 -55 -30 -59 -7 -4 -10 -12 -6 -18 4 -6 -26
-37 -65 -69 -93 -75 -109 -108 -102 -213 5 -61 2 -84 -12 -114 -16 -34 -20
-37 -31 -22 -8 11 -9 27 -5 44 5 15 6 65 4 112 -5 106 4 123 115 211 93 74
120 109 130 169 l7 44 43 -41 44 -41 15 36 c8 19 13 48 11 64 -3 15 -2 28 2
28 3 0 25 -16 48 -36z m-708 -189 c0 -5 -5 -3 -10 5 -5 8 -10 20 -10 25 0 6 5
3 10 -5 5 -8 10 -19 10 -25z m1120 -185 c0 -5 -5 -10 -11 -10 -5 0 -7 5 -4 10
3 6 8 10 11 10 2 0 4 -4 4 -10z m30 -5 c0 -9 10 -20 23 -25 17 -8 17 -9 3 -7
-21 2 -56 47 -37 47 6 0 11 -7 11 -15z m-363 -32 c41 -67 99 -113 143 -113 11
0 20 -2 20 -5 0 -13 -33 -54 -48 -60 -9 -3 -13 -3 -9 1 6 6 -61 43 -88 47 -5
1 -35 27 -66 58 -55 56 -56 57 -87 43 -42 -17 -41 -40 3 -92 35 -40 96 -71
184 -92 20 -4 27 -8 15 -9 -11 -1 -48 8 -83 20 -34 12 -64 19 -67 16 -3 -2 -2
-16 1 -30 6 -24 12 -26 63 -29 57 -3 57 -3 32 -20 -14 -9 -53 -20 -87 -24
l-63 -7 0 67 c0 47 -7 83 -22 118 -16 37 -19 55 -11 67 8 13 120 68 145 70 4
1 15 -11 25 -26z m-614 -10 c-7 -2 -21 -2 -30 0 -10 3 -4 5 12 5 17 0 24 -2
18 -5z m971 -23 c5 -5 21 -10 34 -10 20 0 22 -4 16 -22 -55 -179 -164 -312
-319 -388 -120 -59 -281 -79 -406 -50 -136 31 -281 127 -365 241 -35 47 -100
186 -91 195 2 2 21 -5 43 -15 21 -10 64 -22 94 -26 52 -6 57 -10 90 -56 19
-28 61 -70 93 -94 181 -138 422 -122 583 39 56 56 114 153 114 189 0 12 11 14
52 11 28 -2 56 -8 62 -14z m-683 -556 c12 -14 11 -18 -2 -27 -15 -9 -15 -14 4
-46 11 -20 27 -42 36 -48 13 -12 13 -13 -1 -13 -20 0 -47 26 -59 57 -11 30
-29 30 -29 -2 0 -15 -6 -25 -14 -25 -10 0 -14 16 -15 60 l-1 60 34 0 c19 0 39
-7 47 -16z m104 -24 c22 -24 14 -65 -16 -80 -45 -25 -94 51 -57 88 18 18 53
14 73 -8z m50 0 c3 -11 10 -20 15 -20 5 0 12 9 15 20 3 11 11 20 17 20 6 0 3
-11 -6 -25 -9 -13 -16 -36 -16 -50 0 -16 -6 -25 -15 -25 -9 0 -15 9 -15 23 0
13 -7 32 -15 43 -18 24 -19 34 -1 34 8 0 18 -9 21 -20z m117 -78 c-8 -2 -18 2
-23 10 -7 10 -12 11 -29 0 -25 -15 -25 -15 1 44 l20 48 23 -49 c19 -42 20 -51
8 -53z m58 53 c0 -46 13 -58 39 -32 10 10 11 9 6 -5 -5 -12 -18 -18 -41 -18
l-34 0 0 50 c0 38 4 50 15 50 11 0 15 -12 15 -45z m-620 -97 c0 -21 0 -21 -14
-2 -22 28 -50 7 -54 -40 -4 -41 18 -57 49 -37 15 9 19 8 19 -3 0 -19 -39 -27
-64 -14 -27 14 -36 28 -36 57 0 36 28 61 67 61 27 0 33 -4 33 -22z m52 -23
c-3 -19 0 -25 13 -25 13 0 16 6 13 25 -4 19 -1 25 14 25 13 0 17 -6 15 -22 -2
-13 0 -36 3 -53 l7 -30 12 30 c7 17 18 41 23 55 10 24 11 24 33 -25 16 -35 19
-52 11 -57 -18 -12 -26 -9 -20 7 8 19 -22 20 -42 1 -18 -19 -54 -9 -54 15 0
11 -7 19 -15 19 -9 0 -15 -9 -15 -25 0 -17 -4 -23 -14 -19 -9 3 -15 24 -18 55
-3 44 -1 49 18 49 17 0 20 -5 16 -25z m200 -20 c-4 -47 9 -59 37 -32 11 10 13
9 9 -3 -3 -9 -19 -16 -39 -18 l-35 -3 -1 51 c-1 41 2 50 15 50 14 0 17 -8 14
-45z m88 0 c0 -46 13 -58 39 -32 10 10 11 9 6 -5 -4 -10 -12 -18 -19 -19 -6 0
-21 -2 -33 -3 -19 -2 -22 3 -25 51 -3 45 0 53 15 53 14 0 17 -9 17 -45z m125
28 c5 -15 4 -16 -6 -5 -20 19 -39 14 -39 -9 0 -15 5 -19 15 -15 8 3 15 1 15
-4 0 -6 -7 -10 -15 -10 -8 0 -15 -7 -15 -16 0 -12 7 -15 25 -12 14 3 25 1 25
-3 0 -5 -15 -9 -34 -9 -34 0 -34 0 -38 50 l-3 50 31 0 c21 0 34 -6 39 -17z
m73 -10 l23 -28 -4 28 c-2 16 0 27 7 27 7 0 10 -18 7 -52 l-3 -53 -35 40 -34
40 3 -41 c2 -23 -1 -41 -7 -41 -5 0 -10 24 -10 54 0 62 15 69 53 26z m136 12
c6 -18 -5 -20 -21 -4 -21 21 -45 2 -41 -33 3 -38 38 -55 38 -19 0 12 6 21 15
21 24 0 18 -39 -9 -51 -49 -23 -92 30 -62 76 19 29 70 35 80 10z m86 6 c0 -5
-9 -7 -21 -4 -17 5 -20 2 -17 -13 2 -10 10 -18 16 -16 7 1 12 -2 12 -8 0 -5
-7 -10 -15 -10 -8 0 -15 -7 -15 -16 0 -12 7 -15 25 -12 14 3 25 1 25 -3 0 -5
-15 -9 -34 -9 -34 0 -34 0 -38 50 l-3 50 33 0 c17 0 32 -4 32 -9z m97 -8 c4
-9 2 -18 -5 -21 -7 -2 -4 -15 8 -38 11 -19 16 -34 11 -34 -15 0 -41 30 -41 46
0 8 -5 12 -11 8 -6 -3 -9 -14 -6 -24 3 -11 -2 -20 -12 -23 -13 -3 -16 5 -16
50 l0 53 33 0 c21 0 35 -6 39 -17z m102 0 c0 -11 -3 -13 -6 -5 -6 14 -43 16
-43 2 0 -6 11 -15 24 -20 29 -11 38 -23 30 -43 -12 -33 -74 -31 -74 1 1 16 2
15 11 0 5 -10 17 -18 24 -18 24 0 17 26 -10 38 -23 11 -33 40 -18 55 3 4 19 7
35 7 20 0 28 -5 27 -17z"/>
<path d="M888 2373 c6 -3 12 -9 12 -14 0 -6 -4 -7 -10 -4 -5 3 -10 2 -10 -3 0
-6 7 -13 16 -16 9 -4 13 -2 8 5 -4 8 1 9 15 4 13 -4 21 -2 21 5 0 6 -4 8 -10
5 -5 -3 -10 -2 -10 4 0 5 6 11 13 14 6 2 -4 4 -23 4 -19 0 -29 -2 -22 -4z"/>
<path d="M946 2334 c-3 -9 -4 -20 0 -25 7 -12 -20 -11 -32 1 -8 8 -15 6 -24
-5 -11 -13 -8 -15 21 -15 19 0 43 -3 55 -6 14 -4 21 -1 21 9 0 10 -6 13 -16 9
-13 -5 -14 -3 -5 9 9 11 9 17 -1 26 -10 10 -14 9 -19 -3z"/>
<path d="M740 2298 c0 -9 5 -20 11 -23 17 -11 18 -2 3 19 -12 17 -14 17 -14 4z"/>
<path d="M830 2295 c0 -9 6 -12 15 -9 8 4 15 7 15 9 0 2 -7 5 -15 9 -9 3 -15
0 -15 -9z"/>
<path d="M1060 2285 c-7 -9 -8 -15 -2 -15 5 0 12 7 16 15 3 8 4 15 2 15 -2 0
-9 -7 -16 -15z"/>
<path d="M865 2271 c-15 -7 -4 -10 42 -10 34 -1 70 -4 80 -7 16 -5 16 -4 1 5
-23 16 -99 22 -123 12z"/>
<path d="M780 2260 c0 -5 5 -10 10 -10 6 0 10 5 10 10 0 6 -4 10 -10 10 -5 0
-10 -4 -10 -10z"/>
<path d="M1020 2259 c0 -5 5 -7 10 -4 6 3 10 8 10 11 0 2 -4 4 -10 4 -5 0 -10
-5 -10 -11z"/>
<path d="M801 2176 c-9 -10 -8 -16 4 -26 9 -7 15 -8 15 -2 0 6 3 17 6 26 8 20
-9 21 -25 2z"/>
<path d="M899 2179 c-13 -4 -17 -8 -9 -8 8 -1 26 -10 40 -21 42 -33 110 -21
80 14 -13 16 -77 24 -111 15z"/>
<path d="M690 2161 c0 -26 21 -41 57 -41 45 0 41 11 -12 36 -40 19 -45 19 -45
5z"/>
<path d="M1092 2111 c4 -21 34 -26 41 -8 4 10 -3 17 -19 20 -19 3 -24 1 -22
-12z"/>
<path d="M686 2052 l-17 -37 31 35 31 35 -31 -48 c-18 -27 -36 -45 -42 -41 -7
4 -8 2 -4 -4 4 -7 2 -12 -3 -12 -6 0 -11 -5 -11 -11 0 -7 9 -9 24 -5 l24 6
-18 -38 c-20 -40 -50 -132 -43 -132 2 0 13 5 25 11 28 15 31 8 13 -34 -19 -47
-19 -108 0 -155 l16 -36 29 51 c26 45 84 103 103 103 4 0 14 -14 22 -31 l16
-30 36 47 c32 41 38 45 48 30 17 -23 23 -20 18 9 -9 43 -26 46 -53 9 -26 -34
-41 -39 -48 -13 -3 11 -2 12 6 0 7 -9 11 0 17 34 6 41 4 51 -14 68 l-21 21
-22 -21 c-13 -11 -38 -28 -55 -37 -18 -9 -33 -18 -33 -19 0 -1 -4 -17 -9 -35
-8 -25 -7 -32 2 -29 7 3 11 10 9 16 -1 7 2 10 7 6 11 -6 91 43 91 56 0 5 5 9
10 9 6 0 9 -12 9 -27 -1 -19 -3 -22 -6 -10 -5 18 -6 18 -26 0 -12 -11 -41 -31
-64 -46 -41 -26 -42 -26 -48 -6 -4 12 5 44 24 85 36 76 36 78 15 70 -8 -3 -12
-2 -9 4 3 6 12 10 19 10 15 0 86 64 86 78 0 12 -102 -42 -120 -63 -7 -8 -10
-22 -6 -30 3 -9 0 -15 -9 -15 -12 0 -12 5 -4 28 6 15 18 36 28 47 10 11 27 34
37 50 l19 30 -27 -18 c-25 -16 -28 -16 -28 -1 0 9 8 28 19 42 l19 27 -33 2
c-28 1 -34 -3 -49 -35z"/>
<path d="M757 2052 c-21 -23 -22 -39 -2 -22 8 7 21 10 29 7 12 -5 26 11 26 29
0 12 -39 2 -53 -14z"/>
<path d="M1095 2041 c-3 -5 -1 -12 5 -16 5 -3 10 1 10 9 0 18 -6 21 -15 7z"/>
<path d="M793 1718 c-7 -8 -9 -19 -5 -23 4 -5 2 -5 -4 -2 -12 7 -41 -21 -70
-68 -17 -27 -14 -26 27 11 25 23 51 43 58 45 7 3 11 15 9 28 -3 21 -5 22 -15
9z"/>
<path d="M789 1649 c-16 -31 -5 -91 25 -135 31 -46 34 -27 6 35 -24 52 -25 74
-5 91 8 7 12 16 9 21 -9 15 -23 10 -35 -12z"/>
<path d="M625 1600 c-4 -13 -18 -23 -37 -27 -25 -5 -27 -8 -14 -15 12 -7 24
-5 40 6 13 8 26 12 30 9 10 -10 7 -53 -5 -75 -8 -15 -8 -19 1 -13 21 13 29 52
19 89 -12 43 -25 53 -34 26z"/>
<path d="M1622 2075 c-51 -16 -72 -32 -71 -54 0 -10 2 -11 6 -4 2 7 22 17 43
23 22 6 45 16 52 24 7 7 20 15 28 19 31 12 -14 6 -58 -8z"/>
<path d="M1456 1965 c-3 -9 -10 -14 -15 -11 -12 7 -85 -80 -78 -92 3 -4 2 -14
-3 -22 -9 -15 4 -50 19 -50 5 0 12 12 16 27 3 15 15 39 26 54 23 33 52 99 46
106 -3 2 -7 -3 -11 -12z m-22 -27 c-19 -33 -57 -78 -62 -74 -5 5 56 86 64 86
3 0 2 -6 -2 -12z"/>
<path d="M295 2043 c-30 -45 -31 -102 -2 -144 l25 -37 -25 -25 c-21 -20 -23
-28 -14 -45 7 -14 8 -23 1 -27 -5 -3 -10 -11 -10 -16 0 -5 10 -1 22 11 30 28
91 27 117 -1 24 -26 35 -92 28 -162 -5 -47 -5 -49 5 -17 15 52 6 145 -19 178
-27 37 -65 49 -106 34 -29 -10 -30 -10 -13 3 33 25 67 23 110 -8 l30 -21 -29
49 c-64 110 -77 145 -78 195 0 27 -2 50 -4 50 -9 0 -33 -64 -33 -88 0 -27 44
-101 69 -117 16 -9 13 -25 -5 -25 -8 0 -12 5 -8 11 3 6 -5 23 -19 37 -56 61
-63 104 -28 171 16 30 7 26 -14 -6z m35 -210 c-8 -3 -23 -12 -32 -21 -11 -9
-18 -11 -18 -4 0 13 29 32 50 31 13 -1 13 -1 0 -6z"/>
<path d="M440 2008 c-28 -45 -34 -73 -21 -95 9 -15 10 -11 11 21 0 21 9 54 21
72 11 19 18 34 15 34 -4 0 -15 -15 -26 -32z"/>
<path d="M568 1073 c6 -2 18 -2 25 0 6 3 1 5 -13 5 -14 0 -19 -2 -12 -5z"/>
<path d="M1010 1986 c0 -2 7 -7 16 -10 8 -3 12 -2 9 4 -6 10 -25 14 -25 6z"/>
<path d="M1058 1963 c7 -3 16 -2 19 1 4 3 -2 6 -13 5 -11 0 -14 -3 -6 -6z"/>
<path d="M1014 1493 c-9 -37 -8 -43 6 -43 9 0 25 -7 36 -16 18 -15 18 -15 -3
-5 -33 16 -34 14 -13 -21 11 -18 20 -49 21 -68 l1 -35 11 28 c6 15 14 27 18
27 13 0 39 -49 39 -75 0 -29 14 -33 29 -7 10 16 12 16 26 -2 8 -11 15 -31 15
-45 l0 -26 19 24 c18 24 25 24 106 5 11 -3 -7 10 -40 28 -62 34 -171 114 -193
141 -9 11 -10 17 -2 22 6 4 9 1 8 -7 -2 -7 3 -12 10 -10 8 1 11 -2 7 -7 -7
-12 65 -62 78 -54 6 3 7 1 4 -5 -4 -6 15 -24 43 -41 67 -42 72 -39 13 8 -26
21 -79 70 -117 109 -39 39 -74 68 -79 65 -6 -3 -7 -1 -3 5 4 6 -2 20 -12 30
-18 18 -19 17 -28 -25z"/>
<path d="M1573 1373 c-3 -10 -15 -29 -27 -43 l-21 -24 25 15 c13 9 27 28 31
42 8 30 2 37 -8 10z"/>
<path d="M790 1319 c-73 -53 -110 -90 -110 -107 0 -9 12 1 28 20 15 20 38 43
52 51 28 18 98 76 90 76 -3 0 -30 -18 -60 -40z"/>
<path d="M1036 1335 c8 -37 14 -45 14 -19 0 10 -5 26 -10 34 -8 11 -9 7 -4
-15z"/>
<path d="M1535 1240 c-4 -6 9 -10 32 -11 21 0 50 -2 65 -3 21 -1 24 1 16 11
-12 15 -104 18 -113 3z"/>
<path d="M952 1159 c-47 -15 -66 -26 -74 -45 -8 -17 -8 -28 -1 -35 8 -8 13 -5
17 9 4 12 26 30 49 42 107 53 109 60 9 29z"/>
<path d="M850 980 c-8 -19 -30 -52 -48 -72 -37 -41 -36 -46 6 -24 47 24 64 50
60 93 l-3 38 -15 -35z"/>
<path d="M547 872 c-13 -14 -14 -21 -5 -30 18 -18 36 -14 43 8 12 38 -11 52
-38 22z m25 -9 c-6 -2 -9 -10 -6 -15 4 -7 2 -8 -5 -4 -13 9 -5 26 12 25 9 0 8
-2 -1 -6z"/>
<path d="M1321 877 c-15 -19 24 -56 40 -40 15 15 1 36 -18 28 -13 -4 -14 -3
-3 10 7 8 8 15 2 15 -5 0 -15 -6 -21 -13z"/>
<path d="M1248 809 c-15 -8 -16 -13 -5 -29 6 -11 15 -20 20 -20 4 0 5 5 1 12
-5 8 -2 9 9 5 23 -9 27 5 8 25 -12 12 -21 14 -33 7z"/>
<path d="M630 795 l-25 -15 23 -6 c12 -3 22 -11 23 -18 1 -13 17 24 18 42 1
15 -8 15 -39 -3z"/>
<path d="M727 753 c-4 -3 -7 -16 -7 -27 0 -16 2 -18 9 -7 7 11 11 10 19 -5 10
-18 11 -17 20 6 11 29 5 42 -8 20 -8 -13 -10 -12 -10 3 0 17 -11 22 -23 10z"/>
<path d="M1144 745 c-8 -20 4 -35 26 -35 23 0 32 13 24 34 -8 20 -43 21 -50 1z
m36 -10 c0 -8 -4 -15 -9 -15 -13 0 -22 16 -14 24 11 11 23 6 23 -9z"/>
<path d="M841 720 c-19 -11 -9 -45 13 -45 11 0 21 6 24 13 2 6 -4 12 -13 12
-10 0 -13 -5 -9 -12 4 -7 3 -8 -4 -4 -19 11 -14 24 11 28 17 2 19 5 6 10 -9 3
-21 3 -28 -2z"/>
<path d="M1051 708 c-1 -32 7 -38 34 -27 17 7 18 8 2 8 -10 1 -22 11 -27 24
-8 21 -9 21 -9 -5z"/>
<path d="M951 702 c-16 -30 -14 -37 14 -37 28 0 32 12 11 40 -13 18 -14 18
-25 -3z"/>
<path d="M760 520 c0 -13 5 -20 13 -17 6 2 12 10 12 17 0 7 -6 15 -12 18 -8 2
-13 -5 -13 -18z"/>
<path d="M863 508 c-5 -7 -9 -20 -8 -28 1 -8 3 -21 3 -27 1 -7 11 -13 23 -13
17 0 20 5 17 37 -3 39 -19 52 -35 31z"/>
<path d="M1036 475 c-3 -8 -1 -15 4 -15 6 0 10 7 10 15 0 8 -2 15 -4 15 -2 0
-6 -7 -10 -15z"/>
<path d="M670 335 c0 -8 4 -15 10 -15 5 0 7 7 4 15 -4 8 -8 15 -10 15 -2 0 -4
-7 -4 -15z"/>
<path d="M1330 365 c0 -9 5 -15 11 -13 6 2 11 8 11 13 0 5 -5 11 -11 13 -6 2
-11 -4 -11 -13z"/>
</g>
</svg>
