<?xml version="1.0" standalone="no"?>
<!DOCTYPE svg PUBLIC "-//W3C//DTD SVG 20010904//EN"
 "http://www.w3.org/TR/2001/REC-SVG-20010904/DTD/svg10.dtd">
<svg version="1.0" xmlns="http://www.w3.org/2000/svg"
 width="200.000000pt" height="83.000000pt" viewBox="0 0 200.000000 83.000000"
 preserveAspectRatio="xMidYMid meet">

<g transform="translate(0.000000,83.000000) scale(0.100000,-0.100000)"
fill="#000000" stroke="none">
<path d="M956 784 c-11 -29 -6 -53 13 -64 27 -14 51 -2 50 24 0 11 -3 15 -6 9
-2 -7 -14 -13 -25 -13 -28 0 -19 34 10 38 32 5 27 22 -7 22 -17 0 -31 -6 -35
-16z"/>
<path d="M1066 754 c-13 -38 -13 -44 0 -44 8 0 14 5 14 10 0 6 6 10 13 9 31
-4 38 2 35 27 -2 17 -11 30 -25 35 -19 7 -23 3 -37 -37z m49 6 c3 -5 -1 -10
-9 -10 -9 0 -16 5 -16 10 0 6 4 10 9 10 6 0 13 -4 16 -10z"/>
<path d="M907 769 c6 -21 5 -21 -19 -5 -31 21 -39 13 -26 -27 14 -43 33 -61
24 -24 -7 28 -6 28 16 13 39 -27 49 -21 34 21 -14 40 -38 59 -29 22z"/>
<path d="M1142 745 c-17 -36 -15 -53 6 -63 24 -13 40 -5 57 28 18 34 18 40 5
40 -6 0 -15 -11 -20 -25 -5 -14 -17 -25 -26 -25 -16 0 -16 11 1 53 11 27 -11
20 -23 -8z"/>
<path d="M810 754 c0 -13 42 -74 51 -74 5 0 0 18 -11 40 -18 35 -40 53 -40 34z"/>
<path d="M766 725 c-21 -22 -9 -48 20 -42 13 2 24 0 24 -4 0 -5 -6 -9 -14 -9
-8 0 -17 -6 -20 -12 -3 -9 -11 -6 -25 10 -11 13 -25 20 -32 17 -7 -5 -1 -17
17 -36 20 -21 24 -29 12 -29 -9 0 -18 7 -22 15 -8 21 -43 19 -56 -4 -14 -27
-14 -27 21 -52 23 -16 33 -19 42 -10 8 8 8 11 -1 11 -7 0 -12 5 -12 11 0 6 6
9 14 6 15 -6 46 22 46 41 0 6 10 12 23 14 16 2 22 10 22 28 0 20 -5 25 -22 23
-13 -2 -23 2 -23 7 0 6 5 10 10 10 6 0 10 5 10 10 0 15 -16 12 -34 -5z m-56
-111 c0 -8 -4 -12 -10 -9 -5 3 -10 10 -10 16 0 5 5 9 10 9 6 0 10 -7 10 -16z"/>
<path d="M1218 701 c-27 -31 -35 -51 -22 -51 4 0 13 8 20 18 12 15 13 14 14
-15 0 -18 4 -33 8 -33 12 0 52 44 52 58 0 18 -17 14 -26 -5 -6 -14 -9 -8 -13
22 l-6 39 -27 -33z"/>
<path d="M952 655 c-37 -36 -71 -65 -78 -65 -4 0 -15 -7 -24 -15 -9 -8 -27
-16 -41 -18 -40 -6 -64 -66 -64 -165 0 -46 -1 -77 -4 -70 -2 7 -10 20 -18 30
-8 9 -15 23 -17 31 -1 8 -8 22 -15 31 -7 9 -10 16 -6 16 4 0 2 7 -5 15 -9 11
-9 15 -1 15 7 0 3 10 -8 22 -11 11 -18 25 -15 30 3 4 -1 15 -10 23 -20 20 -29
19 -17 -2 5 -10 9 -21 10 -25 1 -5 1 -9 2 -10 0 -2 2 -11 4 -22 7 -38 27 -75
43 -79 15 -4 14 -5 -1 -6 -19 -1 -18 -3 20 -45 7 -8 9 -16 6 -20 -4 -3 -2 -6
4 -6 6 0 13 -10 17 -23 10 -41 84 -115 144 -144 46 -23 70 -28 128 -28 117 1
210 59 265 167 12 23 28 48 35 56 8 7 12 18 9 23 -4 5 1 9 9 9 9 0 13 7 11 20
-2 11 0 20 6 20 5 0 8 3 7 8 -1 4 2 19 6 33 7 25 14 57 15 73 1 4 9 5 19 1 13
-5 14 -3 5 6 -9 9 -18 7 -39 -10 -21 -16 -23 -21 -9 -21 16 0 16 -1 0 -27 -10
-16 -25 -34 -33 -41 -14 -11 -14 -16 -4 -33 8 -12 9 -18 4 -15 -6 3 -13 -7
-17 -23 -3 -16 -12 -34 -18 -39 -9 -8 -12 8 -13 62 -1 40 -5 80 -10 89 -6 10
-9 -12 -9 -62 0 -80 -6 -95 -52 -119 -19 -10 -21 -9 -25 17 -2 16 -1 39 4 51
9 25 17 60 24 115 7 49 9 51 31 34 13 -10 11 -2 -8 31 -13 25 -25 52 -24 60 0
8 -7 15 -15 15 -8 1 -41 11 -73 23 -59 23 -135 26 -155 7z m178 -150 c-6 -31
-14 -54 -17 -52 -2 3 1 31 7 62 6 31 14 54 17 52 2 -3 -1 -31 -7 -62z m-204
18 c7 -10 14 -26 14 -35 0 -10 4 -18 9 -18 12 0 21 -39 11 -45 -5 -3 -12 0
-15 5 -13 20 -57 32 -67 18 -5 -9 -8 -8 -8 5 0 11 9 21 21 24 16 5 19 11 14
34 -7 33 1 37 21 12z m-26 -337 c0 -3 -4 -8 -10 -11 -5 -3 -10 -1 -10 4 0 6 5
11 10 11 6 0 10 -2 10 -4z m40 -26 c12 -8 9 -10 -13 -10 -16 0 -26 4 -22 10 8
12 16 12 35 0z m55 -10 c-3 -5 -11 -10 -16 -10 -6 0 -7 5 -4 10 3 6 11 10 16
10 6 0 7 -4 4 -10z"/>
<path d="M1283 638 c-38 -27 -40 -38 -12 -64 l22 -19 -7 30 c-6 27 -5 28 7 13
8 -10 17 -15 20 -11 4 3 2 12 -5 20 -6 7 -8 17 -4 21 4 4 12 -1 17 -11 10 -17
29 -24 29 -9 0 4 -8 17 -18 30 l-17 22 -32 -22z"/>
<path d="M875 640 c-3 -6 1 -7 9 -4 18 7 21 14 7 14 -6 0 -13 -4 -16 -10z"/>
<path d="M88 585 c-5 -5 -8 -12 -8 -15 0 -21 168 -27 377 -14 71 5 89 9 80 18
-7 8 -29 11 -62 8 -65 -6 -55 -6 -230 3 -82 4 -153 4 -157 0z"/>
<path d="M1480 577 c-22 -9 -18 -11 40 -18 94 -11 339 -11 380 0 20 5 27 9 15
10 -17 1 -18 3 -5 11 10 7 -35 8 -145 3 -164 -7 -205 -7 -240 1 -11 2 -31 -1
-45 -7z"/>
<path d="M1241 542 c12 -35 29 -52 29 -29 0 8 -9 25 -20 38 l-20 24 11 -33z"/>
<path d="M690 521 c0 -6 5 -13 10 -16 6 -4 8 -11 5 -16 -4 -5 -2 -9 3 -9 19 0
20 27 1 38 -10 7 -19 8 -19 3z"/>
<path d="M1291 516 c-13 -15 -4 -49 10 -40 5 3 6 10 3 16 -4 6 -1 14 6 18 7 5
8 10 2 14 -5 3 -15 0 -21 -8z"/>
<path d="M104 495 c16 -12 62 -15 237 -15 137 0 220 4 224 10 4 6 11 7 17 4 7
-4 8 -2 4 4 -5 9 -78 12 -254 12 -219 -1 -245 -2 -228 -15z"/>
<path d="M1424 498 c-4 -7 -3 -8 4 -4 7 4 12 2 12 -4 0 -16 462 -9 468 8 5 17
-473 18 -484 0z"/>
<path d="M1407 467 c-4 -12 -1 -17 11 -18 14 0 14 -2 -3 -9 -21 -10 410 -12
446 -3 59 16 -6 23 -210 23 -169 0 -230 3 -233 12 -3 7 -7 6 -11 -5z"/>
<path d="M1370 455 c-8 -9 -8 -15 -2 -15 12 0 26 19 19 26 -2 2 -10 -2 -17
-11z"/>
<path d="M133 445 c15 -11 68 -14 245 -15 204 -1 225 1 207 14 -16 13 -60 15
-245 15 -195 0 -223 -2 -207 -14z"/>
<path d="M636 417 c3 -10 9 -15 12 -12 3 3 0 11 -7 18 -10 9 -11 8 -5 -6z"/>
<path d="M170 410 c0 -17 43 -20 244 -19 116 1 203 4 194 6 -10 3 -18 9 -18
14 0 7 -76 9 -210 8 -115 -1 -210 -5 -210 -9z"/>
<path d="M1420 411 c0 -5 -8 -12 -17 -14 -10 -3 79 -5 198 -6 167 -1 219 2
227 12 9 11 -27 14 -198 16 -136 2 -210 -1 -210 -8z"/>
<path d="M224 365 c16 -12 56 -15 200 -14 183 0 254 9 187 22 -19 4 -117 7
-220 7 -166 -1 -184 -2 -167 -15z"/>
<path d="M1375 370 c-9 -15 42 -20 212 -20 170 0 203 3 203 22 0 11 -408 9
-415 -2z"/>
<path d="M447 343 c-112 -2 -176 -7 -172 -13 4 -6 83 -10 198 -9 106 1 184 3
174 6 -9 2 -15 9 -12 14 4 5 3 8 -2 7 -4 -1 -88 -4 -186 -5z"/>
<path d="M1369 342 c11 -8 10 -11 -5 -15 -10 -2 64 -5 166 -6 104 0 192 4 200
9 10 6 -44 10 -162 10 -97 0 -185 3 -195 6 -14 5 -15 4 -4 -4z"/>
<path d="M365 300 c-29 -8 -28 -8 22 -14 7 0 12 -5 10 -11 -1 -5 12 -13 28
-16 47 -10 293 -10 299 0 3 5 -7 8 -23 7 -17 -1 -28 2 -25 6 3 4 -36 8 -87 8
-116 0 -113 9 4 11 47 1 84 5 81 10 -6 11 -267 10 -309 -1z"/>
<path d="M701 294 c0 -11 3 -14 6 -6 3 7 2 16 -1 19 -3 4 -6 -2 -5 -13z"/>
<path d="M1294 301 c4 -5 0 -12 -6 -14 -8 -3 -6 -6 5 -6 9 -1 17 6 17 14 0 8
-5 15 -11 15 -5 0 -8 -4 -5 -9z"/>
<path d="M1360 300 c0 -5 44 -11 98 -13 l97 -3 -112 -2 c-113 -2 -143 -7 -143
-23 0 -11 258 -10 285 1 18 8 18 9 -5 10 -31 2 -19 6 45 16 43 6 46 8 25 15
-38 11 -290 11 -290 -1z"/>
<path d="M734 195 c-3 -8 -3 -19 1 -25 3 -5 2 -10 -4 -10 -5 0 -12 6 -15 13
-3 6 -5 3 -3 -8 1 -12 10 -20 22 -20 15 0 19 6 17 23 -2 12 1 22 6 22 16 0 22
-30 10 -49 -26 -42 17 -68 55 -33 19 16 20 16 8 -5 -6 -12 -11 -26 -11 -31 0
-11 50 -3 68 11 10 8 11 5 3 -15 -12 -31 -6 -38 28 -38 24 0 24 0 5 16 -16 13
-16 15 -1 10 22 -7 22 3 0 19 -16 12 -15 13 10 12 24 -2 27 -6 27 -37 0 -27 3
-32 11 -20 8 11 12 12 16 3 2 -7 10 -13 15 -13 6 0 8 3 5 6 -3 4 -2 14 3 23 5
10 5 23 0 31 -9 14 -19 17 -81 23 -20 2 -50 13 -66 25 l-30 21 -21 -21 c-26
-27 -40 -17 -20 13 13 20 12 24 -9 45 -27 28 -41 30 -49 9z m136 -95 c0 -5 -4
-10 -10 -10 -5 0 -10 5 -10 10 0 6 5 10 10 10 6 0 10 -4 10 -10z m130 -30 c0
-5 -7 -10 -15 -10 -8 0 -15 5 -15 10 0 6 7 10 15 10 8 0 15 -4 15 -10z"/>
<path d="M1228 183 c-14 -16 -23 -34 -21 -41 4 -9 -2 -11 -21 -6 -29 7 -35 -6
-11 -26 8 -7 15 -17 15 -23 0 -6 -10 -1 -23 11 -32 30 -37 28 -37 -19 0 -37 2
-40 16 -28 9 7 26 13 38 14 16 0 20 6 19 23 -2 19 1 21 22 16 29 -7 31 2 10
33 -20 29 -1 41 26 17 25 -23 38 -10 15 15 -10 11 -15 25 -11 30 13 22 -12 10
-37 -16z"/>
<path d="M1070 102 c-34 -5 -49 -20 -45 -43 5 -27 14 -39 28 -39 22 0 40 17
32 30 -6 9 -9 9 -16 -1 -6 -11 -11 -11 -20 -2 -14 14 -6 29 21 36 17 4 22 0
27 -24 3 -16 9 -29 14 -29 9 0 1 61 -10 71 -3 3 -17 3 -31 1z"/>
</g>
</svg>
