<?xml version="1.0" encoding="UTF-8"?>
<!DOCTYPE svg PUBLIC "-//W3C//DTD SVG 1.1//EN" "http://www.w3.org/Graphics/SVG/1.1/DTD/svg11.dtd">
<svg xmlns="http://www.w3.org/2000/svg" version="1.1" width="239px" height="211px" style="shape-rendering:geometricPrecision; text-rendering:geometricPrecision; image-rendering:optimizeQuality; fill-rule:evenodd; clip-rule:evenodd" xmlns:xlink="http://www.w3.org/1999/xlink">
<g><path style="opacity:1" fill="#fefefd" d="M -0.5,-0.5 C 79.1667,-0.5 158.833,-0.5 238.5,-0.5C 238.5,69.8333 238.5,140.167 238.5,210.5C 158.833,210.5 79.1667,210.5 -0.5,210.5C -0.5,140.167 -0.5,69.8333 -0.5,-0.5 Z"/></g>
<g><path style="opacity:1" fill="#c9a832" d="M 104.5,0.5 C 142.817,-2.55924 176.484,8.27409 205.5,33C 238.678,66.5571 245.844,105.057 227,148.5C 202.071,189.312 165.404,209.645 117,209.5C 76.1796,208.589 43.1796,192.256 18,160.5C 0.786302,135.015 -3.88036,107.348 4,77.5C 17.9874,40.1805 44.154,16.0138 82.5,5C 89.9054,3.15978 97.2387,1.65978 104.5,0.5 Z"/></g>
<g><path style="opacity:1" fill="#284aa4" d="M 103.5,2.5 C 144.876,-0.767219 180.376,11.8994 210,40.5C 242.608,80.7822 243.941,122.116 214,164.5C 187.927,193.819 155.093,208.153 115.5,207.5C 77.4566,206.342 46.2899,191.342 22,162.5C -5.28417,121.44 -3.95084,81.4402 26,42.5C 47.1245,20.0212 72.9578,6.6879 103.5,2.5 Z"/></g>
<g><path style="opacity:1" fill="#c4a434" d="M 42.5,110.5 C 45.1272,111.092 47.7938,111.425 50.5,111.5C 50.3444,114.066 50.6777,116.566 51.5,119C 50.7282,120.221 49.7282,121.221 48.5,122C 52.1062,123.274 54.7728,125.607 56.5,129C 55.5,129.5 54.5,130 53.5,130.5C 51.4912,128.99 49.6579,127.323 48,125.5C 47.3333,128.167 46.6667,128.167 46,125.5C 45.6667,125.833 45.3333,126.167 45,126.5C 44.5983,125.128 44.0983,123.795 43.5,122.5C 46.4546,119.736 46.1212,117.736 42.5,116.5C 41.0484,114.226 41.715,112.726 44.5,112C 43.5842,111.722 42.9175,111.222 42.5,110.5 Z"/></g>
<g><path style="opacity:1" fill="#c3a335" d="M 195.5,109.5 C 195.082,110.222 194.416,110.722 193.5,111C 195.426,111.422 196.426,112.589 196.5,114.5C 192.176,115.804 191.51,118.137 194.5,121.5C 193.902,122.795 193.402,124.128 193,125.5C 191.984,124.366 191.317,124.699 191,126.5C 190.667,125.833 190.333,125.167 190,124.5C 188.342,126.323 186.509,127.99 184.5,129.5C 183.5,129 182.5,128.5 181.5,128C 183.227,124.607 185.894,122.274 189.5,121C 188.272,120.221 187.272,119.221 186.5,118C 187.322,115.566 187.656,113.066 187.5,110.5C 190.206,110.425 192.873,110.092 195.5,109.5 Z"/></g>
<g><path style="opacity:1" fill="#70717a" d="M 195.5,109.5 C 198.982,111.095 199.315,113.095 196.5,115.5C 196.5,115.167 196.5,114.833 196.5,114.5C 196.426,112.589 195.426,111.422 193.5,111C 194.416,110.722 195.082,110.222 195.5,109.5 Z"/></g>
<g><path style="opacity:1" fill="#455499" d="M 192.5,103.5 C 192.047,104.458 191.381,105.292 190.5,106C 192.584,106.697 194.251,107.864 195.5,109.5C 192.873,110.092 190.206,110.425 187.5,110.5C 188.511,108.628 189.345,106.628 190,104.5C 190.671,103.748 191.504,103.414 192.5,103.5 Z"/></g>
<g><path style="opacity:1" fill="#c0a238" d="M 32.5,116.5 C 32.1997,120.976 30.0331,122.31 26,120.5C 25.3418,116.428 25.6752,112.428 27,108.5C 27.3333,109.167 27.6667,109.833 28,110.5C 28.4573,107.78 29.2906,105.78 30.5,104.5C 30.8213,101.488 29.488,100.155 26.5,100.5C 26.4802,102.143 27.1468,103.476 28.5,104.5C 27.675,105.386 26.675,105.719 25.5,105.5C 25.5046,109 23.8379,110.5 20.5,110C 21.2776,106.853 22.1109,103.687 23,100.5C 28.1561,97.0983 31.3228,98.4316 32.5,104.5C 31.0744,109.661 29.4077,114.661 27.5,119.5C 29.9589,119.69 31.6255,118.69 32.5,116.5 Z"/></g>
<g><path style="opacity:1" fill="#c2a337" d="M 196.5,89.5 C 196.196,90.1499 195.863,90.8165 195.5,91.5C 196.793,93.1026 197.793,94.7693 198.5,96.5C 197.999,101.403 199.499,105.069 203,107.5C 204.637,110.717 205.97,114.05 207,117.5C 208.011,118.337 209.178,118.67 210.5,118.5C 208.726,113.767 207.059,108.934 205.5,104C 205.894,98.9368 208.561,96.9368 213.5,98C 214.701,98.9025 215.535,100.069 216,101.5C 216.743,99.3553 217.576,99.1886 218.5,101C 217.158,103.694 216.158,106.527 215.5,109.5C 213.244,108.579 212.244,106.912 212.5,104.5C 211.325,104.719 210.325,104.386 209.5,103.5C 210.645,102.109 210.645,100.776 209.5,99.5C 208.914,99.7093 208.414,100.043 208,100.5C 207.333,102.5 207.333,104.5 208,106.5C 208.333,106.167 208.667,105.833 209,105.5C 209.333,106.833 209.667,108.167 210,109.5C 210.654,108.304 211.154,108.304 211.5,109.5C 210.572,110.768 210.405,112.101 211,113.5C 211.333,112.833 211.667,112.167 212,111.5C 212.667,114.167 212.667,116.833 212,119.5C 208.549,121.053 206.049,120.053 204.5,116.5C 203.348,119.106 203.182,121.773 204,124.5C 205.924,126.009 207.091,128.009 207.5,130.5C 206.833,130.833 206.167,131.167 205.5,131.5C 206.326,132.451 206.492,133.451 206,134.5C 205.667,134.167 205.333,133.833 205,133.5C 203.111,135.483 201.778,137.816 201,140.5C 200.329,141.252 199.496,141.586 198.5,141.5C 198.649,140.448 198.483,139.448 198,138.5C 197.023,139.774 196.189,139.774 195.5,138.5C 201.804,132.973 201.971,127.306 196,121.5C 195.322,119.402 195.489,117.402 196.5,115.5C 199.315,113.095 198.982,111.095 195.5,109.5C 194.251,107.864 192.584,106.697 190.5,106C 191.381,105.292 192.047,104.458 192.5,103.5C 193.738,104.412 195.072,104.579 196.5,104C 196.83,100.934 196.33,97.7671 195,94.5C 194.51,95.7932 194.343,97.1266 194.5,98.5C 191.163,100.354 190.163,99.6874 191.5,96.5C 194.135,92.1496 193.135,91.483 188.5,94.5C 187.537,94.0302 187.537,93.3635 188.5,92.5C 191.408,91.8407 191.742,91.0074 189.5,90C 191.81,89.5034 194.143,89.3367 196.5,89.5 Z"/></g>
<g><path style="opacity:1" fill="#766f7a" d="M 192.5,103.5 C 193.456,102.341 194.456,101.174 195.5,100C 195.43,99.2352 195.097,98.7352 194.5,98.5C 194.343,97.1266 194.51,95.7932 195,94.5C 196.33,97.7671 196.83,100.934 196.5,104C 195.072,104.579 193.738,104.412 192.5,103.5 Z"/></g>
<g><path style="opacity:1" fill="#b69c42" d="M 19.5,100.5 C 21.337,100.639 21.6704,101.306 20.5,102.5C 19.7025,102.043 19.3691,101.376 19.5,100.5 Z"/></g>
<g><path style="opacity:1" fill="#c0a239" d="M 191.5,96.5 C 187.582,99.458 188.249,100.625 193.5,100C 194.056,99.6174 194.389,99.1174 194.5,98.5C 195.097,98.7352 195.43,99.2352 195.5,100C 194.456,101.174 193.456,102.341 192.5,103.5C 191.504,103.414 190.671,103.748 190,104.5C 189.345,106.628 188.511,108.628 187.5,110.5C 186.883,110.389 186.383,110.056 186,109.5C 184.5,111.833 183,114.167 181.5,116.5C 180.818,115.757 180.151,115.091 179.5,114.5C 178.391,114.443 177.391,114.11 176.5,113.5C 176.389,112.883 176.056,112.383 175.5,112C 180.137,108.206 183.803,103.706 186.5,98.5C 188.129,97.3747 189.629,96.0414 191,94.5C 191.464,95.0944 191.631,95.7611 191.5,96.5 Z"/></g>
<g><path style="opacity:1" fill="#76717b" d="M 191.5,96.5 C 190.163,99.6874 191.163,100.354 194.5,98.5C 194.389,99.1174 194.056,99.6174 193.5,100C 188.249,100.625 187.582,99.458 191.5,96.5 Z"/></g>
<g><path style="opacity:1" fill="#696a82" d="M 187.5,92.5 C 187.833,92.5 188.167,92.5 188.5,92.5C 187.537,93.3635 187.537,94.0302 188.5,94.5C 193.135,91.483 194.135,92.1496 191.5,96.5C 191.631,95.7611 191.464,95.0944 191,94.5C 189.629,96.0414 188.129,97.3747 186.5,98.5C 184.938,96.0993 185.271,94.0993 187.5,92.5 Z"/></g>
<g><path style="opacity:1" fill="#807a70" d="M 199.5,96.5 C 199.167,96.5 198.833,96.5 198.5,96.5C 197.793,94.7693 196.793,93.1026 195.5,91.5C 195.863,90.8165 196.196,90.1499 196.5,89.5C 196.5,89.1667 196.5,88.8333 196.5,88.5C 197.423,87.6971 198.423,87.5304 199.5,88C 198.214,90.8316 198.214,93.6649 199.5,96.5 Z"/></g>
<g><path style="opacity:1" fill="#4c5d90" d="M 66.5,74.5 C 66.6665,83.8393 66.4998,93.1726 66,102.5C 65.0944,105.121 64.5944,104.954 64.5,102C 65.4262,93.531 65.7595,85.031 65.5,76.5C 65.3284,75.5084 65.6618,74.8417 66.5,74.5 Z"/></g>
<g><path style="opacity:1" fill="#c1a237" d="M 200.5,78.5 C 202.072,79.6873 203.739,80.6873 205.5,81.5C 202.446,80.6789 199.446,80.6789 196.5,81.5C 197.716,82.0959 199.049,82.2626 200.5,82C 196.47,84.5958 196.804,85.9291 201.5,86C 200.304,85.3457 200.304,84.8457 201.5,84.5C 202.417,85.1272 203.417,85.4606 204.5,85.5C 205.141,86.4822 205.807,87.4822 206.5,88.5C 206.502,90.537 206.168,92.537 205.5,94.5C 205.785,96.288 205.452,97.9547 204.5,99.5C 199.227,88.7121 198.561,88.8788 202.5,100C 202.491,101.404 201.991,102.57 201,103.5C 200.56,101.134 200.06,98.8008 199.5,96.5C 198.214,93.6649 198.214,90.8316 199.5,88C 198.423,87.5304 197.423,87.6971 196.5,88.5C 196.784,86.5853 196.451,84.9187 195.5,83.5C 194.5,83.5 193.5,83.5 192.5,83.5C 192.33,82.1779 192.663,81.0113 193.5,80C 195.74,79.023 198.073,78.523 200.5,78.5 Z"/></g>
<g><path style="opacity:1" fill="#696485" d="M 205.5,94.5 C 203.243,93.4382 202.077,91.7715 202,89.5C 204.172,90.5089 205.338,92.1756 205.5,94.5 Z"/></g>
<g><path style="opacity:1" fill="#314ca1" d="M 196.5,88.5 C 196.5,88.8333 196.5,89.1667 196.5,89.5C 194.143,89.3367 191.81,89.5034 189.5,90C 191.742,91.0074 191.408,91.8407 188.5,92.5C 188.167,92.5 187.833,92.5 187.5,92.5C 186.559,90.9505 185.893,89.2838 185.5,87.5C 186.449,86.8476 187.615,86.5143 189,86.5C 191.635,86.7388 194.135,87.4055 196.5,88.5 Z"/></g>
<g><path style="opacity:1" fill="#968761" d="M 195.5,83.5 C 196.451,84.9187 196.784,86.5853 196.5,88.5C 194.135,87.4055 191.635,86.7388 189,86.5C 187.615,86.5143 186.449,86.8476 185.5,87.5C 184.375,86.6522 184.375,85.6522 185.5,84.5C 189.004,85.4621 192.337,85.1288 195.5,83.5 Z"/></g>
<g><path style="opacity:1" fill="#bfa13a" d="M 31.5,82.5 C 31.8333,82.5 32.1667,82.5 32.5,82.5C 34.4931,83.4716 34.8264,84.8049 33.5,86.5C 31.8042,86.3146 30.4709,85.4813 29.5,84C 30.0442,83.2828 30.7109,82.7828 31.5,82.5 Z"/></g>
<g><path style="opacity:1" fill="#bda03c" d="M 205.5,81.5 C 205.833,81.5 206.167,81.5 206.5,81.5C 207.289,81.7828 207.956,82.2828 208.5,83C 207.529,84.4813 206.196,85.3146 204.5,85.5C 204.047,84.5416 203.381,83.7083 202.5,83C 203.737,82.7679 204.737,82.2679 205.5,81.5 Z"/></g>
<g><path style="opacity:1" fill="#766e7c" d="M 205.5,81.5 C 204.737,82.2679 203.737,82.7679 202.5,83C 203.381,83.7083 204.047,84.5416 204.5,85.5C 203.417,85.4606 202.417,85.1272 201.5,84.5C 200.304,84.8457 200.304,85.3457 201.5,86C 196.804,85.9291 196.47,84.5958 200.5,82C 199.049,82.2626 197.716,82.0959 196.5,81.5C 199.446,80.6789 202.446,80.6789 205.5,81.5 Z"/></g>
<g><path style="opacity:1" fill="#706b80" d="M 33.5,86.5 C 34.8264,84.8049 34.4931,83.4716 32.5,82.5C 35.5535,81.6789 38.5535,81.6789 41.5,82.5C 40.2839,83.0959 38.9506,83.2626 37.5,83C 39.0368,84.1096 39.7035,85.6096 39.5,87.5C 38.448,87.6495 37.448,87.4828 36.5,87C 37.6956,86.3457 37.6956,85.8457 36.5,85.5C 35.5832,86.1272 34.5832,86.4606 33.5,86.5 Z"/></g>
<g><path style="opacity:1" fill="#767477" d="M 37.5,79.5 C 35.9275,80.6873 34.2608,81.6873 32.5,82.5C 32.1667,82.5 31.8333,82.5 31.5,82.5C 31.4142,81.5041 31.7476,80.6708 32.5,80C 34.299,78.9637 35.9657,78.7971 37.5,79.5 Z"/></g>
<g><path style="opacity:1" fill="#70707b" d="M 200.5,78.5 C 202.199,78.3398 203.866,78.5065 205.5,79C 206.252,79.6708 206.586,80.5041 206.5,81.5C 206.167,81.5 205.833,81.5 205.5,81.5C 203.739,80.6873 202.072,79.6873 200.5,78.5 Z"/></g>
<g><path style="opacity:1" fill="#606885" d="M 63.5,68.5 C 64.4972,68.4701 65.1639,68.9701 65.5,70C 64.801,73.2272 63.4677,76.0605 61.5,78.5C 62.7576,75.3061 63.4242,71.9728 63.5,68.5 Z"/></g>
<g><path style="opacity:1" fill="#c0a139" d="M 66.5,74.5 C 65.6618,74.8417 65.3284,75.5084 65.5,76.5C 63.233,79.2709 60.733,81.9375 58,84.5C 55.4944,88.844 53.8277,93.5106 53,98.5C 52.6667,97.1667 52.3333,95.8333 52,94.5C 51.6827,96.3008 51.016,96.6341 50,95.5C 49.5,96 49,96.5 48.5,97C 52.4596,102.895 57.1262,108.228 62.5,113C 61.1068,114.171 60.2735,115.671 60,117.5C 58.6667,114.833 57.3333,114.833 56,117.5C 54.9196,115.004 53.5862,112.67 52,110.5C 51.6174,111.056 51.1174,111.389 50.5,111.5C 49.4886,109.628 48.6552,107.628 48,105.5C 47.3292,104.748 46.4959,104.414 45.5,104.5C 45.8039,105.15 46.1373,105.817 46.5,106.5C 45.1335,107.84 43.8001,109.173 42.5,110.5C 39.0181,112.095 38.6848,114.095 41.5,116.5C 42.5109,118.402 42.6776,120.402 42,122.5C 36.1005,128.232 36.2671,133.898 42.5,139.5C 41.8106,140.774 40.9772,140.774 40,139.5C 39.5172,140.448 39.3505,141.448 39.5,142.5C 38.5041,142.586 37.6708,142.252 37,141.5C 35.3333,138.167 33.6667,134.833 32,131.5C 31.3457,132.696 30.8457,132.696 30.5,131.5C 30.9094,129.009 32.0761,127.009 34,125.5C 34.1667,124 34.3333,122.5 34.5,121C 34.4313,119.014 33.7647,117.514 32.5,116.5C 32.6682,111.327 35.0016,107.494 39.5,105C 38.4019,104.23 38.4019,103.397 39.5,102.5C 39.6744,99.1262 40.1744,95.7928 41,92.5C 42.6665,93.3402 42.8331,92.8402 41.5,91C 42.0944,90.5357 42.7611,90.369 43.5,90.5C 45.1992,90.3398 46.8659,90.5065 48.5,91C 46.0341,91.9297 46.2007,92.763 49,93.5C 54.4651,88.8974 53.6318,86.8974 46.5,87.5C 45.3991,86.4017 44.0657,86.235 42.5,87C 43.5,87.3333 44.5,87.6667 45.5,88C 43.1667,88.3333 40.8333,88.6667 38.5,89C 39.8189,92.9456 39.4856,96.7789 37.5,100.5C 37.5343,105.6 36.8677,105.766 35.5,101C 39.4921,88.4976 38.8255,88.3309 33.5,100.5C 33.1667,99.6667 32.8333,98.8333 32.5,98C 32.8171,95.1879 34.1505,93.0212 36.5,91.5C 36.3333,91.1667 36.1667,90.8333 36,90.5C 34.4301,91.614 33.0968,92.9474 32,94.5C 32.0464,92.6874 31.8797,91.0207 31.5,89.5C 32.1925,88.4822 32.8592,87.4822 33.5,86.5C 34.5832,86.4606 35.5832,86.1272 36.5,85.5C 37.6956,85.8457 37.6956,86.3457 36.5,87C 37.448,87.4828 38.448,87.6495 39.5,87.5C 39.7035,85.6096 39.0368,84.1096 37.5,83C 38.9506,83.2626 40.2839,83.0959 41.5,82.5C 38.5535,81.6789 35.5535,81.6789 32.5,82.5C 34.2608,81.6873 35.9275,80.6873 37.5,79.5C 40.9156,78.8941 43.5822,79.8941 45.5,82.5C 44.91,83.7989 43.91,84.6322 42.5,85C 50.4865,87.5081 56.8198,85.3415 61.5,78.5C 63.4677,76.0605 64.801,73.2272 65.5,70C 65.1639,68.9701 64.4972,68.4701 63.5,68.5C 65.3005,63.417 64.1338,59.0837 60,55.5C 58.9505,56.5171 57.7839,56.6838 56.5,56C 55.364,54.4702 54.364,53.1369 53.5,52C 50.1667,51.3333 46.8333,51.3333 43.5,52C 42.944,52.3826 42.6107,52.8826 42.5,53.5C 41.8826,53.3893 41.3826,53.056 41,52.5C 40.5034,50.1902 40.3367,47.8568 40.5,45.5C 40.281,44.325 40.6143,43.325 41.5,42.5C 47.3278,44.9743 53.3278,47.1409 59.5,49C 67.4664,56.0166 69.7998,64.5166 66.5,74.5 Z"/></g>
<g><path style="opacity:1" fill="#71717b" d="M 42.5,110.5 C 42.9175,111.222 43.5842,111.722 44.5,112C 41.715,112.726 41.0484,114.226 42.5,116.5C 42.1667,116.5 41.8333,116.5 41.5,116.5C 38.6848,114.095 39.0181,112.095 42.5,110.5 Z"/></g>
<g><path style="opacity:1" fill="#4e5895" d="M 45.5,104.5 C 46.4959,104.414 47.3292,104.748 48,105.5C 48.6552,107.628 49.4886,109.628 50.5,111.5C 47.7938,111.425 45.1272,111.092 42.5,110.5C 43.8001,109.173 45.1335,107.84 46.5,106.5C 46.1373,105.817 45.8039,105.15 45.5,104.5 Z"/></g>
<g><path style="opacity:1" fill="#706b80" d="M 43.5,99.5 C 42.9033,99.7352 42.5699,100.235 42.5,101C 43.5442,102.174 44.5442,103.341 45.5,104.5C 44.2618,105.412 42.9285,105.579 41.5,105C 42.1136,103.87 42.1136,102.537 41.5,101C 41.8333,100.167 42.1667,99.3333 42.5,98.5C 43.1067,98.6236 43.44,98.9569 43.5,99.5 Z"/></g>
<g><path style="opacity:1" fill="#706e7e" d="M 43.5,99.5 C 44.8474,100.028 46.1807,100.195 47.5,100C 45.4585,98.0591 44.7918,95.8925 45.5,93.5C 48.6478,94.1404 48.9812,95.1404 46.5,96.5C 50.7449,100.095 50.0783,101.595 44.5,101C 43.944,100.617 43.6107,100.117 43.5,99.5 Z"/></g>
<g><path style="opacity:1" fill="#6e6e7d" d="M 46.5,87.5 C 45.9002,88.8999 44.9002,89.8999 43.5,90.5C 42.7611,90.369 42.0944,90.5357 41.5,91C 42.8331,92.8402 42.6665,93.3402 41,92.5C 40.1744,95.7928 39.6744,99.1262 39.5,102.5C 38.8333,101.833 38.1667,101.167 37.5,100.5C 39.4856,96.7789 39.8189,92.9456 38.5,89C 40.8333,88.6667 43.1667,88.3333 45.5,88C 44.5,87.6667 43.5,87.3333 42.5,87C 44.0657,86.235 45.3991,86.4017 46.5,87.5 Z"/></g>
<g><path style="opacity:1" fill="#2448a5" d="M 46.5,87.5 C 53.6318,86.8974 54.4651,88.8974 49,93.5C 46.2007,92.763 46.0341,91.9297 48.5,91C 46.8659,90.5065 45.1992,90.3398 43.5,90.5C 44.9002,89.8999 45.9002,88.8999 46.5,87.5 Z"/></g>
<g><path style="opacity:1" fill="#666a82" d="M 40.5,45.5 C 40.3367,47.8568 40.5034,50.1902 41,52.5C 41.3826,53.056 41.8826,53.3893 42.5,53.5C 43.2389,53.369 43.9056,53.5357 44.5,54C 43.0069,55.3681 41.5069,55.5348 40,54.5C 39.1955,51.3035 39.3622,48.3035 40.5,45.5 Z"/></g>
<g><path style="opacity:1" fill="#5f6686" d="M 197.5,42.5 C 198.16,43.964 198.493,45.6307 198.5,47.5C 198.679,50.1312 198.013,52.4645 196.5,54.5C 192.496,53.0696 188.496,52.0696 184.5,51.5C 185.964,50.8401 187.631,50.5068 189.5,50.5C 192.011,50.288 194.178,50.9546 196,52.5C 197.405,49.3812 197.905,46.0479 197.5,42.5 Z"/></g>
<g><path style="opacity:1" fill="#c3a435" d="M 197.5,42.5 C 197.905,46.0479 197.405,49.3812 196,52.5C 194.178,50.9546 192.011,50.288 189.5,50.5C 187.631,50.5068 185.964,50.8401 184.5,51.5C 183.761,51.369 183.094,51.5357 182.5,52C 183.711,52.8928 183.711,53.7261 182.5,54.5C 178.614,54.5517 175.781,56.2183 174,59.5C 173.502,61.5269 173.669,63.5269 174.5,65.5C 173.963,66.7412 173.296,67.9079 172.5,69C 173.333,71.5 174.167,74 175,76.5C 177.386,77.7633 179.219,79.5967 180.5,82C 182.078,83.0945 183.745,83.9278 185.5,84.5C 184.375,85.6522 184.375,86.6522 185.5,87.5C 185.893,89.2838 186.559,90.9505 187.5,92.5C 185.271,94.0993 184.938,96.0993 186.5,98.5C 185.503,98.5299 184.836,98.0299 184.5,97C 183.261,89.2862 179.761,82.7862 174,77.5C 167.597,66.5071 169.097,56.6738 178.5,48C 184.597,45.9384 190.597,43.7718 196.5,41.5C 197.107,41.6236 197.44,41.9569 197.5,42.5 Z"/></g>
<g><path style="opacity:1" fill="#c5a533" d="M 134.5,34.5 C 131.313,33.1944 127.98,33.1944 124.5,34.5C 124.624,35.1067 124.957,35.44 125.5,35.5C 130.991,38.6405 133.991,43.3072 134.5,49.5C 134.657,56.4875 131.823,58.1541 126,54.5C 125.333,52.5 125.333,50.5 126,48.5C 130.333,52.818 131.999,51.818 131,45.5C 128.42,38.0766 125.92,37.9099 123.5,45C 123.369,70.3954 123.536,95.8954 124,121.5C 125.022,122.354 125.855,123.354 126.5,124.5C 121.5,124.5 116.5,124.5 111.5,124.5C 112.145,123.354 112.978,122.354 114,121.5C 114.176,96.1241 114.676,70.7908 115.5,45.5C 114.498,43.4899 113.498,41.4899 112.5,39.5C 108.238,42.026 106.738,45.6926 108,50.5C 109.011,51.3366 110.178,51.67 111.5,51.5C 111.899,48.0123 112.566,47.8456 113.5,51C 113.367,55.8042 111.033,57.4708 106.5,56C 102.605,50.8062 102.771,45.6395 107,40.5C 109.22,37.979 111.72,35.8123 114.5,34C 97.1959,31.966 87.5292,39.6327 85.5,57C 85.7029,65.9041 89.2029,73.0707 96,78.5C 97.8231,77.3488 99.6564,76.1821 101.5,75C 108.235,73.4165 111.401,75.9165 111,82.5C 110.097,83.7014 108.931,84.5348 107.5,85C 104.225,85.0705 101.058,85.2371 98,85.5C 96.9608,92.3233 95.2942,98.99 93,105.5C 88.7058,114.727 81.5391,118.894 71.5,118C 67.8751,115.45 67.7084,112.95 71,110.5C 71.5,110.667 72,110.833 72.5,111C 71.1667,112.333 71.1667,113.667 72.5,115C 75.9563,116.123 78.7897,115.29 81,112.5C 85.403,102.458 89.903,92.4581 94.5,82.5C 81.3225,74.4925 76.1558,62.8258 79,47.5C 83.8199,36.0229 92.4866,30.0229 105,29.5C 109.895,29.7122 114.728,30.3788 119.5,31.5C 129.459,29.5332 139.125,30.3666 148.5,34C 161.979,45.0962 164.145,58.2628 155,73.5C 151.749,77.4217 147.916,80.5883 143.5,83C 147.809,93.5991 152.309,104.099 157,114.5C 162.143,119.26 165.31,118.26 166.5,111.5C 168.694,113.315 169.028,115.482 167.5,118C 157.266,120.636 149.766,117.136 145,107.5C 142.617,99.9118 140.617,92.2451 139,84.5C 134.517,86.3016 130.517,85.6349 127,82.5C 126.104,79.975 126.604,77.8083 128.5,76C 133.64,74.54 137.974,75.7067 141.5,79.5C 150.939,72.1273 154.439,62.4606 152,50.5C 149.145,41.8079 143.312,36.4746 134.5,34.5 Z"/></g>
<g><path style="opacity:1" fill="#354da0" d="M 131.5,77.5 C 133.308,77.4914 134.975,77.9914 136.5,79C 137.451,79.7175 137.617,80.5509 137,81.5C 134.936,82.5914 132.769,82.7581 130.5,82C 129.257,80.184 129.59,78.684 131.5,77.5 Z"/></g>
<g><path style="opacity:1" fill="#344da0" d="M 102.5,77.5 C 104.199,77.3398 105.866,77.5065 107.5,78C 108.925,79.7141 108.592,81.0475 106.5,82C 101.036,83.3896 99.7025,81.8896 102.5,77.5 Z"/></g>
<g><path style="opacity:1" fill="#2c4ba3" d="M 117.5,35.5 C 125.886,36.2688 126.553,38.9355 119.5,43.5C 117.5,42.1667 115.833,40.5 114.5,38.5C 115.34,37.265 116.34,36.265 117.5,35.5 Z"/></g>
<g><path style="opacity:1" fill="#71717c" d="M 134.5,34.5 C 131.287,34.19 128.287,34.5233 125.5,35.5C 124.957,35.44 124.624,35.1067 124.5,34.5C 127.98,33.1944 131.313,33.1944 134.5,34.5 Z"/></g>
<g><path style="opacity:1" fill="#847c6e" d="M 176.5,113.5 C 177.391,114.11 178.391,114.443 179.5,114.5C 178.206,117.14 176.873,117.14 175.5,114.5C 175.624,113.893 175.957,113.56 176.5,113.5 Z"/></g>
<g><path style="opacity:1" fill="#cbaa27" d="M 128.5,133.5 C 127.432,132.566 126.099,132.232 124.5,132.5C 123.833,149.833 123.167,149.833 122.5,132.5C 120.901,132.232 119.568,132.566 118.5,133.5C 117.957,133.44 117.624,133.107 117.5,132.5C 121.5,131.167 125.5,131.167 129.5,132.5C 129.376,133.107 129.043,133.44 128.5,133.5 Z"/></g>
<g><path style="opacity:1" fill="#c0a238" d="M 131.5,132.5 C 132.946,131.387 134.613,131.22 136.5,132C 135.594,133.699 135.261,135.533 135.5,137.5C 137.833,137.5 140.167,137.5 142.5,137.5C 142.739,135.533 142.406,133.699 141.5,132C 142.793,131.51 144.127,131.343 145.5,131.5C 145.5,136.167 145.5,140.833 145.5,145.5C 144.5,145.5 143.5,145.5 142.5,145.5C 142.5,143.167 142.5,140.833 142.5,138.5C 140.167,138.5 137.833,138.5 135.5,138.5C 135.5,140.833 135.5,143.167 135.5,145.5C 134.448,145.649 133.448,145.483 132.5,145C 133.134,142.925 133.468,140.759 133.5,138.5C 133.461,136.048 132.794,134.048 131.5,132.5 Z"/></g>
<g><path style="opacity:1" fill="#bc9f3d" d="M 154.5,131.5 C 156.725,135.623 158.725,139.956 160.5,144.5C 159.675,145.386 158.675,145.719 157.5,145.5C 157.923,142.757 156.756,141.424 154,141.5C 152.037,142.806 150.203,143.972 148.5,145C 150.643,140.548 152.643,136.048 154.5,131.5 Z"/></g>
<g><path style="opacity:1" fill="#4c5d91" d="M 118.5,133.5 C 119.568,132.566 120.901,132.232 122.5,132.5C 123.167,149.833 123.833,149.833 124.5,132.5C 126.099,132.232 127.432,132.566 128.5,133.5C 127.5,133.5 126.5,133.5 125.5,133.5C 125.203,137.767 125.536,141.934 126.5,146C 124.5,146.667 122.5,146.667 120.5,146C 121.464,141.934 121.797,137.767 121.5,133.5C 120.5,133.5 119.5,133.5 118.5,133.5 Z"/></g>
<g><path style="opacity:1" fill="#ccaa28" d="M 86.5,132.5 C 87.9464,131.387 89.6131,131.22 91.5,132C 90.6948,136.749 90.1948,141.582 90,146.5C 89.5814,147.672 88.9147,148.672 88,149.5C 88.0717,146.408 88.2383,143.241 88.5,140C 88.4752,137.071 87.8086,134.571 86.5,132.5 Z"/></g>
<g><path style="opacity:1" fill="#b79b43" d="M 109.5,131.5 C 111.5,131.5 113.5,131.5 115.5,131.5C 115.649,132.552 115.483,133.552 115,134.5C 113.89,132.963 112.39,132.297 110.5,132.5C 111.83,135.712 113.496,138.879 115.5,142C 114.496,145.668 112.163,147.002 108.5,146C 107.483,144.951 107.316,143.784 108,142.5C 109.401,144.192 111.234,144.859 113.5,144.5C 113.082,141.561 111.582,139.228 109,137.5C 108.322,135.402 108.489,133.402 109.5,131.5 Z"/></g>
<g><path style="opacity:1" fill="#3a4d9f" d="M 153.5,135.5 C 155.104,136.287 155.771,137.62 155.5,139.5C 154.448,139.649 153.448,139.483 152.5,139C 153.337,137.989 153.67,136.822 153.5,135.5 Z"/></g>
<g><path style="opacity:1" fill="#c1a237" d="M 101.5,141.5 C 101.167,140.833 100.833,140.167 100.5,139.5C 99.5,134.167 98.5,134.167 97.5,139.5C 97.1667,140.167 96.8333,140.833 96.5,141.5C 96.4784,143.8 95.4784,144.967 93.5,145C 95.4069,140.441 97.4069,135.941 99.5,131.5C 101.599,135.966 103.599,140.466 105.5,145C 102.862,145.509 101.528,144.342 101.5,141.5 Z"/></g>
<g><path style="opacity:1" fill="#384ca0" d="M 100.5,139.5 C 99.5,139.5 98.5,139.5 97.5,139.5C 98.5,134.167 99.5,134.167 100.5,139.5 Z"/></g>
<g><path style="opacity:1" fill="#b89c42" d="M 163.5,131.5 C 167.441,133.772 170.775,136.772 173.5,140.5C 174.783,137.628 174.783,134.795 173.5,132C 174.448,131.517 175.448,131.351 176.5,131.5C 176.827,136.214 176.493,140.88 175.5,145.5C 172.182,142.683 169.015,139.683 166,136.5C 165.821,139.553 165.321,142.553 164.5,145.5C 163.507,140.88 163.173,136.214 163.5,131.5 Z"/></g>
<g><path style="opacity:1" fill="#7f7a71" d="M 97.5,139.5 C 98.5,139.5 99.5,139.5 100.5,139.5C 100.833,140.167 101.167,140.833 101.5,141.5C 99.8333,141.5 98.1667,141.5 96.5,141.5C 96.8333,140.833 97.1667,140.167 97.5,139.5 Z"/></g>
<g><path style="opacity:1" fill="#7f7872" d="M 42.5,139.5 C 43.915,142.752 42.915,143.752 39.5,142.5C 39.3505,141.448 39.5172,140.448 40,139.5C 40.9772,140.774 41.8106,140.774 42.5,139.5 Z"/></g>
<g><path style="opacity:1" fill="#817b6e" d="M 195.5,138.5 C 196.189,139.774 197.023,139.774 198,138.5C 198.483,139.448 198.649,140.448 198.5,141.5C 195.085,142.752 194.085,141.752 195.5,138.5 Z"/></g>
<g><path style="opacity:1" fill="#bb9f3e" d="M 80.5,141.5 C 79.7717,139.488 78.9383,137.488 78,135.5C 77.4275,137.641 76.5942,139.641 75.5,141.5C 75.4938,143.844 74.3271,145.178 72,145.5C 69.1323,144.48 66.6323,142.813 64.5,140.5C 63.5481,142.045 63.2148,143.712 63.5,145.5C 62.5,145.5 61.5,145.5 60.5,145.5C 60.8,140.901 60.4667,136.401 59.5,132C 62.9926,130.996 66.1592,131.496 69,133.5C 69.7562,135.809 69.2562,137.809 67.5,139.5C 68.8992,142.054 70.8992,143.72 73.5,144.5C 74.5706,139.958 76.2372,135.624 78.5,131.5C 80.5988,135.966 82.5988,140.466 84.5,145C 83.552,145.483 82.552,145.649 81.5,145.5C 81.5674,144.041 81.2341,142.708 80.5,141.5 Z"/></g>
<g><path style="opacity:1" fill="#6c6883" d="M 80.5,141.5 C 78.8333,141.5 77.1667,141.5 75.5,141.5C 76.5942,139.641 77.4275,137.641 78,135.5C 78.9383,137.488 79.7717,139.488 80.5,141.5 Z"/></g>
<g><path style="opacity:1" fill="#2447a6" d="M 63.5,132.5 C 66.9656,133.109 67.9656,134.942 66.5,138C 65.552,138.483 64.552,138.649 63.5,138.5C 63.5,136.5 63.5,134.5 63.5,132.5 Z"/></g>
<g><path style="opacity:1" fill="#98895e" d="M 63.5,155.5 C 59.9581,155.187 56.6248,155.521 53.5,156.5C 52.234,155.91 50.9007,155.41 49.5,155C 54.3522,154.185 59.0189,154.352 63.5,155.5 Z"/></g>
<g><path style="opacity:1" fill="#bfa13a" d="M 103.5,155.5 C 106.304,154.362 109.304,154.195 112.5,155C 112.043,155.414 111.709,155.914 111.5,156.5C 113.418,160.004 115.584,163.337 118,166.5C 119.667,163.833 121.333,161.167 123,158.5C 123.684,157.216 123.517,156.049 122.5,155C 125.167,154.333 127.833,154.333 130.5,155C 128.919,155.707 127.419,156.54 126,157.5C 124,160.833 122,164.167 120,167.5C 119.501,171.486 119.334,175.486 119.5,179.5C 119.621,180.843 117.288,181.01 112.5,180C 113.733,178.302 114.4,176.302 114.5,174C 114.218,168.599 112.385,163.766 109,159.5C 107.549,157.536 105.716,156.203 103.5,155.5 Z"/></g>
<g><path style="opacity:1" fill="#c3a435" d="M 138.5,154.5 C 140.335,155.122 141.502,156.456 142,158.5C 144.667,165.167 147.333,171.833 150,178.5C 151.067,179.191 152.234,179.691 153.5,180C 150.854,180.497 148.187,180.664 145.5,180.5C 144.969,177.763 144.136,175.096 143,172.5C 137.473,170.239 133.973,171.905 132.5,177.5C 132.818,178.647 133.484,179.481 134.5,180C 131.5,180.667 128.5,180.667 125.5,180C 126.766,179.691 127.933,179.191 129,178.5C 132.467,170.595 135.634,162.595 138.5,154.5 Z"/></g>
<g><path style="opacity:1" fill="#c8a72f" d="M 154.5,155.5 C 157.64,154.359 160.973,154.192 164.5,155C 163.584,155.374 162.75,155.874 162,156.5C 161.333,163.5 161.333,170.5 162,177.5C 165.863,179.199 169.196,178.532 172,175.5C 172.72,177.112 172.554,178.612 171.5,180C 164.756,180.836 160.089,180.67 157.5,179.5C 157.666,171.826 157.5,164.159 157,156.5C 156.329,155.748 155.496,155.414 154.5,155.5 Z"/></g>
<g><path style="opacity:1" fill="#c3a434" d="M 83.5,154.5 C 90.9104,153.045 97.0771,155.045 102,160.5C 105.137,175.698 98.9704,182.198 83.5,180C 75.2612,175.041 73.4278,168.207 78,159.5C 79.8119,157.7 81.6452,156.033 83.5,154.5 Z"/></g>
<g><path style="opacity:1" fill="#274aa4" d="M 84.5,156.5 C 91.0788,155.038 95.5788,157.371 98,163.5C 98.7673,167.594 98.434,171.594 97,175.5C 91.6938,180.979 86.6938,180.645 82,174.5C 79.2814,167.811 80.1148,161.811 84.5,156.5 Z"/></g>
<g><path style="opacity:1" fill="#c4a434" d="M 180.5,154.5 C 183.5,154.5 186.5,154.5 189.5,154.5C 189.662,156.527 189.495,158.527 189,160.5C 187.249,156.756 184.415,155.756 180.5,157.5C 180.167,158.167 179.833,158.833 179.5,159.5C 182.428,162.932 185.595,166.265 189,169.5C 191.494,176.504 188.994,180.17 181.5,180.5C 175.933,181.234 174.1,178.901 176,173.5C 177.297,179.153 180.464,180.653 185.5,178C 186.749,175.79 186.582,173.624 185,171.5C 181.667,169.5 179,166.833 177,163.5C 175.98,159.553 177.147,156.553 180.5,154.5 Z"/></g>
<g><path style="opacity:1" fill="#304ba2" d="M 138.5,161.5 C 139.67,163.65 140.67,165.984 141.5,168.5C 139.5,169.833 137.5,169.833 135.5,168.5C 136.702,166.22 137.702,163.886 138.5,161.5 Z"/></g>
<g><path style="opacity:1" fill="#c5a532" d="M 63.5,155.5 C 67.0624,155.564 68.7291,157.397 68.5,161C 67.6814,164.117 66.5148,166.95 65,169.5C 67.907,174.076 71.7403,177.576 76.5,180C 74.1667,180.667 71.8333,180.667 69.5,180C 66.462,177.297 63.7954,174.297 61.5,171C 60.2068,170.51 58.8734,170.343 57.5,170.5C 57.5,173.5 57.5,176.5 57.5,179.5C 57.6209,180.843 55.2875,181.01 50.5,180C 51.4162,179.626 52.2496,179.126 53,178.5C 53.4997,171.174 53.6663,163.841 53.5,156.5C 56.6248,155.521 59.9581,155.187 63.5,155.5 Z"/></g>
<g><path style="opacity:1" fill="#2c4ba3" d="M 57.5,156.5 C 62.2476,156.081 64.5809,158.248 64.5,163C 64.418,167.575 62.0847,169.408 57.5,168.5C 57.5,164.5 57.5,160.5 57.5,156.5 Z"/></g>
</svg>
